<?xml version="1.0" encoding="utf-8"?>
<!-- Generator: Adobe Illustrator 17.0.0, SVG Export Plug-In . SVG Version: 6.00 Build 0)  -->
<!DOCTYPE svg PUBLIC "-//W3C//DTD SVG 1.1//EN" "http://www.w3.org/Graphics/SVG/1.1/DTD/svg11.dtd">
<svg version="1.1" id="Layer_1" xmlns="http://www.w3.org/2000/svg" xmlns:xlink="http://www.w3.org/1999/xlink" x="0px" y="0px"
	 width="383.981px" height="443.978px" viewBox="0 0 383.981 443.978" enable-background="new 0 0 383.981 443.978"
	 xml:space="preserve">
<path fill="#F4D6B1" d="M209.811,167.317v-11.579l-16.305,11.579l-16.305-11.579v11.579c0,4.962-5.199,4.962-5.199,4.962
	l21.503,21.503l21.503-21.503C214.774,172.515,209.811,172.515,209.811,167.317z"/>
<path fill="#DFBA94" d="M209.811,155.738l-16.305,11.579l-16.305-11.579v12.051c8.979,4.017,16.305,4.253,16.305,4.253
	s7.325-0.236,16.305-4.253V155.738z"/>
<path fill="#FEE0CD" d="M289.916,240.096c0,0,8.034,37.335,4.49,46.551c-3.308,9.216-42.77,44.66-42.77,44.66l-9.452-13.942
	c0,0,22.448-31.191,22.685-37.099c0.236-5.671-8.034-21.503-8.034-21.503S289.916,240.096,289.916,240.096z M101.587,237.024
	c0,0-11.815,43.951-9.216,53.403s38.989,41.116,38.989,41.116l10.633-12.996c0,0-19.376-31.9-19.14-37.571
	c0.236-5.671,8.743-23.157,8.743-23.157S101.587,237.024,101.587,237.024z"/>
<path fill="#010101" d="M245.492,184.566c-14.414-5.907-28.828-11.106-28.828-11.106c-7.562,8.034-15.359,12.996-23.63,14.65
	c-8.27-1.654-16.068-6.616-23.63-14.65c0,0-44.188,15.832-56.002,23.63c0,0-11.579,19.849-18.904,56.711
	c-0.236,1.181,0.473,2.363,1.654,2.599l31.664,9.216c1.181,0.236,2.363-0.236,2.599-1.418l3.308-8.034c0,0,0,3.781-0.236,9.688
	C133.251,266.089,217.609,265.853,245.492,184.566z"/>
<path fill="#231F20" d="M294.642,253.093c-12.051-41.116-22.212-55.766-22.212-55.766c-5.199-3.308-16.305-8.27-27.174-12.76
	c-27.883,81.523-112.241,81.523-112.241,81.523c-0.236,15.596-0.473,46.551,1.181,65.218l58.602,7.798l58.602-7.798
	c2.127-25.756,0.945-75.143,0.945-75.143l4.253,6.616c0.709,1.181,2.127,1.654,3.544,1.418l32.136-7.325
	C294.17,256.637,295.351,254.747,294.642,253.093z"/>
<path fill="#010101" d="M193.271,211.977c21.267,0,40.407-10.397,51.985-26.465l-27.883-12.051h-2.599l-6.853,7.798
	c-7.798,8.743-21.267,8.743-29.065,0l-6.853-7.798h-2.599l-28.119,11.815C152.864,201.343,171.767,211.977,193.271,211.977"/>
<path fill="#818285" d="M213.592,170.861l-6.853,6.616c-7.562,7.089-19.14,7.089-26.702,0l-6.853-6.616l-3.781,2.599l7.798,7.798
	c8.979,8.979,23.63,8.979,32.609,0l7.798-7.798C217.609,173.46,213.592,170.861,213.592,170.861z"/>
<ellipse fill="#010101" cx="151.919" cy="114.15" rx="11.106" ry="12.996"/>
<ellipse fill="#010101" cx="234.623" cy="114.15" rx="11.106" ry="12.996"/>
<path fill="#FEE0CD" d="M165.387,73.743c-7.325,0-13.469,5.907-13.469,13.469v41.825c0,6.38,18.904,38.516,40.643,40.407
	c16.305,1.181,42.061-30.01,42.061-40.407V87.212c0-13.705,0-13.469-13.469-13.469C221.154,73.743,165.387,73.743,165.387,73.743z"
	/>
<path fill="#010101" d="M181.928,115.804c-0.709,0-1.418-0.473-1.418-1.181c-0.236-1.418-1.89-4.253-6.144-4.253
	c-5.435,0-6.616,3.781-6.616,4.017c-0.236,0.709-0.945,1.181-1.89,0.945c-0.709-0.236-1.181-0.945-0.945-1.89
	c0.473-2.127,3.308-6.144,9.452-6.144c5.435,0,8.507,3.544,9.216,6.616c0.236,0.709-0.473,1.654-1.181,1.654
	C182.401,115.567,181.928,115.804,181.928,115.804z M204.613,115.804h-0.236c-0.709-0.236-1.418-0.945-1.181-1.654
	c0.473-3.308,3.544-6.616,9.216-6.616c6.38,0,8.979,4.017,9.452,6.144c0.236,0.709-0.236,1.654-0.945,1.89
	c-0.709,0.236-1.654-0.236-1.89-0.945c0-0.236-1.181-4.017-6.616-4.017c-4.253,0-5.907,2.836-6.144,4.253
	C206.031,115.331,205.322,115.804,204.613,115.804z"/>
<path fill="#010101" d="M182.637,100.681h-0.473c0,0-10.87-2.599-17.25,1.181c-0.709,0.473-1.654,0-1.89-1.181
	c-0.473-1.181,0-2.363,0.709-2.836c7.089-4.253,18.431-1.654,18.904-1.654c0.709,0.236,1.418,1.418,1.418,2.599
	C183.819,99.735,183.346,100.444,182.637,100.681z M203.668,100.681h0.473c0,0,10.87-2.599,17.25,1.181
	c0.709,0.473,1.654,0,1.89-1.181c0.473-1.181,0-2.363-0.709-2.836c-7.089-4.253-18.431-1.654-18.904-1.654
	c-0.709,0.236-1.418,1.418-1.418,2.599C202.486,99.735,202.959,100.444,203.668,100.681z"/>
<path fill="#DD9C81" d="M193.507,146.522c-6.616,0-11.342-3.308-11.342-3.544c-0.709-0.473-0.709-1.418-0.236-2.127
	c0.473-0.709,1.418-0.709,2.127-0.236c0.473,0.236,8.979,6.38,18.904,0c0.709-0.473,1.654-0.236,2.127,0.473
	c0.473,0.709,0.236,1.654-0.473,2.127C200.596,145.577,196.815,146.522,193.507,146.522z"/>
<path fill="#010101" d="M233.914,71.616c-0.709-1.181-1.181-2.363-1.89-3.308c-7.325-10.161-21.03-15.359-34.736-16.068
	c-15.596,1.418,0-3.781-2.599-4.253c-19.613-2.836-38.989,16.777-38.989,16.777c-0.709,1.181-1.654,2.363-2.127,3.781
	c-3.781,6.853-4.017,16.068-4.017,24.575c0,6.144,0.709,11.815,2.599,17.25c4.49,1.181,4.49-7.089,5.671-10.87
	c0.473-1.418,0.945-2.836,1.181-4.253c2.127-5.435,4.962-4.726,6.853-7.562c2.363-3.544-7.089-14.65-7.089-14.65l6.144,4.49
	c3.781-0.236,6.38,0,11.815,1.654c4.49,1.181,15.596,9.924,30.955,9.924c0.473-0.236-11.342-8.27-10.87-8.507
	c18.431,5.907,28.356,9.452,30.246,12.524c0.945,6.38-0.945,20.558,7.325,17.25c1.89-4.726,2.127-9.924,2.127-15.359
	C236.749,87.212,237.222,77.76,233.914,71.616z"/>
<path fill="#010101" d="M190.908,52.24c0,0,10.161-3.308,21.739-1.89c11.579,1.181-6.38,1.654-5.199,6.853 M226.825,132.345
	c-2.836,5.907-8.034,11.579-15.359,11.106c-3.781-0.236,0.709-5.435-3.072-7.562c-2.836-1.654-26.702-1.654-29.537,0
	c-3.781,2.127,0.709,7.325-3.072,7.562c-7.325,0.473-12.524-5.435-15.359-11.106s-8.27-7.562-8.27-7.562s0,11.342,5.907,20.085
	c8.979,13.233,20.794,20.322,28.356,23.866c0.709,0.236,1.418,0.709,2.127,0.945c1.654,0.473,3.308,0.709,4.962,0.709
	c1.654,0,3.308-0.236,4.962-0.709c0.709-0.236,1.418-0.473,2.127-0.945c7.562-3.544,19.613-10.633,28.356-23.866
	c5.907-8.743,5.907-20.085,5.907-20.085S229.424,126.673,226.825,132.345z M206.031,149.358c0,0.945-4.726,4.253-9.452,4.49
	c0,0-0.236-0.473-0.709-2.363c-0.236-0.709-0.473-1.181-0.945-1.181c-1.654-0.473-4.017-0.236-4.253,1.418
	c-0.236,1.89-0.709,2.363-0.709,2.363c-4.726-0.236-9.452-3.308-9.452-4.49c0-0.945-0.236-8.507,0-10.397
	c0.236-1.418,11.106-0.236,12.524-0.236c1.418,0.236,12.287-0.945,12.524,0.236C206.267,140.851,206.031,148.413,206.031,149.358z"
	/>
<path fill="#FBC6B7" d="M203.904,126.201c0-1.181-1.654-2.127-3.308-3.072c-2.127-0.945-4.017-2.599-5.671-4.49
	c-1.181-1.418-2.127-1.181-3.308,0.236c-1.418,1.89-3.308,3.308-5.435,4.253c-1.654,0.709-3.072,1.89-3.072,2.836
	c0,2.363,1.89,4.253,4.017,4.253c1.181,2.363,3.544,4.253,6.38,4.253c2.836,0,5.199-1.654,6.38-4.253
	C202.014,130.454,203.904,128.564,203.904,126.201z"/>
<g opacity="0.7">
	<g>
		<g>
			<path fill="#FFF0E6" d="M162.788,104.698c-2.363,0.236-4.49,2.127-4.726,4.49v3.072c0,2.599,0.236,5.199,0.473,7.325
				c0.236,2.363,2.363,4.253,5.199,4.253l18.195-0.473c2.599,0,4.962-2.127,4.962-4.726v-8.743c0,0-0.473-4.962-8.979-5.435
				C172.476,103.989,166.569,104.225,162.788,104.698z"/>
		</g>
		<g>
			<path fill="#FFF0E6" d="M223.044,104.698c2.363,0.236,4.49,2.127,4.726,4.49v3.072c0,2.599-0.236,5.199-0.473,7.325
				c-0.236,2.363-2.363,4.253-5.199,4.253l-18.195-0.473c-2.599,0-4.962-2.127-4.962-4.726v-8.743c0,0,0.473-4.962,8.979-5.435
				C213.592,103.989,219.5,104.225,223.044,104.698z"/>
		</g>
		<path fill="#FFF0E6" d="M186.654,112.259c2.599-0.473,8.034-0.945,13.233,0.473c0.709,0.236,1.654-0.236,1.89-0.945
			c0.236-0.709,0-1.654-0.709-2.127c-2.363-1.181-7.562-3.072-15.359-0.945c-0.945,0.236-1.418,1.181-1.181,2.127l0.236,0.473
			C185.236,112.023,185.945,112.496,186.654,112.259z"/>
	</g>
</g>
<path fill="#EA7768" d="M271.485,375.495l31.664-8.034c0,0,27.647-7.798,31.9,3.072c3.072,8.034-2.127,33.554-23.393,33.554
	c0,0-36.626-0.945-43.242-7.562S263.451,376.44,271.485,375.495z"/>
<path fill="#FDC374" d="M284.954,371.95l2.836-0.709c1.89,5.435,2.599,14.887-4.726,30.482c-0.945-0.236-2.127-0.473-3.072-0.473
	C287.553,385.655,286.844,376.44,284.954,371.95z M292.752,370.06l3.072-0.709c2.363,5.199,4.017,15.359-4.962,33.318
	c-0.945-0.236-2.127-0.236-3.072-0.473C297.005,384.001,294.878,374.077,292.752,370.06z"/>
<path fill="#FDC374" d="M300.077,368.169l2.836-0.709h0.236c2.599,4.49,5.907,15.359-4.962,36.154c-0.945,0-2.127-0.236-3.308-0.236
	C306.693,381.402,302.44,371.241,300.077,368.169z"/>
<path fill="#FDC374" d="M307.402,366.279c0.945-0.236,2.127-0.473,3.308-0.709c2.836,3.781,7.562,15.123-4.726,38.28
	c-0.945,0-2.127,0-3.308-0.236C318.036,375.967,307.638,366.515,307.402,366.279z"/>
<path fill="#FDC374" d="M315.673,365.806c-0.236-0.236-0.473-0.473-0.473-0.709c1.181-0.236,2.363-0.236,3.544-0.236
	c2.836,3.544,8.507,14.887-4.962,39.225h-2.127h-1.181C326.542,375.731,315.909,366.043,315.673,365.806z"/>
<path fill="#FEE0CD" d="M247.146,393.453l25.048,3.544c4.253-1.89,6.144-13.469,2.836-20.322c0,0-25.048-8.27-25.048-7.798
	C249.982,369.587,247.146,393.453,247.146,393.453z"/>
<path fill="#CDCCCC" d="M260.379,348.084H130.652c-4.017,0-7.562-2.836-7.562-6.616l-3.072-68.29
	c-0.236-4.017,3.308-7.089,7.562-7.089h129.727c4.017,0,7.562,2.836,7.562,6.616l3.072,68.29
	C268.413,344.776,264.869,348.084,260.379,348.084z"/>
<path fill="#F3F3F3" d="M258.016,350.211H128.289c-4.017,0-7.562-2.836-7.562-6.616l-3.072-68.29
	c-0.236-4.017,3.308-7.089,7.562-7.089h129.727c4.017,0,7.562,2.836,7.562,6.616l3.072,68.29
	C266.05,346.903,262.506,350.211,258.016,350.211z"/>
<path fill="#CDCCCC" d="M118.837,300.588c0,0,29.773,11.106,40.407,16.305c10.633,5.199,16.068,6.38,20.794,6.616
	c4.726,0.236,5.907,1.418,13.469,1.89s6.144,0,16.305-4.017c10.161-4.017,54.348-16.305,54.348-16.305l-5.671,32.373
	c0,0-87.903,15.359-88.612,15.359c-0.709,0-50.804-45.842-50.804-45.842S118.837,300.588,118.837,300.588z"/>
<ellipse fill="#F3F3F3" cx="186.418" cy="310.985" rx="11.579" ry="10.397"/>
<path fill="#2A2F3D" d="M249.273,369.587c0,0-107.988-66.636-163.518-78.923c-7.798-1.654-16.068,0.473-22.448,5.671l-6.38,5.199
	c-12.524,10.397-11.342,36.626,2.599,44.424c0.236,0.236,0.709,0.473,1.181,0.473c35.917,17.722,123.584,49.622,184.312,51.04
	C247.146,393.217,250.455,384.001,249.273,369.587z"/>
<path fill="#EA7768" d="M114.583,375.495L82.92,367.46c0,0-27.647-7.798-31.9,3.072c-3.072,8.034,2.127,33.554,23.393,33.554
	c0,0,36.626-0.945,43.242-7.562C124.035,389.909,122.381,376.44,114.583,375.495z"/>
<path fill="#FDC374" d="M100.878,371.95l-2.836-0.709c-1.89,5.435-2.599,14.887,4.726,30.482c0.945-0.236,2.127-0.473,3.072-0.473
	C98.279,385.655,99.224,376.44,100.878,371.95z M93.08,370.06l-2.836-0.945c-2.363,5.199-4.017,15.359,4.962,33.318
	c0.945-0.236,2.127-0.236,3.072-0.473C88.827,384.001,91.19,374.077,93.08,370.06z"/>
<path fill="#FDC374" d="M85.755,368.169l-2.836-0.709h-0.236c-2.599,4.49-5.907,15.359,4.962,36.154
	c0.945,0,2.127-0.236,3.308-0.236C79.139,381.402,83.392,371.241,85.755,368.169z"/>
<path fill="#FDC374" d="M78.43,366.279c-0.945-0.236-2.127-0.473-3.308-0.709c-2.836,3.781-7.562,15.123,4.726,38.28
	c0.945,0,2.127,0,3.308-0.236C67.797,375.967,78.194,366.515,78.43,366.279z"/>
<path fill="#FDC374" d="M70.16,365.806c0.236-0.236,0.473-0.473,0.473-0.709c-1.181-0.236-2.363-0.236-3.544-0.236
	c-2.836,3.544-8.507,14.887,4.962,39.225h3.308C59.29,375.731,69.923,366.043,70.16,365.806z"/>
<path fill="#FEE0CD" d="M139.158,393.453l-25.048,3.544c-4.253-1.89-6.144-13.469-2.836-20.322c0,0,25.048-8.27,25.048-7.798
	C136.323,369.587,139.158,393.453,139.158,393.453z"/>
<path fill="#010101" d="M136.795,366.279c0,0,107.988-60.256,163.518-72.543c7.798-1.654,16.305-2.599,22.921,2.836l6.38,5.199
	c12.524,10.397,11.342,36.626-2.599,44.424c-0.236,0.236-0.709,0.473-1.181,0.473c-35.917,17.722-123.584,49.622-184.312,51.04
	C139.158,393.217,135.378,380.693,136.795,366.279z"/>
<path fill="#FBC6B7" d="M193.034,127.382c-2.836,0-5.199-2.363-5.199-5.199v-8.743c0-2.836,2.363-5.199,5.199-5.199
	c2.836,0,5.199,2.363,5.199,5.199v8.743C198.233,125.019,195.87,127.382,193.034,127.382z"/>
</svg>
