<?xml version="1.0" encoding="utf-8"?>
<!-- Generator: Adobe Illustrator 24.0.0, SVG Export Plug-In . SVG Version: 6.00 Build 0)  -->
<svg version="1.1" id="Layer_1" xmlns="http://www.w3.org/2000/svg" xmlns:xlink="http://www.w3.org/1999/xlink" x="0px" y="0px"
	 viewBox="0 0 170.1 44.2" style="enable-background:new 0 0 170.1 44.2;" xml:space="preserve">
<style type="text/css">
	.st0{fill:#FFFFFF;}
	.st1{fill:#191975;}
	.st2{fill:#EC982D;}
	.st3{fill:#4E4E4E;}
	.st4{font-family:'ArialMT';}
	.st5{font-size:4.5px;}
	.st6{fill:#212121;}
	.st7{fill:none;stroke:#212121;stroke-width:0.632;stroke-linecap:square;}
	.st8{fill:none;}
	.st9{opacity:0.938;fill:#2A2C83;enable-background:new    ;}
	.st10{fill:#097A44;}
	.st11{fill:#F46F20;}
	.st12{fill:#CC0000;}
	.st13{fill:#FF9900;}
	.st14{fill:#F16D27;}
	.st15{fill:#5F6368;}
	.st16{fill:#E94335;}
	.st17{fill:#34A753;}
	.st18{fill:#4284F3;}
	.st19{fill:#FABB04;}
	.st20{fill:#673AB7;}
	.st21{fill:#6D6C6A;}
	.st22{fill:#FD6F03;}
	.st23{fill:#048B49;}
	.st24{fill:#FEFEFE;}
</style>
<path class="st0" d="M5.3,1.1h36.5c0.7,0,1.2,0.5,1.2,1.2v17c0,0.7-0.5,1.2-1.2,1.2H5.3c-0.7,0-1.2-0.5-1.2-1.2v-17
	C4.1,1.6,4.6,1.1,5.3,1.1z"/>
<path class="st0" d="M46.3,1.1h36.5c0.7,0,1.2,0.5,1.2,1.2v17c0,0.7-0.5,1.2-1.2,1.2H46.3c-0.7,0-1.2-0.5-1.2-1.2v-17
	C45.1,1.6,45.6,1.1,46.3,1.1z"/>
<path class="st0" d="M87.3,1.1h36.5c0.7,0,1.2,0.5,1.2,1.2v17c0,0.7-0.5,1.2-1.2,1.2H87.3c-0.7,0-1.2-0.5-1.2-1.2v-17
	C86.1,1.6,86.6,1.1,87.3,1.1z"/>
<path class="st0" d="M128.3,1.1h36.5c0.7,0,1.2,0.5,1.2,1.2v17c0,0.7-0.5,1.2-1.2,1.2h-36.4c-0.7,0-1.2-0.5-1.2-1.2v-17
	C127.1,1.6,127.6,1.1,128.3,1.1z"/>
<path class="st0" d="M127.8,23.8h36.4c0.7,0,1.2,0.5,1.2,1.2v17c0,0.7-0.5,1.2-1.2,1.2h-36.4c-0.7,0-1.2-0.5-1.2-1.2V25
	C126.6,24.4,127.1,23.8,127.8,23.8z"/>
<path class="st0" d="M5.3,23.8h36.4c0.7,0,1.2,0.5,1.2,1.2v17c0,0.7-0.5,1.2-1.2,1.2H5.3c-0.7,0-1.2-0.5-1.2-1.2V25
	C4,24.4,4.6,23.8,5.3,23.8z"/>
<path class="st0" d="M46.3,23.8h36.4c0.7,0,1.2,0.5,1.2,1.2v17c0,0.7-0.5,1.2-1.2,1.2H46.3c-0.7,0-1.2-0.5-1.2-1.2V25
	C45,24.4,45.6,23.8,46.3,23.8z"/>
<path class="st0" d="M87.3,23.8h36.4c0.7,0,1.2,0.5,1.2,1.2v17c0,0.7-0.5,1.2-1.2,1.2H87.3c-0.7,0-1.2-0.5-1.2-1.2V25
	C86,24.4,86.6,23.8,87.3,23.8z"/>
<path class="st1" d="M19.5,14.4l1.2-7.2h1.9l-1.2,7.2H19.5 M28.1,7.4c-0.5-0.2-1.1-0.3-1.7-0.3c-1.8,0-3.1,1-3.1,2.4
	c0,1,0.9,1.6,1.6,1.9s1,0.6,1,0.9c0,0.5-0.6,0.7-1.1,0.7c-0.7,0-1.1-0.1-1.8-0.4l-0.2-0.1l-0.3,1.6c0.4,0.2,1.2,0.4,2.1,0.4
	c2,0,3.2-1,3.2-2.4c0-0.8-0.5-1.4-1.6-1.9c-0.7-0.3-1-0.6-1-0.9c0-0.3,0.3-0.6,1.1-0.6c0.6,0,1,0.1,1.4,0.3l0.2,0.1L28.1,7.4
	 M30.6,11.8c0.2-0.4,0.7-2,0.7-2s0.2-0.4,0.2-0.7l0.1,0.6l0.4,2.1H30.6z M32.9,7.2h-1.4c-0.4,0-0.8,0.1-1,0.6l-2.8,6.6h2
	c0,0,0.3-0.9,0.4-1.1h2.4c0.1,0.3,0.2,1.1,0.2,1.1h1.7L32.9,7.2L32.9,7.2z M17.9,7.2l-1.8,4.9l-0.2-1c-0.3-1.1-1.4-2.4-2.6-3
	l1.7,6.3h2l2.9-7.1h-2"/>
<path class="st2" d="M14.4,7.2h-3v0.1c2.3,0.6,3.9,2,4.5,3.7l-0.7-3.3C15.1,7.4,14.8,7.2,14.4,7.2"/>
<text transform="matrix(1 0 0 1 140.8529 33.3451)" class="st3 st4 st5">EASY EMI</text>
<text transform="matrix(1 0 0 1 140.8529 37.8451)" class="st3 st4 st5">OPTIONS</text>
<g transform="translate(3.23 4)">
	<path class="st6" d="M134.1,26.5v-0.8h-0.8v0.8h-3.1v-0.8h-0.8v0.8H129c-0.4,0-0.8,0.4-0.8,0.8v5.5c0,0.5,0.4,0.8,0.8,0.8h5.5
		c0.4,0,0.8-0.4,0.8-0.8v-5.5c0-0.5-0.4-0.8-0.8-0.8H134.1L134.1,26.5z M129,32.8v-4.6h5.5v4.6H129z"/>
	<ellipse class="st6" cx="130.8" cy="29.6" rx="1" ry="1"/>
	<ellipse class="st6" cx="132.4" cy="31.5" rx="1" ry="1"/>
	<path class="st7" d="M132.4,29.1l-1.6,2.6"/>
</g>
<text transform="matrix(1 0 0 1 141.562 10.6061)" class="st3 st4 st5">NET</text>
<text transform="matrix(1 0 0 1 150.562 10.6061)" class="st3 st4 st5"> </text>
<text transform="matrix(1 0 0 1 141.562 15.1061)" class="st3 st4 st5">BANKING</text>
<path d="M135.7,6c0.5,0,0.9,0.4,0.9,1v1c1.2,0.1,2.2,1.2,2.2,2.5V13c0,1.4-1.1,2.5-2.4,2.5c-1.3,0-2.4-1.1-2.4-2.5v-2.6
	c0-1.3,1-2.4,2.2-2.5v-1c0-0.3-0.2-0.5-0.5-0.5l0,0c-0.3,0-0.5,0.2-0.5,0.5v0.2c0,0.5-0.4,1-0.9,1s-0.9-0.4-0.9-1
	c0-0.1,0-0.2,0.1-0.2s0.1,0,0.2,0c0.1,0,0.1,0.1,0.1,0.2c0,0.3,0.2,0.5,0.5,0.5s0.5-0.2,0.5-0.5V6.9C134.7,6.4,135.1,6,135.7,6
	L135.7,6L135.7,6z M136.4,9c-0.2,0-0.3,0.1-0.3,0.3l0,0v1.1c0,0.2,0.1,0.3,0.3,0.3s0.3-0.1,0.3-0.3l0,0V9.3
	C136.7,9.1,136.6,9,136.4,9L136.4,9L136.4,9z"/>
<g>
	<path class="st8" d="M109.9,15.1c0-0.1,0-0.3,0.1-0.6l0.1-0.5h0.3c0.5,0,0.5,0,0.4-2c-0.1-0.9-0.1-1.7-0.1-1.7s0.3,0,0.7,0h0.7v0.9
		v0.9l0.4-0.7c0.2-0.4,0.4-0.8,0.5-0.9l0.1-0.2h0.6c0.5,0,0.6,0,0.6,0.1s-2.3,4.1-2.6,4.4c-0.3,0.4-0.6,0.5-1.3,0.5
		C110,15.1,109.9,15.1,109.9,15.1L109.9,15.1z M111,15c0.6-0.1,0.7-0.2,2.3-2.9c0.5-0.9,1-1.7,1-1.7c0-0.1,0-0.1-0.5-0.1h-0.5
		l-0.2,0.3c-0.6,1.1-0.9,1.7-1,1.7c0,0-0.1-0.3-0.1-1v-1h-0.6c-0.5,0-0.6,0-0.6,0.1s0,0.8,0.1,1.7c0.1,1.8,0.1,1.9-0.3,2
		c-0.1,0-0.2,0.1-0.4,0.1c-0.1,0-0.2,0-0.2,0.4c-0.1,0.2-0.1,0.4-0.1,0.4C110,15,110.5,15.1,111,15L111,15z M113.6,14.6
		c0,0,0.3-1.2,0.7-2.6c0.7-2.6,0.8-2.7,1-2.4c0,0.1,0.2,0.3,0.2,0.5s0.2,0.3,0.2,0.3c0-0.2,0.3-1,0.3-1c0.1,0,1.4,2.5,1.3,2.6
		c0,0.1-2.6,2.5-2.7,2.6c-0.1,0-0.1-0.1,0-0.6l0.1-0.3l-0.5,0.4C113.8,14.6,113.6,14.6,113.6,14.6L113.6,14.6z M114.7,13.5
		C114.7,13.5,114.8,13.5,114.7,13.5c0.1,0,0.3-0.2,0.6-0.5c0.9-0.8,1-1,1.1-1s-1.2,1.2-1.4,1.3c-0.1,0-0.1,0.1-0.1,0.2
		c0,0-0.1,0.3-0.1,0.5l-0.1,0.4l0.5-0.5c0.8-0.8,1.7-1.6,1.9-1.8l0.2-0.2l-0.6-1.1c-0.3-0.6-0.6-1.2-0.6-1.2s-0.1,0.2-0.2,0.4
		l-0.1,0.5l0.3,0.7c0.2,0.4,0.3,0.7,0.3,0.7s-0.2-0.3-0.4-0.7c-0.2-0.4-0.5-0.9-0.6-1.2l-0.3-0.5L115,9.8c-0.2,0.8-0.4,1.5-0.7,2.3
		c-0.2,0.7-0.4,1.4-0.6,2.1c0,0.1,0.1,0,0.4-0.3C114.5,13.8,114.7,13.6,114.7,13.5L114.7,13.5z M106.8,13.8
		c-0.4-0.2-0.5-0.6-0.4-1.1c0.2-0.8,0.6-1,1.9-1.2c0.4-0.1,0.6-0.1,0.7-0.2c0.3-0.3-0.2-0.4-0.6-0.1c-0.2,0.2-0.2,0.2-0.8,0.2
		c-0.4,0-0.6,0-0.7-0.1c0,0-0.1,0-0.2,0.1c-0.2,0.3-0.6,0.6-1,0.7c-0.2,0.1-0.6,0.1-1,0.1H104l-0.2,0.6c-0.1,0.3-0.2,0.7-0.2,0.7
		c-0.1,0.1-1.5,0.1-1.5,0c0,0,0.2-1,0.6-2.2l0.7-2.3l0.1-0.2h1.3c1,0,1.4,0,1.6,0.1c0.7,0.2,0.9,0.8,0.7,1.6c0,0.1,0,0.1,0.2-0.1
		c0.3-0.3,0.6-0.4,1.1-0.5s1.3,0,1.6,0.1c0.6,0.3,0.6,0.5,0.2,2c-0.2,0.6-0.3,1.2-0.3,1.3v0.2h-0.7c-0.7,0-0.7,0-0.7-0.1
		s0-0.1-0.1-0.1C107.9,13.9,107.2,14,106.8,13.8z M108.2,13.5c0.5-0.2,0.5-0.2,0.5-0.1s0.1,0.1,0.1,0.1s0.3,0,0.5,0h0.5v-0.2
		c0-0.1,0.1-0.7,0.3-1.3c0.2-0.7,0.3-1.2,0.3-1.3c-0.1-0.2-0.3-0.4-0.6-0.5c-0.1,0-0.5-0.1-0.8-0.1c-0.6,0-1.1,0.1-1.4,0.4
		c-0.2,0.2-0.5,0.5-0.4,0.6c0,0,0.3,0.1,0.5,0.1c0.5,0,0.5,0,0.7-0.2c0.1-0.1,0.2-0.2,0.5-0.2c0.4,0,0.6,0.1,0.4,0.4
		c-0.1,0.2-0.3,0.3-0.9,0.3c-1,0.1-1.4,0.3-1.7,0.7c-0.2,0.3-0.3,0.9-0.1,1.1C106.9,13.8,107.5,13.8,108.2,13.5z M107.8,13
		c-0.1-0.1-0.1-0.3,0.1-0.5s1-0.4,1.1-0.3s-0.2,0.6-0.4,0.8C108.3,13.1,107.9,13.1,107.8,13z M108.6,12.8c0.1-0.1,0.2-0.2,0.2-0.3
		c0.1-0.1,0-0.2,0-0.1c-0.1,0-0.2,0.1-0.4,0.1c-0.1,0-0.3,0.1-0.4,0.2s-0.1,0.2-0.1,0.2C108,13,108.4,12.9,108.6,12.8z M103.7,13.4
		c0-0.1,0.1-0.4,0.2-0.7c0.1-0.3,0.1-0.5,0.2-0.5c0,0,0.3,0,0.7,0c0.9,0,1.3-0.2,1.7-0.6c0.4-0.5,0.7-1.3,0.6-1.8
		c-0.1-0.3-0.2-0.5-0.5-0.6S106.2,9.1,105,9h-1.3l-0.1,0.3c-0.2,0.7-0.4,1.5-0.6,2.2c-0.3,1-0.5,1.9-0.6,2c0,0.1,0.1,0.1,0.6,0.1
		h0.6L103.7,13.4z M104.4,11.1c0,0,0-0.3,0.1-0.5l0.1-0.5h0.4c0.7,0,0.9,0.1,0.7,0.6c-0.1,0.3-0.3,0.4-0.9,0.5
		C104.6,11.1,104.4,11.1,104.4,11.1z M105.5,10.9c0.2-0.2,0.2-0.5,0-0.6c-0.1,0-0.3-0.1-0.5,0h-0.3l-0.1,0.4
		c-0.1,0.2-0.1,0.4-0.1,0.4c0.1,0,0.3,0,0.4,0C105.3,11,105.4,11,105.5,10.9L105.5,10.9L105.5,10.9z M98.9,13.6
		c-0.2-0.1-0.4-0.5-0.4-0.7c0-0.3,0.6-2.6,0.7-2.8c0-0.1,1.3-0.1,1.4,0c0,0-0.1,0.5-0.3,1.1c-0.2,0.6-0.3,1.1-0.3,1.2
		c0,0.3,0.5,0.2,0.7-0.2c0-0.1,0.2-0.5,0.3-1c0.4-1.2,0.2-1.1,1-1.1c0.7,0,0.7,0,0.7,0.1c0,0.2-0.8,3.2-0.9,3.4
		c-0.1,0.1-0.1,0.1-0.7,0.1h-0.6v-0.1c0-0.1,0-0.1,0-0.1s-0.2,0.1-0.4,0.2c-0.3,0.1-0.4,0.2-0.7,0.2C99.3,13.8,99,13.8,98.9,13.6
		L98.9,13.6z M99.9,13.6c0.1,0,0.3-0.1,0.5-0.3c0.4-0.3,0.5-0.3,0.4,0.1l-0.1,0.1h0.5h0.5l0.5-1.6c0.3-0.9,0.5-1.6,0.5-1.6
		s-0.2,0-0.6,0c-0.7,0-0.6-0.1-0.9,1.1c-0.1,0.5-0.3,1-0.4,1.1c-0.2,0.3-0.5,0.4-0.7,0.3c-0.1-0.1-0.2-0.1-0.2-0.3
		c0-0.2,0.2-1.1,0.5-2c0-0.1,0-0.1-0.5-0.1s-0.6,0-0.6,0.1s-0.2,0.6-0.4,1.2c-0.3,1.1-0.4,1.6-0.2,1.8
		C98.9,13.6,99.4,13.8,99.9,13.6z M94,13.6c0,0,0-0.2,0.1-0.4c0.1-0.2,0.3-1.2,0.6-2.1l0.6-2l0.1-0.2h1.5c1.4,0,1.5,0,1.8,0.1
		c0.4,0.2,0.6,0.6,0.4,1.2c-0.1,0.4-0.3,0.8-0.6,1l-0.2,0.2l0.2,0.2c0.2,0.2,0.2,0.5,0,1.2c-0.1,0.3-0.1,0.5-0.1,0.6
		c0.1,0.3,0,0.3-0.8,0.3c-0.6,0-0.7,0-0.8-0.1c0,0,0-0.3,0.1-0.6c0.2-0.9,0.2-0.9-0.4-0.9h-0.4L96,12.4l-0.2,0.8l-0.1,0.5H95
		C94.2,13.8,94,13.8,94,13.6z M95.5,12.9c0.3-0.9,0.3-0.9,0.7-0.9c0.5,0,0.7,0.1,0.8,0.2c0.1,0.1,0.1,0.2,0,0.7
		c-0.2,0.8-0.2,0.7,0.5,0.7h0.6v-0.2c0-0.1,0.1-0.4,0.1-0.7c0.1-0.6,0.1-0.8-0.1-1c-0.1-0.1-0.2-0.2-0.2-0.2s0.1-0.1,0.3-0.2
		c0.4-0.2,0.7-0.8,0.7-1.4c0-0.3-0.1-0.5-0.5-0.7c-0.2-0.1-0.4-0.1-1.6-0.1h-1.4l-0.1,0.2c0,0.1-0.3,1.1-0.6,2.2
		c-0.2,0.7-0.4,1.4-0.6,2.1c0,0.1,0.1,0.1,0.6,0.1h0.6C95.4,13.6,95.5,12.9,95.5,12.9z M96.1,11c0-0.1,0-0.3,0.1-0.5l0.1-0.3h0.5
		c0.6,0,0.7,0,0.7,0.3c0,0.5-0.2,0.7-1,0.7C96.1,11.1,96.1,11.1,96.1,11z M97.3,10.8c0.1-0.1,0.1-0.2,0.1-0.3
		c0.1-0.2-0.1-0.3-0.6-0.3h-0.4l-0.1,0.3c0,0.2-0.1,0.3-0.1,0.4s0.1,0.1,0.5,0.1S97.2,10.9,97.3,10.8L97.3,10.8z M117.6,9.6
		c-0.2-0.1-0.4-0.3-0.4-0.6c0-0.5,0.5-0.7,0.9-0.5s0.4,0.9-0.1,1.1C117.9,9.8,117.8,9.8,117.6,9.6z M118.1,9.5
		C118.2,9.4,118.2,9.4,118.1,9.5c-0.2-0.1-0.3-0.1-0.3-0.2s0-0.1-0.1,0s-0.2,0.1-0.2-0.1c0-0.1,0-0.2-0.1-0.2s0,0.3,0.1,0.4
		C117.7,9.6,118,9.6,118.1,9.5z M118.3,9.3c0,0,0-0.1,0-0.2s0-0.1,0-0.1l-0.1,0.1c0,0.1,0,0.1-0.1,0.1s-0.1,0,0,0.1
		C118.3,9.3,118.4,9.4,118.3,9.3L118.3,9.3z M117.3,9.1C117.3,9,117.3,9.1,117.3,9.1C117.2,9.2,117.3,9.2,117.3,9.1
		C117.4,9.1,117.4,9.1,117.3,9.1z M118,9.1L118,9.1C117.9,9.1,117.9,9.1,118,9.1C117.9,9.1,117.9,9.3,118,9.1
		C117.9,9.3,118,9.1,118,9.1z M117.8,9L117.8,9C117.7,9.1,117.8,9.1,117.8,9C117.8,9.1,117.8,9.1,117.8,9L117.8,9z M118,8.8
		c-0.1-0.1-0.3-0.1-0.4,0s-0.1,0.1,0.1,0.1s0.2,0,0.3,0.1c0,0.1,0,0.1,0.1,0C118.1,8.9,118.1,8.8,118,8.8z M117.9,8.6
		c-0.1,0-0.1,0-0.2,0C117.7,8.6,117.7,8.7,117.9,8.6C117.9,8.7,118,8.6,117.9,8.6L117.9,8.6z"/>
	<path class="st9" d="M94.2,13.6c0,0,0.1-0.6,0.5-2c0.3-1.1,0.6-2.1,0.6-2.2l0.1-0.3h1.2c1.4,0,1.6,0,1.8,0.2c0.4,0.2,0.5,0.5,0.4,1
		c-0.1,0.4-0.3,0.8-0.8,1.1c-0.1,0.1-0.2,0.1-0.2,0.2c0,0,0,0.1,0.1,0.2s0.2,0.2,0.2,0.2c0.1,0.1,0.1,0.4,0,0.8
		c0,0.2-0.1,0.4-0.1,0.6v0.3h-0.6c-0.4,0-0.6,0-0.6,0c-0.1-0.1,0-0.2,0.1-0.6c0.1-0.5,0.1-0.6,0-0.7s-0.2-0.2-0.6-0.2
		c-0.3,0-0.4,0-0.4,0c-0.1,0.1-0.1,0.3-0.3,0.9l-0.2,0.6h-0.6C94.5,13.6,94.2,13.6,94.2,13.6L94.2,13.6z M97.2,11
		c0.3-0.1,0.4-0.3,0.4-0.6c0-0.1,0-0.2-0.1-0.2c-0.1-0.1-0.3-0.1-0.8-0.1h-0.4l-0.1,0.2c-0.1,0.3-0.2,0.6-0.1,0.7c0,0,0,0.1,0.1,0.1
		C96.4,11.1,97,11.1,97.2,11z M99.1,13.6c-0.2-0.1-0.3-0.2-0.4-0.3c-0.1-0.3,0-0.8,0.4-2.3c0.1-0.3,0.2-0.6,0.2-0.6s0,0,0-0.1
		c0,0,0.1,0,0.5,0c0.2,0,0.5,0,0.5,0h0.1l-0.1,0.3c-0.2,0.6-0.4,1.4-0.4,1.7c0,0.2,0,0.3,0,0.4c0.1,0.2,0.4,0.2,0.6,0.1
		c0.3-0.1,0.3-0.3,0.8-1.9c0.1-0.2,0.1-0.4,0.2-0.4l0.1-0.1h0.5c0.4,0,0.5,0,0.5,0s-0.6,2.2-0.8,3.1v0.1h-0.5c-0.3,0-0.5,0-0.5,0
		v-0.1c0.1-0.3,0-0.3-0.4-0.1c-0.4,0.2-0.5,0.3-0.8,0.3C99.3,13.6,99.2,13.6,99.1,13.6z M102.5,13.6c0,0,0.1-0.6,0.6-2.2l0.6-2.2
		h1.1c1.3,0,1.6,0,1.8,0.2c0.2,0.1,0.3,0.2,0.4,0.4c0.2,0.3,0.2,0.6,0,1.1c-0.3,0.7-0.7,1.2-1.3,1.3c-0.1,0-0.4,0.1-0.7,0.1
		c-0.9,0.1-0.9,0-0.9,0.2c0,0.1-0.1,0.4-0.2,0.7l-0.2,0.6h-0.6C102.8,13.6,102.5,13.6,102.5,13.6z M105.2,11.1
		c0.3,0,0.5-0.1,0.6-0.3c0.1-0.2,0.1-0.4,0.1-0.5c-0.1-0.1-0.2-0.2-0.7-0.2c-0.2,0-0.5,0-0.5,0s-0.2,0.8-0.2,0.9v0.1
		C104.4,11.1,104.9,11.1,105.2,11.1z M106.9,13.6c-0.4-0.1-0.4-0.4-0.3-0.9c0.2-0.7,0.5-0.9,1.7-1.1c0.7-0.1,0.9-0.2,1-0.5
		c0-0.2-0.1-0.3-0.5-0.3c-0.2,0-0.3,0-0.5,0.2l-0.2,0.1h-0.4c-0.5,0-0.6,0-0.6-0.1s0.2-0.3,0.3-0.5c0.2-0.2,0.4-0.3,0.7-0.3
		c0.5-0.1,1.5-0.1,1.8,0c0.2,0.1,0.3,0.2,0.4,0.4c0.1,0.1,0,0.3-0.3,1.5c-0.2,0.6-0.3,1.2-0.3,1.2v0.1h-0.4c-0.2,0-0.3,0-0.5,0h-0.1
		l-0.1-0.1c-0.1-0.2-0.1-0.2-0.5,0s-0.6,0.2-0.9,0.2C107.1,13.6,107.1,13.6,106.9,13.6L106.9,13.6z M108.5,13
		c0.2-0.1,0.4-0.5,0.4-0.7v-0.1h-0.2c-0.2,0-0.7,0.2-0.8,0.3c-0.1,0.1-0.2,0.2-0.2,0.4c0,0.1,0,0.2,0.1,0.2
		C108,13.1,108.4,13,108.5,13z M110.2,15c-0.1,0-0.1-0.1,0-0.4c0.1-0.4,0.1-0.4,0.4-0.5c0.3,0,0.4-0.1,0.5-0.2s0.1-0.7,0-2.3
		c-0.1-0.9-0.1-1.2,0-1.3c0,0,0.2,0,0.6,0h0.5v1c0,0.7,0,1,0,1c0.1,0.1,0.3-0.3,1.1-1.8l0.1-0.2h0.5c0.3,0,0.5,0,0.5,0
		s-0.7,1.3-1.4,2.5c-1,1.7-1.2,2-1.7,2.1C111,15,110.3,15,110.2,15z"/>
	<g>
		<path class="st10" d="M114.6,14.6l1.4-5.1l1.3,2.6L114.6,14.6z"/>
		<path class="st11" d="M113.7,14.6l1.4-5.1l1.3,2.6L113.7,14.6z"/>
	</g>
</g>
<g transform="translate(7.075 3)">
	<ellipse class="st12" cx="53.8" cy="8.1" rx="5.1" ry="5"/>
	<ellipse class="st13" cx="60.9" cy="8.1" rx="5.1" ry="5"/>
	<path class="st14" d="M57.4,11.6c0,0,1.5-1.6,1.5-3.6s-1.5-3.6-1.5-3.6s-1.6,1.2-1.6,3.6C55.8,10.5,57.4,11.6,57.4,11.6z"/>
</g>
<g>
	<path class="st15" d="M31.6,31.5c0.3,0,0.6,0,0.9,0c0.1,0,0.1,0.1,0.2,0.1c0.4,0.8,0.7,1.7,1.1,2.5c0.1,0.3,0.3,0.6,0.4,1
		c0-0.1,0.1-0.1,0.1-0.2c0.4-1.1,0.9-2.2,1.3-3.3c0-0.1,0.1-0.1,0.2-0.1c0.3,0,0.6,0,0.9,0c-0.1,0.2-0.2,0.4-0.2,0.6
		c-1,2.2-1.9,4.4-2.9,6.6c0,0.1-0.1,0.1-0.2,0.1c-0.3,0-0.5,0-0.8,0c0-0.1,0-0.1,0-0.2c0.3-0.8,0.7-1.5,1-2.3c0-0.1,0-0.2,0-0.3
		C32.9,34.4,32.3,32.9,31.6,31.5C31.6,31.6,31.6,31.6,31.6,31.5z"/>
	<path class="st16" d="M11.4,30.9c0.4-0.8,1-1.4,1.8-1.8c1.5-0.8,3.4-0.6,4.8,0.5c0.1,0.1,0.1,0.1,0,0.2c-0.3,0.3-0.7,0.7-1,1
		c-0.1,0.1-0.1,0.1-0.2,0c-1.1-1-3-0.7-3.8,0.9c-0.1,0.1-0.2,0.2-0.2,0.3c-0.1,0-0.1,0-0.2-0.1c-0.4-0.3-0.7-0.6-1.1-0.8
		C11.5,31,11.4,31,11.4,30.9z"/>
	<path class="st17" d="M18,36c-0.6,0.6-1.4,0.9-2.2,1c-1.2,0.2-2.3-0.1-3.3-0.9c-0.5-0.4-0.9-0.9-1.1-1.4c0-0.1,0.1-0.1,0.1-0.1
		c0.4-0.3,0.7-0.6,1.1-0.9c0,0,0.1-0.1,0.2-0.1c0.2,0.5,0.5,1,1,1.3c0.9,0.6,1.9,0.6,2.8,0.1c0,0,0,0,0.1,0s0.1,0.1,0.2,0.1
		C17.3,35.4,17.6,35.7,18,36C17.9,35.9,18,36,18,36z"/>
	<path class="st18" d="M18,36c-0.5-0.4-0.9-0.7-1.4-1.1c0.4-0.3,0.7-0.7,0.8-1.1c0-0.1,0-0.2-0.1-0.2c-0.7,0-1.3,0-2,0
		c-0.1,0-0.1,0-0.1-0.1c0-0.5,0-0.9,0-1.4c0-0.1,0-0.1,0.1-0.1c1.3,0,2.5,0,3.8,0c0.1,0,0.1,0,0.1,0.1c0.1,1.2,0,2.4-0.8,3.4
		C18.3,35.7,18.1,35.9,18,36z"/>
	<path class="st19" d="M12.8,33.6c-0.5,0.4-0.9,0.7-1.4,1.1c-0.6-1.3-0.6-2.5,0-3.8c0.4,0.3,0.8,0.6,1.2,1c0.1,0,0.1,0.1,0.2,0.1
		C12.6,32.5,12.6,33.1,12.8,33.6z"/>
	<path class="st15" d="M26.7,30.4c-0.4-0.8-1.1-1.2-1.9-1.2s-1.7,0-2.5,0c-0.1,0-0.2,0-0.2,0.2c0,1.2,0,2.4,0,3.5c0,1.2,0,2.3,0,3.5
		c0,0.2,0,0.2,0.2,0.2s0.4,0,0.6,0c0.1,0,0.2,0,0.2-0.2c0-0.9,0-1.8,0-2.7c0-0.1,0-0.1,0.1-0.1c0.5,0,0.9,0,1.4,0
		c0.2,0,0.4,0,0.7-0.1C26.7,33.1,27.4,31.6,26.7,30.4z M24.9,32.6c-0.4,0-0.8,0-1.2,0c-0.2,0-0.3,0-0.5,0c-0.1,0-0.1,0-0.1-0.1
		c0-0.4,0-0.8,0-1.2c0-0.4,0-0.8,0-1.2c0-0.1,0-0.1,0.1-0.1c0.5,0,1,0,1.6,0s1.2,0.6,1.2,1.2C26,31.9,25.5,32.5,24.9,32.6z"/>
	<path class="st15" d="M31.4,34.9c0-0.6,0-1.1,0-1.7c-0.1-0.8-0.5-1.4-1.2-1.7c-0.4-0.2-0.9-0.2-1.4-0.2c-0.7,0.1-1.2,0.3-1.7,0.9
		c-0.1,0.1-0.1,0.1,0,0.2c0.2,0.1,0.4,0.3,0.6,0.4c0.1,0.1,0.1,0.1,0.2,0c0.4-0.5,1.1-0.7,1.7-0.4c0.5,0.2,0.8,0.8,0.7,1.3
		c0,0,0,0-0.1,0c-0.8-0.3-1.6-0.4-2.4-0.1c-1,0.3-1.4,1.4-0.9,2.3c0.6,1.1,2.4,1.4,3.2,0.2l0.1-0.1c0,0.2,0,0.4,0,0.6
		c0,0.1,0,0.1,0.1,0.1c0.2,0,0.4,0,0.6,0c0.1,0,0.1,0,0.1-0.1C31.4,35.9,31.4,35.4,31.4,34.9z M30.5,34.6c-0.1,0.7-0.8,1.3-1.6,1.3
		c-0.2,0-0.4,0-0.6-0.2c-0.6-0.3-0.6-1-0.1-1.4c0.2-0.1,0.4-0.2,0.6-0.2c0.5-0.1,1,0,1.4,0.2C30.5,34.3,30.5,34.4,30.5,34.6z"/>
</g>
<g>
	<path class="st20" d="M76.5,32c-0.1,0-0.1,0-0.2-0.1c-0.5,0-1,0-1.6,0c0,0,0,0,0,0.1v0.1c0,1.2,0,2.3,0,3.5c0,0.1,0,0.2,0.2,0.2
		c0.1,0,0.3,0.1,0.3-0.2c0-0.4,0-0.9,0-1.3h-0.1h0.1l0,0c0.4,0,0.8,0,1.2,0c0.6,0,1-0.5,1-1C77.5,32.6,77.1,32.1,76.5,32z M75,34.4
		L75,34.4L75,34.4z M75.1,33.7C75.1,33.7,75.1,33.8,75.1,33.7C75.1,33.8,75.1,33.7,75.1,33.7L75.1,33.7c0.1-0.3,0-0.7,0-1
		s0-0.3,0.3-0.3s0.6,0,0.9,0c0.4,0.1,0.6,0.4,0.6,0.8s-0.2,0.6-0.6,0.7c-0.3,0.1-0.7,0-1,0C75.2,33.9,75.2,33.8,75.1,33.7z
		 M76.5,34.2L76.5,34.2L76.5,34.2z M76.7,34.1C76.8,34.1,76.8,34.1,76.7,34.1L76.7,34.1C76.8,34.1,76.8,34.1,76.7,34.1z M76.7,34.1
		L76.7,34.1L76.7,34.1z M77,33.9C77,34,76.9,34,77,33.9C76.9,34,77,34,77,33.9c0.1,0,0.2-0.1,0.2-0.2C77.1,33.8,77.1,33.9,77,33.9z"
		/>
	<path class="st20" d="M71.1,33.8c0-0.2,0-0.5-0.3-0.7l0,0c0,0,0,0-0.1,0l0,0l0,0h-0.1l0,0l0,0h0.1l0,0c0-0.1-0.1-0.1-0.1-0.1l0,0
		l0,0l0,0c-0.3-0.2-0.5-0.1-0.8-0.1c0,0.1-0.2,0.1-0.2,0.2c0,0-0.1,0-0.1,0.1c-0.1,0-0.1,0-0.1-0.1c0-0.3-0.2-0.2-0.4-0.2
		c-0.2,0-0.2,0.1-0.2,0.2c0,0.8,0,1.6,0,2.4c0,0.1,0,0.1,0,0.1c0.1,0.2,0.3,0.1,0.4,0.1s0.1-0.2,0.1-0.2c0-0.5,0-1.1,0-1.6
		c0-0.4,0.3-0.6,0.7-0.6c0.3,0,0.5,0.2,0.5,0.6c0,0.6,0,1.1,0,1.7c0,0.2,0.1,0.2,0.3,0.2c0.1,0,0.3,0.1,0.3-0.2
		C71.1,35,71.1,34.4,71.1,33.8z M71,33.3C70.9,33.3,70.9,33.3,71,33.3L71,33.3L71,33.3C70.9,33.3,70.9,33.3,71,33.3z M69.8,33.1
		C69.8,33,69.8,33,69.8,33.1L69.8,33.1c-0.1,0-0.1,0-0.2,0C69.7,33.1,69.8,33.1,69.8,33.1z M69.5,33.2L69.5,33.2L69.5,33.2z
		 M69.5,33.3C69.5,33.3,69.5,33.2,69.5,33.3C69.5,33.2,69.5,33.2,69.5,33.3L69.5,33.3L69.5,33.3C69.5,33.2,69.5,33.3,69.5,33.3
		C69.4,33.3,69.4,33.3,69.5,33.3C69.4,33.3,69.4,33.3,69.5,33.3z M69.3,35.4c0-0.1,0-0.2,0-0.3c0,0-0.1,0-0.1-0.1c0,0,0,0.1,0.1,0.1
		C69.3,35.2,69.3,35.3,69.3,35.4z M69.2,33.2C69.2,33.3,69.2,33.3,69.2,33.2C69.2,33.3,69.2,33.3,69.2,33.2z M69.2,33.3
		C69.2,33.3,69.3,33.3,69.2,33.3C69.3,33.3,69.2,33.3,69.2,33.3z M69.2,33.2L69.2,33.2c-0.1,0-0.1,0-0.2,0c0,0,0,0-0.1,0
		c0,0,0,0,0.1,0S69.2,33.2,69.2,33.2z M69,35.2L69,35.2C69,35.2,68.9,35.2,69,35.2C68.9,35.2,69,35.2,69,35.2z M69,33.1
		C69,33,69.1,33,69,33.1L69,33.1L69,33.1C69,33,69,33,69,33.1c-0.1,0.2,0,0.3,0,0.5l0,0C68.9,33.4,68.9,33.3,69,33.1z"/>
	<path class="st20" d="M65.2,34c0-0.2,0-0.4-0.1-0.6c-0.1-0.4-0.5-0.6-0.9-0.5c-0.3-0.1-0.6,0.1-0.8,0.4c0-0.5,0-0.9,0-1.4
		c0-0.1,0-0.2-0.2-0.2c-0.1,0-0.3-0.1-0.3,0.2c0,1.2,0,2.4,0,3.6c0,0.2,0.2,0.2,0.3,0.2c0.2,0,0.2,0,0.2-0.2c0-0.5,0-1.1,0-1.6
		c0-0.3,0.1-0.5,0.4-0.6c0.2-0.1,0.4,0,0.7,0h0.1v-0.1v0.1h-0.1c0.2,0.2,0.2,0.4,0.2,0.6c0,0.5,0,1.1,0,1.6c0,0.2,0.1,0.2,0.3,0.2
		c0.1,0,0.2,0,0.2-0.2C65.2,35,65.2,34.5,65.2,34z M65.1,33.8c0-0.1-0.1-0.2-0.2-0.2v-0.1v0.1C65.1,33.6,65.1,33.7,65.1,33.8z
		 M65,33.4C65,33.4,65,33.5,65,33.4C65,33.5,65,33.4,65,33.4c0-0.1-0.1-0.1-0.1-0.2C64.9,33.3,64.9,33.4,65,33.4z M64.3,33
		C64.4,33,64.4,33,64.3,33C64.4,33,64.4,33,64.3,33L64.3,33z M64.3,33L64.3,33L64.3,33z M64.2,33.2C64.2,33.2,64.3,33.2,64.2,33.2
		C64.3,33.2,64.2,33.2,64.2,33.2z M64.5,33.3C64.6,33.3,64.6,33.3,64.5,33.3C64.6,33.3,64.6,33.3,64.5,33.3z"/>
	<path class="st20" d="M56.5,30.6C56.5,30.6,56.5,30.5,56.5,30.6C56.4,30.5,56.4,30.5,56.5,30.6c-0.1-0.2-0.2-0.2-0.3-0.2
		c0,0,0,0-0.1,0c-0.1-0.1-0.2-0.1-0.2-0.2c-0.4-0.2-0.7-0.3-1.1-0.4c-0.9-0.1-1.8,0-2.6,0.5l0,0c-0.3,0.1-0.5,0.3-0.7,0.5
		c-0.4,0.4-0.8,0.8-0.9,1.4c0,0,0,0.1,0.1,0.1c0.1-0.2,0.1-0.3,0.2-0.5c0.1-0.1,0.1-0.2,0.2-0.3c-0.1,0.1-0.1,0.2-0.2,0.3
		c-0.1,0.1-0.2,0.3-0.2,0.5c0,0,0-0.1-0.1-0.1c-0.2,0.3-0.2,0.6-0.3,0.9c-0.2,0.9,0,1.7,0.4,2.4v0.1l0,0c0,0,0,0,0,0.1l0,0l0,0
		c0.2,0.4,0.4,0.6,0.7,0.9s0.6,0.5,1,0.6l0.1,0.1h0.1c0,0,0,0,0.1,0v-0.1c0,0,0,0,0,0.1c0,0,0,0-0.1,0c0.7,0.3,1.4,0.4,2.1,0.3l0,0
		l0,0h0.1c0,0,0,0,0,0.1c0,0,0,0,0.1,0c0.6-0.1,1.2-0.4,1.7-0.7c0.5-0.4,0.9-0.9,1.2-1.5l0,0l0,0l0,0c0-0.4,0-0.5,0-0.7
		c0.2-0.3,0.2-0.7,0.2-1.1c0-0.8-0.2-1.5-0.6-2.2C57.1,31.1,56.9,30.8,56.5,30.6z M55.4,33.2L55.4,33.2L55.4,33.2L55.4,33.2
		L55.4,33.2L55.4,33.2L55.4,33.2z M55.5,33.2L55.5,33.2L55.5,33.2L55.5,33.2z M55.7,33.2L55.7,33.2L55.7,33.2z M52.3,33.1L52.3,33.1
		L52.3,33.1z M52.3,33C52.3,33.1,52.3,33.1,52.3,33C52.3,33.1,52.3,33.1,52.3,33L52.3,33z M52.7,30.1C52.7,30.1,52.8,30.1,52.7,30.1
		C52.8,30.1,52.7,30.1,52.7,30.1z M52.7,30.1C52.7,30.1,52.7,30,52.7,30.1C52.8,30.1,52.8,30.1,52.7,30.1C52.8,30,52.8,30,52.7,30.1
		C52.7,30,52.7,30.1,52.7,30.1S52.6,30.1,52.7,30.1C52.6,30.1,52.7,30.1,52.7,30.1z M52.5,30.1C52.5,30.1,52.5,30.1,52.5,30.1
		C52.6,30.1,52.6,30.1,52.5,30.1C52.5,30.1,52.5,30.1,52.5,30.1C52.5,30.1,52.5,30.1,52.5,30.1C52.4,30.1,52.4,30.1,52.5,30.1
		C52.4,30.1,52.4,30.1,52.5,30.1z M52.3,30.3L52.3,30.3L52.3,30.3L52.3,30.3z M52.2,30.4C52.3,30.4,52.3,30.4,52.2,30.4
		C52.3,30.3,52.3,30.4,52.2,30.4C52.2,30.3,52.2,30.3,52.2,30.4C52.2,30.3,52.2,30.3,52.2,30.4z M50.8,35.6c0-0.1-0.1-0.2-0.1-0.3
		C50.8,35.4,50.8,35.5,50.8,35.6L50.8,35.6z M53,37.3L53,37.3c-0.1,0-0.2,0-0.2,0s0,0-0.1,0c0,0,0,0,0.1,0S52.9,37.3,53,37.3
		L53,37.3C53.1,37.3,53.1,37.3,53,37.3C53.1,37.3,53.1,37.3,53,37.3z M53.2,37.4c0.1,0,0.2,0,0.3,0s0.2,0,0.2,0.1h0.1h-0.1
		c0-0.1-0.1-0.1-0.2-0.1S53.3,37.5,53.2,37.4z M54.4,37.5L54.4,37.5L54.4,37.5z M54.5,37.5L54.5,37.5L54.5,37.5L54.5,37.5z
		 M54.5,36.2c0-0.2,0-0.3,0-0.5c0-0.1-0.1-0.1-0.2-0.1c-0.6,0.1-1-0.2-1.3-0.6c-0.1-0.1-0.2-0.3-0.2-0.5c0-0.3,0-0.7,0-1
		c0-0.2-0.1-0.3-0.2-0.2c-0.1,0-0.2,0-0.2-0.1c0,0-0.1,0-0.1-0.1l0,0l0,0l0,0l0,0l0,0V33l0,0l0,0c0-0.1,0-0.2,0-0.3
		c0.1,0,0.2,0,0.2,0c0.5,0,1.1,0,1.6,0c0.1,0,0.1,0,0.2,0c0-0.1,0-0.1-0.1-0.2c-0.3-0.4-0.6-0.8-0.9-1.3c0-0.1-0.1-0.1-0.1-0.2
		s0.1-0.1,0.2-0.1c0.1,0,0.1,0,0.2,0c0.2,0,0.3,0.1,0.4,0.2c0.1,0.2,0.2,0.3,0.3,0.5l0,0l0,0c0,0.1,0.1,0.3,0.2,0.4
		c0.2,0.5,0.5,0.7,1,0.6c0,0,0,0,0.1,0c0,0,0.1,0,0.1,0.1c0,0.2,0.1,0.4,0,0.5s-0.2,0.1-0.3,0.1s-0.2,0-0.2,0.2c0,0,0,0,0.1,0
		c0,0,0,0-0.1,0c0,1,0,2,0,3l0,0c0,0,0,0,0-0.1v-0.1v0.1c0,0,0,0,0,0.1h0.1c0-0.4,0-0.8,0-1.2c0,0.4,0,0.8,0,1.2
		c-0.1,0.3-0.4,0.2-0.6,0.2C54.5,36.5,54.5,36.4,54.5,36.2z M55.1,37.3L55.1,37.3L55.1,37.3z M55,37.4L55,37.4L55,37.4z M55,37.4
		L55,37.4L55,37.4z M57.7,35C57.7,35,57.7,34.9,57.7,35C57.7,34.9,57.7,34.9,57.7,35C57.8,34.9,57.7,34.9,57.7,35
		C57.7,34.9,57.7,35,57.7,35z M57.9,33.6L57.9,33.6L57.9,33.6z M57.9,33.3L57.9,33.3v-0.2V33.3C57.9,33.2,57.9,33.2,57.9,33.3z
		 M57.8,32.9c0-0.1,0-0.2,0-0.3C57.8,32.8,57.8,32.9,57.8,32.9z"/>
	<path class="st20" d="M78.5,34.5c0.4,0,0.8,0,1.2,0c0.5,0,0.5,0,0.5-0.5c0-0.4-0.2-0.8-0.6-1s-0.8-0.2-1.2,0.1
		c-0.2,0.2-0.4,0.4-0.4,0.6c-0.3,0.3-0.2,0.6-0.2,0.9c0,0.6,0.4,1.1,1,1.2c0.4,0.1,0.9,0.1,1.2-0.3c0.1-0.1,0.2-0.1,0.1-0.2
		s-0.2-0.3-0.4-0.1c-0.3,0.3-0.8,0.3-1.1,0.1c-0.2-0.2-0.2-0.4-0.3-0.6v-0.1l0,0l0,0C78.3,34.4,78.4,34.5,78.5,34.5z M78.3,33.2
		C78.3,33.3,78.3,33.3,78.3,33.2C78.3,33.3,78.3,33.3,78.3,33.2z M78.4,33.6C78.5,33.6,78.5,33.5,78.4,33.6c0.3-0.4,0.6-0.4,1-0.3
		l0,0c-0.1,0-0.2-0.1-0.4-0.1c0.1,0,0.2,0.1,0.4,0.1c0.1,0,0.2,0,0.2,0.1v0.1v-0.1c-0.1-0.1-0.1-0.1-0.2-0.1l0,0
		c0.3,0.2,0.4,0.5,0.3,0.7h0.1h-0.1h-0.1c-0.2,0-0.3,0-0.5,0c-0.1,0-0.2,0-0.2,0c0.1,0,0.2,0,0.2,0c0.2,0,0.3,0,0.5,0
		c-0.3,0-0.6,0-1,0h-0.1C78.2,34,78.4,33.8,78.4,33.6C78.3,33.7,78.4,33.7,78.4,33.6C78.3,33.6,78.3,33.6,78.4,33.6
		C78.3,33.6,78.3,33.6,78.4,33.6z M78.3,34.1c-0.1,0-0.1-0.1-0.1-0.2C78.3,34,78.3,34.1,78.3,34.1c0.2,0.1,0.5,0.1,0.7,0
		C78.8,34.1,78.6,34.2,78.3,34.1z M78.7,33L78.7,33L78.7,33C78.6,33.1,78.6,33.1,78.7,33C78.6,33,78.6,33,78.7,33z M78.3,33.2
		L78.3,33.2L78.3,33.2c0.1-0.1,0.1-0.1,0.2-0.1C78.4,33.1,78.4,33.1,78.3,33.2L78.3,33.2L78.3,33.2L78.3,33.2L78.3,33.2L78.3,33.2z
		 M79.6,35.6L79.6,35.6L79.6,35.6C79.7,35.6,79.7,35.5,79.6,35.6C79.7,35.5,79.7,35.6,79.6,35.6L79.6,35.6L79.6,35.6z M79.8,35.5
		L79.8,35.5L79.8,35.5L79.8,35.5z M79.8,35.5L79.8,35.5L79.8,35.5z M79.9,35.4L79.9,35.4L79.9,35.4z"/>
	<path class="st20" d="M67.8,33.1L67.8,33.1L67.8,33.1c-0.4-0.3-1-0.4-1.4-0.1c-0.6,0.3-0.7,0.9-0.7,1.5c0,0.2,0,0.5,0.2,0.7
		c0.3,0.5,0.9,0.7,1.5,0.5c0.1,0,0.1,0,0.2-0.1c0.7-0.4,0.8-1.2,0.6-1.9C68.2,33.5,68.1,33.2,67.8,33.1z M66.7,35.4
		C66.6,35.4,66.6,35.4,66.7,35.4c-0.2-0.1-0.3-0.2-0.3-0.3C66.4,35.3,66.4,35.3,66.7,35.4C66.6,35.4,66.6,35.4,66.7,35.4z M68,33.5
		c-0.1-0.1-0.1-0.2-0.3-0.3l0,0C67.8,33.3,67.9,33.4,68,33.5z M65.9,34.6L65.9,34.6L65.9,34.6z M66.6,35.3L66.6,35.3
		c-0.5-0.4-0.5-0.9-0.3-1.5c0.1-0.3,0.4-0.5,0.6-0.5c0.4,0,0.6,0.1,0.8,0.4c0.2,0.5,0.1,1.2-0.3,1.6c-0.1,0-0.2,0.1-0.2,0.1h-0.1
		C67,35.4,66.8,35.4,66.6,35.3z M67.4,35.4L67.4,35.4C67.4,35.4,67.4,35.5,67.4,35.4C67.4,35.5,67.4,35.4,67.4,35.4L67.4,35.4z"/>
	<path class="st20" d="M73.7,33.2L73.7,33.2C73.7,33.1,73.7,33.1,73.7,33.2L73.7,33.2L73.7,33.2L73.7,33.2c-0.1-0.1-0.1-0.1-0.2-0.1
		c-0.3-0.2-0.8-0.2-1.2,0c-0.5,0.3-0.8,1-0.7,1.8c0.1,0.6,0.8,1.1,1.5,1c0,0,0.1,0,0.1-0.1c0,0-0.1,0-0.1,0.1c0.3,0,0.6-0.2,0.8-0.4
		c0.1-0.1,0.1-0.1,0-0.2s-0.2-0.2-0.3-0.1c-0.5,0.4-0.7,0.4-1.2,0.1c-0.1-0.1-0.2-0.3-0.2-0.4c-0.1-0.3-0.1-0.3,0.2-0.3
		c0.1,0,0.2,0,0.3,0h0.1c0.3,0,0.5,0,0.8,0c0.5,0,0.5,0,0.5-0.5C74,33.7,74,33.4,73.7,33.2z M74,34.3L74,34.3L74,34.3L74,34.3
		L74,34.3z M73.3,34.3L73.3,34.3L73.3,34.3z M73.3,34.3L73.3,34.3L73.3,34.3z M73.4,34.1L73.4,34.1L73.4,34.1L73.4,34.1L73.4,34.1
		L73.4,34.1c-0.4,0-0.7,0-1.1,0h-0.1c-0.1,0-0.1-0.1-0.1-0.2L72,33.8c0,0,0,0.1,0.1,0.1c0.1-0.2,0.2-0.4,0.4-0.6l0,0
		c0.2,0,0.3-0.1,0.5,0c0.3,0.1,0.5,0.3,0.5,0.7C73.6,34,73.5,34,73.4,34.1z M72.1,34.5L72.1,34.5L72.1,34.5z M72.1,34.4L72.1,34.4
		L72.1,34.4L72.1,34.4z M72.1,33.8C72.1,33.7,72.1,33.7,72.1,33.8C72.1,33.7,72.1,33.7,72.1,33.8z M73.4,34.4L73.4,34.4L73.4,34.4
		L73.4,34.4L73.4,34.4z M73.8,34.4L73.8,34.4C73.9,34.4,73.9,34.4,73.8,34.4C73.8,34.3,73.8,34.3,73.8,34.4
		C73.8,34.3,73.8,34.3,73.8,34.4z M73.9,33.5L73.9,33.5L73.9,33.5L73.9,33.5L73.9,33.5z M73.8,33.4L73.8,33.4L73.8,33.4z M73.9,33.4
		L73.9,33.4L73.9,33.4z M73.3,35.7C73.4,35.7,73.4,35.6,73.3,35.7C73.3,35.6,73.2,35.6,73.3,35.7C73.3,35.6,73.3,35.6,73.3,35.7
		C73.4,35.6,73.4,35.7,73.3,35.7z M72.3,35.1c0.1,0.2,0.2,0.3,0.3,0.3C72.4,35.4,72.3,35.3,72.3,35.1L72.3,35.1z M73.7,34.4
		L73.7,34.4L73.7,34.4C73.8,34.4,73.8,34.4,73.7,34.4z"/>
	<path class="st20" d="M54.6,37.5L54.6,37.5C54.6,37.6,54.7,37.6,54.6,37.5C54.8,37.5,54.7,37.5,54.6,37.5
		C54.7,37.4,54.7,37.4,54.6,37.5z"/>
	<path class="st20" d="M62.4,32.7c-0.1-0.4-0.4-0.6-0.8-0.6c-0.5-0.1-1.1,0-1.7-0.1c-0.2,0-0.2,0.1-0.2,0.2c0,1.1,0,2.3,0,3.4
		c0,0.1,0,0.2,0.1,0.2c0.1,0,0.3,0.1,0.4,0c0.1,0,0.1-0.2,0-0.2c0-0.1,0-0.1,0-0.2c0.1-0.3,0-0.7,0-1c0.4,0,0.8,0,1.2,0
		c0.3,0,0.6-0.2,0.8-0.5c0.1-0.1,0.2-0.3,0.2-0.4c0,0,0,0,0-0.1C62.5,33.1,62.5,32.9,62.4,32.7L62.4,32.7z M60.3,32.3L60.3,32.3
		L60.3,32.3z M61,32.3L61,32.3L61,32.3z M61.9,33.5L61.9,33.5c0,0.1-0.1,0.1-0.1,0.2c-0.2,0.1-0.4,0.2-0.6,0.2c-0.3,0-0.6,0-0.9,0
		l0,0v-0.1c0.1-0.4,0-0.7,0-1.1c0-0.1,0-0.2,0.1-0.3l0,0h0.1c0.1,0,0.2,0,0.3,0c0.2,0,0.4,0,0.6,0c0.5,0,0.7,0.4,0.7,0.9
		C61.9,33.3,61.9,33.4,61.9,33.5L61.9,33.5z"/>
	<path class="st20" d="M54.5,33.1c-0.2,0-0.5,0-0.7,0c-0.1,0-0.2,0-0.2,0.1c0,0.4,0,0.8,0,1.1l0,0l0,0c0.1,0.2,0.2,0.4,0.4,0.4
		s0.4-0.1,0.5-0.3l0,0c0.1,0,0.1-0.1,0-0.1C54.5,33.8,54.5,33.6,54.5,33.1C54.6,33.1,54.6,33.1,54.5,33.1z M53.7,33.9
		c0-0.1,0-0.2,0-0.2C53.7,33.7,53.7,33.8,53.7,33.9z M53.7,33.9c0,0.2,0,0.3,0,0.5l0,0C53.7,34.2,53.7,34,53.7,33.9z"/>
</g>
<g>
	<path class="st21" d="M107.1,31.1c1.2,0,2.4,0,3.6,0c0.5,0,0.7,0.2,0.6,0.8c-0.2,1-0.5,1.9-0.8,2.9c-0.1,0.4-0.5,0.7-1,0.7
		c-1.9,0-3.9,0-5.8,0c-0.2,0-0.3,0.1-0.4,0.3c-0.2,0.8-0.5,1.6-0.7,2.4c0,0.1-0.1,0.2-0.2,0.2c-0.3,0-0.7,0-1,0
		c-0.1,0-0.2,0-0.1-0.2c0.4-1.3,0.7-2.6,1.1-3.9c0-0.2,0.1-0.2,0.3-0.2c2.2,0,4.3,0,6.5,0c0.2,0,0.3,0,0.4-0.3s0.2-0.7,0.3-1
		c0.1-0.2,0-0.2-0.2-0.2c-2.1,0-4.3,0-6.4,0c-0.3,0-0.3,0-0.2-0.3c0.1-0.3,0.2-0.6,0.3-0.9c0-0.2,0.1-0.2,0.3-0.2
		C104.7,31.1,105.9,31.1,107.1,31.1z"/>
	<path class="st21" d="M96.4,38.2c-1.1,0-2.2,0-3.3,0c-0.1,0-0.2,0-0.3,0c-0.4,0-0.6-0.3-0.5-0.7c0.4-1.4,0.8-2.8,1.1-4.3
		c0.2-0.7,0.4-1.3,0.5-2c0-0.2,0.1-0.2,0.3-0.2c0.3,0,0.6,0,0.9,0c0.2,0,0.2,0.1,0.2,0.2c-0.5,1.7-0.9,3.5-1.4,5.2
		c-0.1,0.3-0.1,0.3,0.2,0.3c1.7,0,3.3,0,5,0c0.2,0,0.3,0,0.3-0.2c0.5-1.8,1-3.5,1.5-5.3c0-0.2,0.1-0.2,0.3-0.2c0.3,0,0.6,0,0.9,0
		c0.2,0,0.2,0.1,0.2,0.2c-0.4,1.3-0.7,2.6-1.1,3.9c-0.2,0.8-0.5,1.7-0.7,2.5c-0.1,0.4-0.3,0.6-0.8,0.6
		C98.6,38.2,97.5,38.2,96.4,38.2z"/>
	<path class="st21" d="M111.4,38.2c-0.2,0-0.3,0-0.5,0s-0.2,0-0.1-0.2c0.3-1.2,0.6-2.4,1-3.6c0.3-1,0.6-2.1,0.8-3.1
		c0-0.2,0.1-0.2,0.3-0.2c0.3,0,0.6,0,0.9,0c0.2,0,0.2,0,0.2,0.2c-0.4,1.3-0.7,2.6-1,3.9c-0.2,0.9-0.5,1.9-0.7,2.8
		c-0.1,0.2-0.1,0.3-0.4,0.3C111.6,38.2,111.5,38.2,111.4,38.2z"/>
	<path class="st22" d="M114.8,36.7c-0.4,0.4-0.9,0.8-1.3,1.2c-0.1,0.1-0.1,0.1-0.2,0.2c0.6-2.3,1.3-4.6,1.9-7c0.3,0.5,0.5,1,0.8,1.5
		c0.3,0.6,0.6,1.2,0.9,1.8c0.1,0.2,0.1,0.3-0.1,0.4C116.1,35.4,115.5,36,114.8,36.7L114.8,36.7L114.8,36.7z"/>
	<path class="st23" d="M114.9,36.6c0.6-0.6,1.2-1.2,1.9-1.8c0.1-0.1,0.2-0.2,0.1-0.4c-0.3-0.6-0.6-1.2-0.9-1.8
		c0.2-0.3,0.2-0.7,0.3-1c0.1-0.2,0.1-0.3,0.1-0.5c0.1,0.2,0.2,0.3,0.2,0.5c0.5,1,1,1.9,1.4,2.9c0.1,0.1,0.1,0.2,0,0.3
		c-1.1,1.1-2.3,2.2-3.4,3.2c0,0-0.1,0.1-0.2,0.1c0.1-0.4,0.2-0.8,0.3-1.2C114.8,36.8,114.9,36.8,114.9,36.6L114.9,36.6
		C114.9,36.7,114.9,36.7,114.9,36.6z"/>
	<path class="st24" d="M114.9,36.6C114.9,36.7,114.9,36.7,114.9,36.6C114.8,36.7,114.9,36.7,114.9,36.6z"/>
</g>
</svg>
