<?xml version="1.0" encoding="utf-8"?>
<!-- Generator: Adobe Illustrator 24.0.0, SVG Export Plug-In . SVG Version: 6.00 Build 0)  -->
<svg version="1.1" id="Layer_1" xmlns="http://www.w3.org/2000/svg" xmlns:xlink="http://www.w3.org/1999/xlink" x="0px" y="0px"
	 viewBox="0 0 598 178.3" style="enable-background:new 0 0 598 178.3;" xml:space="preserve">
<style type="text/css">
	.st0{fill:none;}
	.st1{fill:#C7C4C3;}
	.st2{fill:#FFFFFF;}
	.st3{display:none;}
	.st4{display:inline;}
	.st5{fill:#E6E6E6;}
	.st6{clip-path:url(#SVGID_2_);fill:#2E2E2E;}
	.st7{opacity:0.25;clip-path:url(#SVGID_4_);fill:url(#SVGID_6_);enable-background:new    ;}
	.st8{fill:#A0A0A0;}
	.st9{fill:#FEFEFE;}
	.st10{fill:#FBFBFB;}
</style>
<pattern  y="178.3" width="10.8" height="10.8" patternUnits="userSpaceOnUse" id="SVGID_5_" viewBox="0 -10.8 10.8 10.8" style="overflow:visible;">
	<g>
		<rect y="-10.8" class="st0" width="10.8" height="10.8"/>
		<g>
			<rect y="-10.8" class="st0" width="10.8" height="10.8"/>
			<g>
				<rect y="-10.8" class="st0" width="10.8" height="10.8"/>
				<g>
					<rect y="-10.8" class="st1" width="5.4" height="5.4"/>
					<rect x="5.4" y="-5.4" class="st1" width="5.4" height="5.4"/>
					<rect x="5.3" y="-10.8" class="st2" width="5.4" height="5.4"/>
					<rect y="-5.4" class="st2" width="5.4" height="5.4"/>
				</g>
			</g>
		</g>
	</g>
</pattern>
<rect x="178.3" y="74" class="st2" width="371.8" height="83.8"/>
<rect x="173.6" y="21.3" class="st2" width="368.9" height="56.5"/>
<g id="BACKGROUND" class="st3">
	<g class="st4">
		<g>
			<rect id="XMLID_1_" x="-41.4" y="-34.1" class="st5" width="750" height="500"/>
		</g>
		<g>
			<g>
				<defs>
					<rect id="SVGID_1_" x="-41.4" y="-34.1" width="750" height="500"/>
				</defs>
				<clipPath id="SVGID_2_">
					<use xlink:href="#SVGID_1_"  style="overflow:visible;"/>
				</clipPath>
				<rect x="-55.4" y="-61.2" class="st6" width="777.9" height="554.3"/>
			</g>
		</g>
		<g>
			<g>
				<defs>
					<rect id="SVGID_3_" x="-41.4" y="-34.1" width="750" height="500"/>
				</defs>
				<clipPath id="SVGID_4_">
					<use xlink:href="#SVGID_3_"  style="overflow:visible;"/>
				</clipPath>
				<pattern  id="SVGID_6_" xlink:href="#SVGID_5_" patternTransform="matrix(1 0 0 1 -61.8 16356.8936)">
				</pattern>
				<rect x="-61.1" y="-59.3" class="st7" width="789.4" height="550.5"/>
			</g>
		</g>
	</g>
</g>
<path class="st8" d="M598.4,159.6c-0.7,2.1-1.1,4.3-2.2,6.3c-4.1,7.4-10.3,11.2-18.7,11.6c-0.4,0-0.7,0-1.1,0
	c-184.5,0-369.1,0-553.6,0c-7.8,0-14.2-2.9-18.7-9.4c-2.4-3.4-3.5-7.3-3.5-11.6c0-45.2,0-90.4,0-135.5c0-10.1,6.9-18.5,17-20.5
	c0.2,0,0.4-0.2,0.6-0.4c187.6,0,375.1,0,562.7,0c0.2,0.1,0.4,0.3,0.6,0.4c6.1,1.2,10.7,4.6,14,9.8c1.4,2.3,2,4.9,2.9,7.4
	C598.4,65,598.4,112.3,598.4,159.6z M594.4,58.4c0-4.9,0-9.7,0-14.6c0-6.7,0-13.4,0-20.1c-0.1-1.9,0.2-3.9-0.2-5.8
	c-1.6-8.4-8.9-13.7-16.8-13.7c-97.5,0.1-195.1,0-292.6,0.1c-0.7,0-1.4,0.1-2,0.1c-0.7-0.1-1.4-0.2-2-0.2c-86.2,0-172.5,0-258.7,0
	c-9.9,0-17.2,7.2-17.2,17.1c0,44.9,0,89.9,0,134.8c0,9.9,7.4,17.2,17.4,17.3c185.1,0,370.1,0,555.2,0c0.7,0,1.5,0.1,2.2-0.3
	c7.3-0.1,14.7-7.4,14.9-15.1c0.2-6.2,0.2-12.3,0.2-18.5c0-16.2-0.1-32.5-0.1-48.7c0-5.7,0-11.4,0-17.2
	C594.4,68.6,594.4,63.5,594.4,58.4z"/>
<path class="st9" d="M57.2,87.8c0.3-8.3,2.3-15.9,7.6-22.5c6.1-7.5,17.9-13.6,30.2-7.9c6.1,2.9,11.5,2.9,17.7,0
	c9.5-4.3,18.8-3.5,27.6,2.5c2,1.3,3.6,3.1,5.1,4.9c0.8,1,1,1.5-0.3,2.4c-10.9,7.7-14.1,21.4-7.8,32.8c2.5,4.4,6.1,7.7,10.6,9.9
	c1.1,0.5,1.4,0.9,1,2.2c-3.1,8.7-7.9,16.4-14.1,23.2c-5.2,5.7-11.3,6.9-18.3,3.6c-7.4-3.5-14.6-3.6-22-0.1
	c-3.9,1.8-7.9,2.9-12.2,1.1c-3.9-1.7-6.6-4.7-9.2-7.9c-8.6-10.6-13.7-22.8-15.5-36.3C57.3,93.1,57.2,90.4,57.2,87.8z"/>
<path class="st10" d="M188.5,139.8c2.4-7.4,4.8-14.7,7.1-22c3.8-11.8,7.6-23.5,11.3-35.3c0.4-1.4,1-2,2.6-1.9c2.9,0.2,5.7,0.1,8.6,0
	c0.9,0,1.4,0.2,1.7,1.2c6.1,19,12.3,38,18.4,57c0.1,0.3,0.1,0.6,0.1,1c-3,0-6-0.1-9,0c-1.1,0-1.2-0.6-1.4-1.3
	c-1.5-4.8-3.1-9.5-4.5-14.3c-0.4-1.2-0.8-1.8-2.2-1.7c-5.2,0.1-10.3,0.1-15.5,0c-1.5,0-2.1,0.3-2.6,1.8c-1.3,4.6-2.8,9.1-4.1,13.7
	c-0.4,1.3-0.8,1.9-2.3,1.8C194,139.7,191.3,139.8,188.5,139.8z M205.4,115c5.3,0,10.4,0,15.6,0c-2.7-8.7-5.8-17.1-7.9-25.9
	C211.1,98,208.1,106.4,205.4,115z"/>
<path class="st10" d="M125.8,30.8c-0.4,10.5-7.7,19.9-17.5,22.5c-0.2,0.1-0.5,0.2-0.7,0.2c-5.6,0.8-5,1-4.5-4.4
	c1.1-10.3,10.1-19.5,20.3-21.3C125.9,27.4,125.9,27.5,125.8,30.8z"/>
<path class="st10" d="M213.7,59.8c-1.7,0.5-2.5-0.4-2.9-2.3c-0.3-1.4-1-2.7-1.2-4.1c-0.3-1.7-1.1-2.4-2.9-2.2
	c-1.9,0.2-3.9,0.1-5.8,0c-1,0-1.5,0.3-1.8,1.3c-0.4,1.8-1.2,3.5-1.6,5.3c-0.3,1.4-0.9,2-2.5,1.9c-3.1-0.2-3.1,0-2.1-3
	c2.7-8.2,5.3-16.4,7.9-24.7c0.4-1.2,0.8-1.5,2-1.5c4.4,0,4.4,0,5.7,4.1c2.4,7.5,4.8,14.9,7.2,22.4C216.7,59.8,216.7,59.8,213.7,59.8
	z M204.3,35.4c-1.2,4.1-2.6,8-3.8,12.1c2.6,0,5,0,7.5,0c-0.7-2.1-1.3-4.1-2-6.1C205.4,39.4,204.9,37.4,204.3,35.4z"/>
<path class="st10" d="M230,54.6c1.5-4.8,3-9.3,4.3-13.8c0.5-1.6,1.1-2.5,2.9-2.2c0.8,0.2,1.7,0,2.8,0c-1.3,3.4-2.5,6.6-3.7,9.9
	s-2.5,6.6-3.7,9.9c-0.4,1.1-1,1.6-2,1.3c-1.2-0.3-2.8,0.9-3.5-1c-2.3-6.3-4.6-12.6-6.9-18.8c-0.4-1-0.1-1.2,0.9-1.3
	c3.8-0.1,3.7-0.1,4.9,3.5C227.2,46.2,228.6,50.2,230,54.6z"/>
<path d="M531.9,107.5c-0.4-0.9-1-1.7-1.6-2.4s-1.2-1.2-2.1-1.6c-0.9-0.4-1.7-0.8-2.7-0.9c-2.3-0.4-5.5-0.1-7.4,1.3
	c-1,0.7-1.8,1.6-2.4,2.6c-0.7,1-1.2,2-1.4,3.2c0,0.3-0.1,0.7-0.1,1c-0.2,1.1-0.3,2.1,1.1,2.1c3,0,6.1,0,9.1,0c1.5,0,3.1,0,4.6,0
	c0.4,0,3.7,0.2,3.7-0.4C532.9,110.6,532.6,108.9,531.9,107.5z"/>
<path d="M265.6,103.3c-4.2,0.4-7,2.8-8.7,6.6c-1.1,2.7-0.9,5.6-0.8,8.4c0,1.6-0.1,3.1,0,4.7c0.2,4.1,3.2,7.9,7.1,9
	c4.3,1.3,8.9-0.1,11.2-3.7c4-6.2,4.1-12.9,1-19.5C273.6,104.8,270.1,102.9,265.6,103.3z"/>
<path d="M314.5,103.3c-4,0.2-7.8,3.5-9,7.7c-0.7,2.4-0.6,4.8-0.7,7.2c0.1,1.8,0.1,3.6,0.3,5.4c0.4,3.9,3.4,7.4,7.3,8.5
	c4.1,1.2,8.5-0.1,10.8-3.5c4-5.9,4.1-12.3,1.7-18.8C323.1,105.2,319.3,103,314.5,103.3z"/>
<path d="M205.4,114.3c5.3,0,10.4,0,15.6,0c-2.7-8.7-5.8-17.1-7.9-25.9C211.1,97.3,208.1,105.7,205.4,114.3z"/>
<path d="M398.6,58.7L398.6,58.7C398.6,58.8,398.6,58.8,398.6,58.7L398.6,58.7z"/>
<path d="M327.5,41.3c-2.2,0.2-4,1.8-4.6,4.1c-0.5,2.1-0.5,4.3,0,6.5s2.1,3.5,4.3,3.8c2.2,0.3,4-0.7,5-2.7c0.7-1.4,1-2.8,0.9-4.5
	c0.1-1.3-0.2-2.7-0.8-4C331.4,42.4,329.4,41.1,327.5,41.3z"/>
<path d="M206,40.7c-0.6-2-1.2-4-1.8-6c-1.2,4.1-2.6,8-3.8,12.1c2.6,0,5,0,7.5,0C207.3,44.7,206.7,42.7,206,40.7z"/>
<path d="M305.4,50.7c0.1-0.7,0.3-1.8-0.6-2c-2.2-0.3-4.4,0-6.1,1.6c-1.2,1.1-1.2,2.5-0.6,4c0.5,1.2,1.6,1.6,2.9,1.6
	c1.7,0,3.2-0.8,3.9-2.3C305.2,52.7,305.1,51.7,305.4,50.7C305.3,50.8,305.3,50.7,305.4,50.7z"/>
<path d="M251.9,55.9c2.6-0.1,4.2-2,4.2-5.3c0-1.8,0-1.9-0.7-1.9c-1.9-0.1-3.7,0.1-5.4,1.1c-1.4,0.8-2,2.6-1.4,4.3
	C249.2,55.7,250.4,56,251.9,55.9z"/>
<path d="M507.7,104.4L507.7,104.4C507.6,104.4,507.6,104.4,507.7,104.4L507.7,104.4z"/>
<path d="M439.7,107.3c-2,3.2-2.8,6.7-2.7,10.5c-0.1,4,0.7,7.7,3.1,10.9c4.1,5.7,12,5.8,15.8-0.1c4.4-6.9,4.5-14.1,0.4-21.2
	C452.6,100.8,443.7,100.9,439.7,107.3z"/>
<path d="M406.8,54c1.3-1.6,1.6-3.6,1.6-5.5c0-1.8-0.3-3.5-1.3-5c-2.1-3.2-6.1-3.2-8.2,0c-1.8,2.7-1.8,7.8,0.1,10.4
	C401.1,56.6,404.6,56.7,406.8,54z"/>
<path d="M505,45.8c1.9,0,3.7-0.1,5.6,0c1,0.1,1.5-0.4,1.8-1.1c-0.7-2.7-2.1-3.8-4.5-3.8c-2.3,0.1-4.1,1.7-4.5,4.3
	C503.8,45.9,504.4,45.8,505,45.8z"/>
<path d="M364,41.3c-1.8,0.9-2.8,2.4-3,4.4c3.1,0,6.2,0,9.4,0.1C370.2,41.1,366.4,40.1,364,41.3z"/>
<path d="M594.5,139.9c0-16.2-0.1-32.5-0.1-48.7c0-5.7,0-11.4,0-17.2c0-5.1,0-10.2,0-15.3c0-4.9,0-9.7,0-14.6c0-6.7,0-13.4,0-20.1
	c-0.1-1.9,0.2-3.9-0.2-5.8c-1.6-8.4-8.9-13.7-16.8-13.7c-97.5,0.1-195.1,0-292.6,0.1c-0.7,0-1.4,0.1-2,0.1c-0.7-0.1-1.4-0.2-2-0.2
	c-86.2,0-172.5,0-258.7,0c-9.9,0-17.2,7.2-17.2,17.1c0,44.9,0,89.9,0,134.8c0,9.9,7.4,17.2,17.4,17.3c185.1,0,370.1,0,555.2,0
	c0.7,0,1.5,0.1,2.2-0.3c7.3-0.1,14.7-7.4,14.9-15.1C594.6,152.2,594.5,146.1,594.5,139.9z M419.9,39.3c0.1-0.1,0.2-0.1,0.4-0.2
	c0.4-0.1,0.8-0.2,1.2-0.2c0.8,0,1.5,0.1,2.3,0c0.4,0,0.6,0.1,0.6,0.5c-0.1,2.3,0.8,1.3,1.8,0.6c1.4-0.9,3-1.5,4.7-1.6
	c1.6,0,3.2,0.5,4.5,1.4c0.5,0.4,0.9,0.8,1.3,1.3c0.2,0.2,0.4,0.5,0.6,0.8c0.1,0.1,0.1,0.3,0.2,0.4c0.4,0.7,0.4,1.5,0.6,2.2
	c0.1,0.5,0.2,1.1,0.3,1.6c0.2,0.7,0.2,1.3,0.2,2.1c0,3.3-0.1,6.7-0.1,10c0,1.4-0.3,2-1.7,1.8c-0.5-0.1-1.1-0.1-1.7,0
	c-0.5,0.1-1.1,0.1-1.4-0.5c-0.3-0.7-0.1-1.6-0.1-2.3c0.1-3.6,0.3-7.3-0.2-10.9c-0.3-2.8-1.7-3.9-4.1-3.8s-4,1.6-4.3,4.2
	c-0.5,3.5-0.1,6.9-0.2,10.4c-0.1,2.9,0,2.8-2.8,2.9c-1.4,0-2.1-0.2-2-1.7c0.1-0.9,0-1.8,0.1-2.7c0-0.9,0-1.8,0.1-2.7
	c0-1.8,0-3.7,0-5.5c0-1.3-0.1-2.7-0.1-4c0-0.6-0.2-1.2-0.1-1.8c0-0.7,0.1-1.3,0-2C419.8,39.5,419.8,39.4,419.9,39.3z M425.4,52.9
	c0-1.4,0-2.8,0-4.3c0-0.1,0-0.2,0-0.4c0,0.1,0,0.2,0,0.4C425.4,50.1,425.4,51.5,425.4,52.9z M358.5,42.3c2.7-3.4,6.3-4.3,10.4-3.4
	c1.3,0.3,2.8,1.1,3.6,2.2c0.5,0.8,1,1.6,1.4,2.4c0.4,0.9,0.7,1.9,0.9,2.8c0.2,1,0.2,2.1,0,3.1c-0.1,0.3-0.1,1-0.4,1.2
	s-1.3,0.1-1.7,0c-0.7,0-1.5-0.1-2.2-0.1c-1.4,0-2.8,0-4.3,0c-1.3,0-2.6,0.1-3.9,0.1c-0.3,0-0.6,0-0.9,0.1l-0.4,0.1
	c-0.4,0.2-0.3,0.3-0.2,0.8c0.1,0.4,0.1,0.9,0.3,1.3c0.3,0.8,0.8,1.5,1.4,2.1c1.4,1.3,3.4,1.8,5.2,1.7c1.2-0.1,2.3-0.4,3.5-0.5
	c0.6-0.1,1.4-0.9,1.7,0c0.3,0.8,1,1.5,0.7,2.3c-0.2,0.7-1.1,0.8-1.7,1c-2.5,0.8-5.3,1-7.9,0.5c-1.3-0.3-2.5-0.7-3.5-1.4
	c-1.2-0.8-2.6-1.8-3.1-3.2c-0.9-2.2-1.3-4.5-1.2-6.9C356.5,46.5,357.2,44,358.5,42.3z M283,29.4c3.3,0,3.3,0,3.3,3.3
	c0,8.5,0,17,0,25.6c0,1.4-0.3,2-1.8,1.9c-3-0.1-3,0-3-3c0-4.2,0-8.3,0-12.5c0-4.5,0-9.1,0-13.6C281.5,29.8,281.7,29.4,283,29.4z
	 M271,30c1.7,0,3,1.3,3,2.9c0,1.6-1.2,2.7-2.9,2.7c-1.8,0-3-1.1-3-2.8C268.2,31.3,269.4,30,271,30z M268.7,40.4
	c0-1.1,0.3-1.5,1.4-1.5c3.3,0,3.3,0,3.3,3.1c0,5.4,0,10.8,0,16.2c0,1.4-0.3,1.8-1.7,1.8c-3-0.1-3,0-3-3.1c0-2.6,0-5.1,0-7.7
	C268.7,46.4,268.7,43.4,268.7,40.4z M193,57.1c2.7-8.2,5.3-16.4,7.9-24.7c0.4-1.2,0.8-1.5,2-1.5c4.4,0,4.4,0,5.7,4.1
	c2.4,7.5,4.8,14.9,7.2,22.4c0.8,2.6,0.8,2.6-2.2,2.6c-1.7,0.5-2.5-0.4-2.9-2.3c-0.3-1.4-1-2.7-1.2-4.1c-0.3-1.7-1.1-2.4-2.9-2.2
	c-1.9,0.2-3.9,0.1-5.8,0c-1,0-1.5,0.3-1.8,1.3c-0.4,1.8-1.2,3.5-1.6,5.3c-0.3,1.4-0.9,2-2.5,1.9C192,60,192,60.1,193,57.1z
	 M103.1,49.5c1.1-10.3,10.1-19.5,20.3-21.3c2.4-0.4,2.5-0.3,2.4,2.9c-0.4,10.5-7.7,19.9-17.5,22.5c-0.2,0.1-0.5,0.2-0.7,0.2
	C102,54.6,102.6,54.8,103.1,49.5z M148.9,112.4c-3.1,8.7-7.9,16.4-14.1,23.2c-5.2,5.7-11.3,6.9-18.3,3.6c-7.4-3.5-14.6-3.6-22-0.1
	c-3.9,1.8-7.9,2.9-12.2,1.1c-3.9-1.7-6.6-4.7-9.2-7.9c-8.6-10.7-13.7-22.8-15.5-36.4c-0.3-2.6-0.4-5.2-0.4-7.8
	c0.3-8.3,2.3-15.9,7.6-22.5C70.9,58.1,82.7,52,95,57.7c6.1,2.9,11.5,2.9,17.7,0c9.5-4.3,18.8-3.5,27.6,2.5c2,1.3,3.6,3.1,5.1,4.9
	c0.8,1,1,1.5-0.3,2.4c-10.9,7.7-14.1,21.4-7.8,32.8c2.5,4.4,6.1,7.7,10.6,9.9C149,110.8,149.4,111.2,148.9,112.4z M229.2,140.1
	c-1.1,0-1.2-0.6-1.4-1.3c-1.5-4.8-3.1-9.5-4.5-14.3c-0.4-1.2-0.8-1.8-2.2-1.7c-5.2,0.1-10.3,0.1-15.5,0c-1.5,0-2.1,0.3-2.6,1.8
	c-1.3,4.6-2.8,9.1-4.1,13.7c-0.4,1.3-0.8,1.9-2.3,1.8c-2.7-0.2-5.3,0-8.2,0c2.4-7.4,4.8-14.7,7.1-22c3.8-11.8,7.6-23.5,11.3-35.3
	c0.4-1.4,1-2,2.6-1.9c2.9,0.2,5.7,0.1,8.6,0c0.9,0,1.4,0.2,1.7,1.2c6.1,19,12.3,38,18.4,57c0.1,0.3,0.1,0.6,0.1,1
	C235.2,140.1,232.2,140,229.2,140.1z M236.3,48.8c-1.2,3.3-2.5,6.6-3.7,9.9c-0.4,1.1-1,1.6-2,1.3c-1.2-0.3-2.8,0.9-3.5-1
	c-2.3-6.3-4.6-12.6-6.9-18.8c-0.4-1-0.1-1.2,0.9-1.3c3.8-0.1,3.7-0.1,4.9,3.5c1.3,4,2.6,8.1,4,12.5c1.5-4.8,3-9.3,4.3-13.8
	c0.5-1.6,1.1-2.5,2.9-2.2c0.8,0.2,1.7,0,2.8,0C238.7,42.4,237.5,45.6,236.3,48.8z M244,56.3c-0.9-2.8,0-5.9,2.4-7.6s5.1-2.2,7.9-2.2
	c1.7,0,1.7-0.8,1.3-1.9c-0.4-1.3-1.2-2.1-2.6-2.4c-2-0.4-3.9-0.1-5.8,0.7c-0.4,0.1-1,1.1-1.3,0.1c-0.3-0.9-1.4-2.2-0.4-2.8
	c3.3-1.9,6.9-2.3,10.6-1c3.1,1.2,4.3,3.8,4.4,6.9c0.1,1.7,0,3.4,0,5c0,2.6-0.2,5.2,0.3,7.8c0.1,0.7-0.1,1.1-0.8,1
	c-0.4,0-0.7,0-1.1,0c-1.5,0.1-2.9,0.1-2.4-2.6c-1.9,2.1-3.9,3.1-6.2,3.1C247.4,60.6,244.9,59,244,56.3z M284,131.6
	c-4.1,7.7-12.8,11.1-21.2,8.7c-2.5-0.7-4.5-2.1-6.8-4.9c0,1.2,0,2.2,0,3.1c0,5.7,0,11.3,0,17c0,1.3-0.2,1.9-1.7,1.8
	c-2.1-0.1-4.2-0.1-6.3,0c-1.3,0.1-1.6-0.3-1.6-1.6c0-15.5,0.1-31,0-46.5c0-3.5-0.2-7-0.3-10.4c-0.1-1.1,0.2-1.4,1.3-1.4
	c1.9,0.1,3.9,0.1,5.8,0c1.2-0.1,1.5,0.4,1.5,1.5c0,1.6,0.2,3.2,0.4,5.1c5.2-7.4,12.8-8.6,19-6.8c5.6,1.6,9.3,5.5,11.2,10.8
	C288.3,116.1,288.1,124.1,284,131.6z M293.4,56.5c-1.2-3.3,0.2-6.8,3.4-8.5c2.2-1.1,4.7-1.6,7.2-1.6c1.2,0,1.4-0.5,1.1-1.4
	c-0.3-1.4-1.1-2.4-2.6-2.8c-2-0.5-3.9-0.1-5.8,0.7c-0.4,0.2-1.2,1.3-1.5-0.1c-0.2-0.9-1.6-2.1,0.3-3c2.9-1.3,5.8-1.6,8.9-1
	c1.5,0.4,2.9,1.1,3.9,2.4c1.1,1.3,1.2,2.9,1.7,4.5c0,4.5-0.3,9.1,0.2,13.6c0,0.2,0,0.6-0.1,0.6c-1.2,0.3-2.5,0.2-3.7,0.1
	c-0.8-0.1-0.4-1-0.6-1.6c0-0.1-0.1-0.2-0.2-0.5c-1.4,1-2.6,2.1-4.4,2.5C297.7,61,294.5,59.5,293.4,56.5z M335,126.8
	c-2.8,10.3-12.4,16.1-22.6,13.6c-2.8-0.7-4.5-1.8-7.1-4.7c-0.6,0.5-0.3,1.3-0.3,1.9c0,6-0.1,12.1,0,18.1c0,1.2-0.3,1.6-1.5,1.5
	c-2-0.1-4-0.1-6,0c-1.6,0.1-2.1-0.2-2.1-2c0.1-13.9,0.1-27.7,0-41.6c0-4.8-0.2-9.7-0.4-14.5c0-1.3,0.1-1.9,1.7-1.8
	c1.9,0.2,3.7,0.1,5.6,0c1,0,1.3,0.3,1.3,1.3c0,1.7,0.2,3.3,0.4,5.3c5.8-8.1,14.4-8.6,20.2-6.4c6.1,2.3,9.5,7.3,11,13.4
	C336.6,116.3,336.4,121.6,335,126.8z M322.7,37.1c0,1.5,0,3,0,4.7c4.1-5,12-4.1,14.4,2.4c1.3,3.6,1.2,7.2-0.2,10.8
	c0.3,0.2,0.1,0.3-0.1,0.3c-1.8,3.3-4.7,5.2-8.3,5.5c-1.6,0.1-3.3-0.7-4.6-1.9c-0.5-0.5-1-1-1.9-1.8c0.5,2.5-0.5,3.4-2.6,3.2
	c-0.4,0-0.9,0.1-1.3-0.1c-0.5-0.3-0.3-0.8-0.3-1.3c-0.1-1.5-0.3-3.1-0.3-4.6c0-1.4,0.1-2.9,0.1-4.3c0-2,0-4.1,0-6.1c0-1,0-2,0-3.1
	c0-1,0.2-1.8,0.3-2.8c0.2-2.3,0.2-4.7,0.1-7c-0.1-1.3,0.4-1.5,1.6-1.5c3.2,0,3.2,0,3.2,3.2C322.7,34.1,322.7,35.6,322.7,37.1
	 M344.3,56.8c0-5.6,0.1-11.2,0.1-16.8c0-0.9,0-1.8-0.1-2.7 M344.3,37.4c0-2,0-4.1,0-6.1c0-0.6-0.2-1.2,0.4-1.7
	c1.6-0.2,3.2-0.2,4.9,0c0.1,0.1,0.1,0.2,0.2,0.3l-0.1,0.1c0,1.3,0,2.5,0,3.8c0.8,1.8,0.2,3.6,0.4,5.4c0.1,1,0,2.1,0,3.1s0,2-0.1,3
	c0,3.8,0,7.7,0.1,11.5l0,0c-0.3,1,0.4,2.1-0.4,3c-1.6,0.3-3.2,0.3-4.9,0c-0.7-0.9-0.2-2-0.4-3 M390.7,125.2
	c-0.2,2.1-0.8,4.2-1.8,6.2c-1.4,2.7-3.5,4.8-6.1,6.4c-1.2,0.7-2.4,1.2-3.7,1.7c-1,0.3-2,0.5-3,0.7c-1.2,0.3-2.5,0.7-3.8,0.7
	c-4.1-0.1-8.2,0.1-12.2-1c-6.4-1.8-6.4-1.7-4.7-7.9c0.7-2.6,0.7-2.6,3.1-1.5c2.5,1.2,5,2,7.8,2.2c1.4,0.1,2.6,0.3,4,0.2
	c0.9,0,1.9,0,2.8-0.2c3.9-0.6,7-3.1,7.7-6.3c0.9-3.9-0.6-7.4-4.2-9.7c-1.9-1.2-3.9-2.2-6-2.9c-2.5-0.9-4.8-2.1-7.1-3.5
	c-1-0.6-2-1.3-3.1-1.8c-0.9-0.5-1.4-1.4-1.9-2.3c-0.4-0.7-1-1.3-1.4-2c-3.6-6.1-2.3-14.1,2.9-18.9c5.1-4.7,11.2-5.5,17.7-4.9
	c3.2,0.3,6.2,0.8,9.2,2c0.5,0.2,1,0.4,1.2,0.9c0.2,0.5-0.1,1-0.3,1.4c-0.3,0.7-0.4,1.4-0.6,2.1c-0.2,0.6-0.4,1.3-0.6,1.9
	c-0.1,0.4-0.2,0.9-0.5,1.3c-0.5,0.8-1.4,0.4-2,0c-2.6-1.6-6.4-1.9-9.4-1.9c-2,0-3.9,0.1-5.7,0.9c-5.4,2.3-6.3,8.7-1.9,12.5
	c1.1,1,2.4,1.8,3.8,2.4c1.8,0.8,3.6,1.7,5.5,2.5c0.9,0.4,1.9,0.8,2.8,1.3c0.4,0.2,0.9,0.3,1.3,0.6c0.9,0.6,1.8,1.1,2.7,1.6
	c3.3,2.2,6.4,6.2,7,10.1C390.8,121.8,390.9,123.5,390.7,125.2z M396.4,40.8c3.5-2.7,10.6-3.8,14.9,1.5c3,5.1,2.9,10-0.5,14.9
	c-3.2,3-6.9,4.3-11.3,2.9l0,0c-0.4,0.1-0.7,0.1-0.8-0.3c-0.3,0.1-0.6,0.1-0.8-0.3c-3.7-1.5-5.9-8.2-4.7-13.1
	C393.7,44.1,394.8,42.4,396.4,40.8 M401.2,125.7c0-0.2,0.1-0.3,0.2-0.4C401.3,125.4,401.2,125.5,401.2,125.7z M419.9,140.5
	c-2.6,0.5-5.2,0.6-7.8,0.3c-4.3-0.5-8.1-3.4-9-7.7c-0.1-0.3-0.2-0.6-0.3-0.9c-0.7-2.2-0.5-4.7-0.5-7c0-3.5,0-7,0-10.5
	c0-2.1,0-4.2,0-6.3c0-1.1,0-2.2,0-3.4c-0.1-0.1-0.2-0.2-0.3-0.3c-1.6,0-3.2,0-4.8-0.1c-0.5,0-1.1,0.1-1.1-0.6c0-2.1-0.5-4.4,0.3-6.2
	c0.5-1.1,3-0.4,4.5-0.3c1.3,0,1.5-0.5,1.5-1.6c-0.1-2,0-4.1,0-6.1c3.1-0.9,6.1-2.2,9.4-2.6c1,0.3,0.7,1.1,0.7,1.7c0,2.7,0,5.3,0,8
	c2.7,0,5.4,0,8.1,0c0.6,0,1.4-0.2,1.6,0.8c0,0.4,0,0.7,0,1.1c0,1,0,2.1,0,3.1c0,1,0.1,1.9,0.1,2.9c0,0.1,0,0.3-0.1,0.4
	c-0.1,0.2-0.3,0.2-0.5,0.3c-0.8,0.1-1.5,0.1-2.3,0c-0.7-0.1-1.5,0-2.2,0c-0.4,0-4.6,0-4.6,0c0,4.8,0,9.7,0,14.5c0,1.4,0,2.7,0,4.1
	c0,0.7,0,1.3,0,2c-0.1,1.1,0.2,2.1,0.3,3.2c0.2,3.6,3.8,4.3,6.8,3.7c1.7-0.4,2,0.1,1.9,1.6c0,1.2,0.1,2.4,0.3,3.5
	C421.9,139.5,421.3,140.2,419.9,140.5z M469,121.1c0,0.6-0.1,1.3-0.2,1.9c-0.4,1.5-0.8,3.1-1.3,4.6c-3.1,8.9-11.5,14.2-21.1,13.4
	s-15.5-5.7-18.3-15c-0.6-2-1.2-4.1-1.1-6.3c0.1-2.9,0.1-6.3,1.3-9c0.9-2.1,1.8-4.3,3.3-6.1c0.8-0.9,1.5-2.1,2.4-2.9
	c0.8-0.8,1.8-1.6,2.8-2.1c0.7-0.4,1.2-0.8,1.9-1.1c2.3-0.9,4.6-1.7,7.1-1.9c2.6-0.2,5.1,0.2,7.7,0.5c2.4,0.3,4.6,1.1,6.4,2.4
	c2.7,2,5,4.5,6.5,7.5c0.8,1.5,1.4,3.1,1.8,4.7c0.2,0.8,0.4,1.7,0.5,2.5c0.1,0.9,0,1.8,0.2,2.8s0.1,2.1,0.1,3.1
	C469,120.4,469,120.8,469,121.1z M468.5,57.6c0,0.6,0,1.2-0.2,1.8c-0.3,1-1.5,1-2.3,1c-0.2,0-0.3,0-0.5,0c-2.6,0.2-5.9-1.3-6.4-4.1
	c-0.7-3.8-0.2-8.2-0.1-12c0-1.4-0.3-2.1-1.8-1.8c-0.4,0.1-0.9,0.2-1.2-0.1c-0.5-0.4-0.2-1-0.2-1.6c0-0.7,0-1.3,0.1-1.9
	c0-0.1,0.4-0.3,0.5-0.4c0.2-0.1,0.5-0.1,0.7-0.1c0.1,0,1.4,0.1,1.4,0.1c0-0.9-0.1-2.3,0.5-3.1c0.8-1,2.4-1,3.5-1s0.8,1,0.8,1.8
	c-0.1,0.8-0.1,1.7,0.4,2.3c0.6,0.6,1.4,0.6,2.2,0.6c0.5,0,2.2-0.4,2.5,0.1c0.2,0.4,0.1,1.2,0.1,1.7s0.1,1.4-0.3,1.8
	c-0.6,0.6-1.3,0.3-1.9,0.3c-2.8,0.1-2.5-0.3-2.5,2.6c0,2.5-0.3,4.9-0.1,7.4c0.1,1,0,2.3,0.8,3c0.7,0.6,1.7,0.5,2.6,0.5
	C467.9,56.4,468.5,56.7,468.5,57.6L468.5,57.6z M475,57.6c0-4,0-8.1,0-12.1c0-2.4,0-4.8,0-7.2s0.1-4.8,0.1-7.3
	c0-1.3,0.3-1.7,1.6-1.7c3.1,0.1,3.1,0,3.1,3.2c0,2.9,0,5.7,0,8.8c3.6-3.1,7.3-4.2,11.2-1c0.9,0.7,1.4,2.2,1.8,3.3
	c0.4,1.4,0.6,2.8,0.7,4.3c0,0.6,0,1.2,0.1,1.9c0.1,0.6,0.1,1.1,0.2,1.7c0,0.5,0,1,0,1.5c0,1,0,1.9,0.1,2.9c0.1,0.8-0.1,1.7,0,2.5
	c0,0.3,0.2,0.9,0,1.2c-0.1,0.2-0.5,0.2-0.7,0.3c-1.2,0.3-2.5,0.1-3.7,0.1c-1.4-0.1-0.4-1.4-0.8-2c0.1-3.8,0.3-7.6-0.1-11.4
	c-0.3-2.6-1.4-3.8-3.1-4c-1.1-0.1-2.3-0.1-3.3,0.5c-0.5,0.3-0.8,0.7-1.2,1.1c-0.2,0.3-0.4,0.5-0.5,0.8c-0.6,1.2-0.5,3-0.5,4.4
	c0,1.7,0,3.4,0.1,5.1c0,1.4-0.1,2.8-0.1,4.3c0,0.9-0.2,1.3-1.2,1.2c-0.3,0-0.6,0-0.9,0C475.1,60,475.1,60,475,57.6z M494.5,96.5
	c-0.1-0.2-0.2-0.3-0.3-0.3C494.3,96.2,494.4,96.3,494.5,96.5z M480.6,58.4c-0.2-0.2-0.3-0.6-0.3-1c0-0.2,0-0.4,0-0.5
	c0,0.2,0,0.4,0,0.5C480.4,57.8,480.4,58.2,480.6,58.4z M500.2,100.1c0,1.5,0.1,3,0.1,4.5c0,0.3,0,0.6-0.2,0.9
	c-0.1,0.3-0.4,0.4-0.7,0.4c-0.2,0-0.3-0.1-0.5-0.1c-1.5-0.2-3-0.2-4.5,0c-1.3,0.6-2.7,0.9-3.9,1.7c-0.7,0.5-1.4,1.5-1.9,2.2
	c-0.5,0.6-0.6,1.4-1,2c-0.5,0.7-0.6,1.6-0.8,2.5c-0.3,1.2-0.2,2.3-0.2,3.5c0,3.5,0,7,0,10.5s-0.1,6.9,0,10.4c0,1.3-0.4,1.6-1.6,1.5
	c-2.2-0.1-4.3-0.1-6.5,0c-1.2,0.1-1.6-0.3-1.6-1.5c0.1-4.7,0-9.4,0-14.1c0-6.4,0-12.7,0-19.1c0-2.6,0-5.3-0.1-7.9
	c0-0.2-0.2-0.6,0.2-0.6c2.4,0,4.8,0,7.2,0.1c0.2,0,0.3,0.3,0.5,0.5c0.6,0.7,0.3,1.5,0.4,2.3c0.1,1.8-0.2,3.6,0.5,5.4
	c0.5-0.9,0.9-1.8,1.4-2.6c1.7-2.9,4-5.1,7.4-5.8c1.1-0.2,2.3-0.4,3.5-0.2c0.5,0.1,1.2,0.2,1.6,0.5s0.5,0.8,0.5,1.2
	c0.1,0.4,0.1,0.8,0.1,1.2C500.2,99.7,500.2,99.9,500.2,100.1z M500.1,59.5c-0.6,0-1.1,0-1.7,0C499,59.5,499.5,59.5,500.1,59.5
	c0.1,0,0.3,0,0.4,0C500.4,59.5,500.2,59.5,500.1,59.5z M502.1,40.8c0.1-0.1,0.2-0.2,0.4-0.3c0.2-0.1,0.3-0.3,0.5-0.4
	c3.6-2.4,9.6-2.3,12.4,2c0.4,0.6,0.7,1.2,1,1.8c0.6,1.6,0.8,3.4,0.8,5.1c0.1,1.2-0.3,1.8-1.8,1.8c-4-0.1-7.9,0-11.9,0.1
	c0,0.5-0.1,1-0.1,1.5c0.4,2.7,2.4,4.3,5.6,4.6c1.5,0.1,3,0,4.4-0.5c1.6-0.6,2,0,2.3,1.3c0.3,1.1,0,1.8-1.3,2.1
	c-4.5,1.1-8.8,1.3-12.8-1.6C497.2,53,497.3,46.3,502.1,40.8z M542.1,121.3c-0.1,0.2-0.3,0.3-0.5,0.4c-0.1,0-0.2,0.1-0.4,0.1
	c-1.3,0.2-2.6,0.1-4,0.1c-3.6,0-7.2,0-10.8,0c-0.8,0-1.7,0-2.5,0c-3.5,0-7,0.2-10.4,0c-0.1,0-0.2,0-0.2,0.1c0.1,0.1,0.1,0.2,0.1,0.3
	c0,0.8-0.1,1.5,0.1,2.3c0.3,1.4,0.6,2.7,1.6,3.8c2.1,3.4,5.4,4.9,9.2,5.2c4.2,0.3,8.3,0,12.3-1.4c1.1-0.4,1.5-0.2,1.6,1
	c0.1,1.1,0.4,2.2,0.8,3.2c0.6,1.6,0.2,2.3-1.4,2.8c-6.2,1.9-12.4,2.6-18.7,1.1c-7.7-1.8-12.3-6.8-14.3-14.3
	c-0.1-0.5-0.3-0.9-0.4-1.4c-0.1-1.1-0.4-2.1-0.4-3.2s0-2.1,0-3.2c0.4-3.1,0.9-6.1,1.8-9c0.2-0.6,0.6-1,0.9-1.5
	c0.2-0.5,0.4-1,0.6-1.4c0.4-0.8,0.7-1.5,1.3-2.1c0.5-0.5,1-1.1,1.6-1.6c0.6-0.7,1.3-1.3,1.9-2c0.6-0.6,1.2-0.9,1.9-1.3
	c1.4-0.8,3-1.4,4.5-1.8c3-0.8,6.2-1,9.3-0.4c1.6,0.3,3.2,0.8,4.7,1.4c2.2,0.9,3.8,2.6,5.2,4.4c1.4,2,2.8,4.2,3.5,6.5
	c0.9,2.9,1.8,5.9,1.7,8.9c0,0.6-0.1,1.2-0.2,1.7C542.6,120.4,542.4,121,542.1,121.3z"/>
<g id="DESIGNED_BY_FREEPIK">
</g>
<polygon class="st2" points="260.6,241 259.7,241 259.7,241 260.6,241 "/>
</svg>
