<?xml version="1.0" encoding="utf-8"?>
<!-- Generator: Adobe Illustrator 24.0.0, SVG Export Plug-In . SVG Version: 6.00 Build 0)  -->
<svg version="1.1" id="Layer_1" xmlns="http://www.w3.org/2000/svg" xmlns:xlink="http://www.w3.org/1999/xlink" x="0px" y="0px"
	 viewBox="0 0 602.2 178.5" style="enable-background:new 0 0 602.2 178.5;" xml:space="preserve">
<style type="text/css">
	.st0{fill:none;}
	.st1{fill:#C7C4C3;}
	.st2{fill:#FFFFFF;}
	.st3{display:none;}
	.st4{display:inline;}
	.st5{fill:#E6E6E6;}
	.st6{clip-path:url(#SVGID_2_);fill:#2E2E2E;}
	.st7{opacity:0.25;clip-path:url(#SVGID_4_);fill:url(#SVGID_5_);enable-background:new    ;}
	.st8{fill:#76D1FC;}
	.st9{fill:#FBFBFB;}
	.st10{fill:#DB3D45;}
	.st11{fill:#86EE7C;}
	.st12{fill:#EFC42E;}
	.st13{fill:#A0A0A0;}
</style>
<pattern  x="-33.4" y="204.9" width="10.8" height="10.8" patternUnits="userSpaceOnUse" id="New_Pattern_Swatch_2" viewBox="0 -10.8 10.8 10.8" style="overflow:visible;">
	<g>
		<rect x="0" y="-10.8" class="st0" width="10.8" height="10.8"/>
		<g>
			<rect x="0" y="-10.8" class="st0" width="10.8" height="10.8"/>
			<g>
				<rect x="0" y="-5.4" class="st1" width="5.4" height="5.4"/>
				<rect x="5.4" y="-10.8" class="st1" width="5.4" height="5.4"/>
				<rect x="5.3" y="-5.4" class="st2" width="5.4" height="5.4"/>
				<rect y="-10.8" class="st2" width="5.4" height="5.4"/>
			</g>
		</g>
	</g>
</pattern>
<g id="BACKGROUND" class="st3">
	<g class="st4">
		<g>
			<rect id="XMLID_1_" x="-44.2" y="-45.2" class="st5" width="750" height="500"/>
		</g>
		<g>
			<defs>
				<rect id="SVGID_1_" x="-44.2" y="-45.2" width="750" height="500"/>
			</defs>
			<clipPath id="SVGID_2_">
				<use xlink:href="#SVGID_1_"  style="overflow:visible;"/>
			</clipPath>
			<rect x="-58.2" y="-72.3" class="st6" width="777.9" height="554.3"/>
		</g>
		<g>
			<defs>
				<rect id="SVGID_3_" x="-44.2" y="-45.2" width="750" height="500"/>
			</defs>
			<clipPath id="SVGID_4_">
				<use xlink:href="#SVGID_3_"  style="overflow:visible;"/>
			</clipPath>
			<pattern  id="SVGID_5_" xlink:href="#New_Pattern_Swatch_2" patternTransform="matrix(1 0 0 -1 -37.2 -15765.7412)">
			</pattern>
			<rect x="-63.9" y="-70.4" class="st7" width="789.4" height="550.5"/>
		</g>
	</g>
</g>
<g id="OBJECTS">
	<path d="M301,173.7c-92,0-184.1,0-276.1,0c-8.2,0-14-3.7-17.5-11.1c-1-2.2-1.5-4.5-1.5-6.9c0-43.9,0-87.9,0-131.8
		C5.9,14,14,6,24,5.8c0.3,0,0.6,0,0.9,0c184.1,0,368.3,0,552.4,0c8.9,0,16.2,5.4,18.4,13.5c0.5,1.8,0.6,3.5,0.6,5.4
		c0,43.4,0,86.8,0,130.1c0,11-7.9,18.9-18.9,18.9C485.3,173.7,393.2,173.7,301,173.7z M122.3,71.3c-0.3-0.2-0.6-0.4-0.9-0.6
		C104.7,61.3,88,51.9,71.3,42.5c-4.8-2.7-9.6-5.4-14.5-8c-3.3-1.7-5.9-1.4-8.2,0.8c-1.8,1.7-2.1,4-2.1,6.3c0,20.4,0,40.8,0,61.2
		c0,11.8,0,23.6,0,35.5c0,2.3,0.3,4.5,2.1,6.1c0.6,0.9,1.5,1.3,2.4,1.6c2.5,0.7,4.7-0.1,6.8-1.3c8.3-4.7,16.7-9.4,25-14
		c13.2-7.5,26.5-14.9,39.7-22.4c7.3-4.1,14.7-8.2,22-12.3c1-0.6,2-1.3,2.7-2.2c2.1-2.5,2-5.5-0.2-7.9c-0.8-0.9-1.7-1.6-2.8-2.2
		c-4.3-2.4-8.6-4.7-12.9-7.1C128.4,74.7,125.3,73,122.3,71.3z M232.7,111.2c-1,7.2-4,10.7-8.7,13c-7.7,3.9-15.4,3.7-22.5-1.4
		c-7-5-9.8-12.1-8.4-20.7c2.3-14,18-21.6,30.5-14.9c1.7,0.9,3,3.3,4.8,2.7c1.7-0.6,2.8-2.7,4.3-4c1-0.9,0.8-1.3-0.1-2.1
		c-9.7-8.2-23.4-9.3-34.4-2.8c-14.5,8.7-18.9,26.7-9.5,40.5c7.3,10.7,17.8,14.8,30.5,12.8c13.7-2.1,23.5-13.5,21.6-29.9
		c-0.1-0.9-0.4-1.3-1.4-1.3c-8.2,0-16.4,0-24.7,0c-0.9,0-1.2,0.3-1.2,1.2c0.1,1.7,0.1,3.4,0,5c-0.1,1.4,0.2,1.9,1.8,1.9
		C221.2,111.1,226.9,111.2,232.7,111.2z M354.5,101.5c-3.3-2.8-6.2-4.1-9.5-4.1c-7.3,0-12.8,3.3-16.3,9.6c-3.6,6.4-3.4,13,0.6,19.2
		c4.5,7.1,13.1,10.2,20.2,7.6c1.9-0.7,3.4-2,5.1-3.4c-0.1,1.8-0.1,3.3-0.3,4.7c-0.5,3.9-2.2,7-6.2,8.2c-4.2,1.3-7.8,0.4-10.9-2.7
		c-1-1-1-3.1-2.7-3.1c-1.5,0.1-2.9,1-4.3,1.6c-0.3,0.1-0.6,0.3-0.9,0.4c-1.6,0.4-1.5,1.2-0.8,2.5c4.1,7.3,12.5,10.8,21.1,8.8
		c7.6-1.9,12.6-8.2,12.7-16.5c0.1-10.3,0.1-20.5,0.1-30.8c0-1.7,0.7-3.9-0.3-4.8c-1-0.8-3.2-0.3-4.8-0.3
		C354.5,98.5,354.5,98.5,354.5,101.5z M433.2,106c0,8.7,0,17.4,0,26.1c0,1.2,0.3,1.7,1.5,1.6c1.7-0.1,3.5-0.1,5.2,0
		c1.4,0.1,1.8-0.3,1.8-1.7c-0.1-5.5,0-11.1-0.1-16.6c0-1.9,0.3-2.5,2.3-2.5c4.2,0.1,8.3,0.4,12.5-0.2c10.3-1.5,16.9-11.2,14.4-21.1
		c-1.9-7.3-9.3-12.7-17.5-12.8c-6.2,0-12.3,0-18.5,0c-1.3,0-1.7,0.4-1.6,1.7C433.2,88.9,433.2,97.4,433.2,106z M513.1,129.4
		c0,1.1,0.1,1.8,0,2.5c-0.2,1.3,0.2,1.8,1.6,1.7c1.7-0.1,3.5-0.1,5.2,0c1.1,0.1,1.3-0.3,1.3-1.4c0-6.9,0.1-13.8-0.1-20.7
		c-0.1-4-1.6-7.5-4.7-10.1c-4.5-3.8-9.8-4.6-15.4-3.8c-4.6,0.7-8.4,2.8-10.9,6.9c-0.5,0.8-0.6,1.3,0.5,1.7c1.8,0.6,3.5,1.5,5.3,2.2
		c0.5,0.2,1,0.6,1.4-0.2c2.3-4.1,9.5-4.6,13.4-1.3c1.6,1.3,2.4,2.9,2.3,5c-0.2,0-0.2,0-0.3,0c-0.5-0.2-1-0.4-1.6-0.6
		c-5.9-2.1-11.6-1.6-17,1.6c-6.9,4.2-7.6,13-1.5,18.3C498.5,136.4,507.6,135.7,513.1,129.4z M322.9,116.1c0-10.6-8.1-18.7-18.8-18.7
		c-10.8,0-19.2,8.2-19.1,18.8c0.1,10.5,8.3,18.6,18.9,18.6C314.7,134.8,322.9,126.7,322.9,116.1z M262.6,134.8
		c10.5,0.1,19-7.9,19.1-18.2c0.1-10.5-7.9-19-18.2-19.1c-11.1-0.2-19.6,7.7-19.7,18.4C243.7,127.4,252.8,134.8,262.6,134.8z
		 M390.2,121.8c7.4-3,14.8-6,22.1-9.1c3-1.2,3-1.3,1.7-4.3c-4-9.1-13.1-13.2-22.2-9.8c-7.1,2.6-11.4,9.5-11.4,18.1
		c0,7.8,5.3,14.8,12.8,17.2c7.7,2.4,16.7-0.4,21.1-6.5c0.5-0.7,0.6-1.1-0.2-1.6c-1.4-0.8-2.8-1.7-4-2.7c-1.2-0.9-1.8-0.8-2.8,0.4
		C402.2,129.4,393.4,128.4,390.2,121.8z M521.7,98.5c0.2,0.6,0.4,1,0.6,1.5c4.5,10.1,9,20.2,13.5,30.3c0.4,1,0.5,1.8,0,2.8
		c-1.6,3.3-3.1,6.7-4.7,10.1c-1,2.3-2.1,4.6-3.2,7c2.6,0,4.9-0.1,7.2,0c1.2,0,1.7-0.3,2.2-1.4c5.9-13.4,11.8-26.8,17.7-40.2
		c1.5-3.3,2.9-6.6,4.4-10.1c-2.8,0-5.4,0.1-7.9,0c-1.2,0-1.6,0.4-2,1.4c-2.5,6.3-5,12.5-7.5,18.8c-0.5,1.2-0.8,2.4-1.7,3.5
		c-3.1-7.5-6.2-15-9.2-22.4c-0.3-0.7-0.5-1.3-1.5-1.3C527.1,98.6,524.5,98.5,521.7,98.5z M484.2,106.3c0-8.6,0-17.3,0-25.9
		c0-1.3-0.4-1.7-1.7-1.6c-1.7,0.1-3.5,0.1-5.2,0c-1.4-0.1-1.6,0.4-1.6,1.7c0.1,9.2,0,18.4,0,27.6c0,8,0,15.9,0,23.9
		c0,1.4,0.4,1.8,1.8,1.7c1.7-0.1,3.4-0.1,5,0c1.4,0.1,1.7-0.4,1.7-1.7C484.2,123.4,484.2,114.9,484.2,106.3z M368.1,105.9
		c0,8.7,0,17.4,0,26.1c0,1.2,0.2,1.7,1.5,1.6c1.9-0.1,3.7-0.1,5.6,0c1,0,1.4-0.2,1.4-1.3c0-17.4,0-34.8,0-52.3
		c0-1.1-0.4-1.3-1.4-1.3c-1.8,0.1-3.6,0.1-5.4,0c-1.3-0.1-1.7,0.3-1.7,1.6C368.1,88.9,368.1,97.4,368.1,105.9z M340.4,38.8
		c0.1,0,0.2-0.1,0.4-0.1c2.3,3.6,4.5,7.1,6.8,10.7c1.9,3,3.8,6.1,5.8,9.1c1,1.6,2.5,0.7,3.7,0.7c1.1,0,0.5-1.2,0.5-1.8
		c0-7.7,0-15.3,0.1-23c0-1.6-0.6-1.7-1.9-1.6c-1.1,0-1.9-0.1-1.9,1.6C354,39.9,354,45.5,354,51c0,0.5,0.2,1.1-0.2,1.6
		c-3.7-5.8-7.5-11.5-10.9-17.4c-1.3-2.2-2.7-2.6-4.9-2.4c-0.8,0.1-1,0.4-1,1.1c0,8.1,0,16.2,0,24.3c0,0.5-0.1,0.9,0.6,1.1
		c2.2,0.5,3,0,3-2.3C340.4,50.9,340.4,44.9,340.4,38.8z M205.7,45c-1.8,0-3.6,0.1-5.4,0c-1.6-0.1-1.2,1-1.3,1.8
		c0,0.9-0.1,1.7,1.3,1.6c2.2-0.1,4.5,0.1,6.7-0.1c1.8-0.1,1.7,0.6,1.3,1.9c-1.2,3.9-4.8,6.2-9.6,6c-4.5-0.2-8.2-3-9.3-7.2
		c-1.3-4.8,0.3-9.4,4.3-11.9c3.7-2.4,8.6-2.1,11.9,0.8c1.6,1.4,1.7-0.5,2.5-0.9c1-0.5,0.5-1.1-0.1-1.7c-3.7-3.5-10.8-4.3-15.5-1.6
		c-5.6,3.1-8.4,9.2-7,15.3c1.4,6.2,6.6,10.5,13,10.8c8,0.4,14.2-5.6,13.8-13.4c-0.1-1.1-0.4-1.6-1.6-1.6
		C209.1,45.1,207.4,45,205.7,45z M332.2,46.1c0-7.9-5.8-13.7-13.7-13.9c-7.5-0.1-13.9,5.7-13.9,13.9c0,7.8,6.1,13.8,13.8,13.8
		C326.3,60,332.2,53.9,332.2,46.1z M217,46.1c0,3.9,0,7.8,0,11.8c0,1.2,0.3,1.5,1.5,1.4c4.3-0.1,8.6-0.1,12.9,0
		c1.5,0,1.4-0.7,1.5-1.8c0.1-1.3-0.2-1.7-1.6-1.7c-3.1,0.1-6.2,0-9.3,0.1c-0.9,0-1.2-0.2-1.2-1.1c0.1-1.9,0.1-3.9,0-5.8
		c0-1,0.3-1.3,1.3-1.2c2.8,0.1,5.6-0.1,8.4,0c1.6,0.1,1.2-1,1.2-1.9s0.2-1.7-1.2-1.6c-2.8,0.1-5.6,0-8.4,0.1c-0.9,0-1.3-0.2-1.3-1.2
		c0.1-1.9,0.1-3.7,0-5.6c-0.1-1.1,0.4-1.3,1.4-1.3c3.1,0.1,6.2-0.1,9.3,0.1c1.7,0.1,1.3-1,1.4-1.9c0.1-1,0-1.7-1.4-1.7
		c-4.3,0.1-8.6,0.1-12.9,0c-1.3,0-1.5,0.4-1.5,1.6C217.1,38.3,217,42.2,217,46.1z M243.6,47.9c0,3.2,0,6.3,0,9.5
		c0,1.3,0.1,2,1.7,1.9c1.4-0.1,2.1-0.2,2-1.9c-0.1-6.5,0-13.1-0.1-19.6c0-1.3,0.4-1.7,1.7-1.6c1.5,0.1,3.1,0,4.7,0
		c1.6,0.1,1.1-1,1.1-1.8s0.4-1.8-1.1-1.7c-5.4,0.1-10.8,0.1-16.2,0c-1.7,0-1,1.1-1.1,1.9c-0.1,0.9-0.2,1.7,1.2,1.6
		c1.6-0.1,3.2,0,4.8,0c1.1-0.1,1.4,0.3,1.4,1.4C243.5,41,243.6,44.5,243.6,47.9z M286.3,47.8c0-3.4,0-6.7,0-10.1
		c0-1.1,0.2-1.6,1.4-1.5c1.7,0.1,3.4,0,5,0s0.9-1.2,1-1.9c0-0.7,0.4-1.7-1-1.6c-5.5,0-10.9,0-16.4,0c-0.4,0-0.8-0.1-1.1,0.5
		c-0.7,1.8,0.1,3,2.1,3c1,0,2,0.1,3,0c1.8-0.2,2.4,0.3,2.4,2.3c-0.2,6.5,0,12.9-0.1,19.4c0,1.7,1,1.3,1.9,1.4c1,0,1.9,0.3,1.9-1.4
		C286.3,54.5,286.3,51.2,286.3,47.8z M267.6,46c0,3.9,0.1,7.8,0,11.8c0,1.5,0.6,1.6,1.8,1.5c1-0.1,2,0.4,2-1.5
		c-0.1-7.8-0.1-15.7,0-23.5c0-1.5-0.6-1.6-1.8-1.5c-1,0.1-2.1-0.4-2,1.5C267.7,38.2,267.6,42.1,267.6,46z"/>
	<path class="st8" d="M48.5,144.4c-1.8-1.6-2.1-3.8-2.1-6.1c0-11.8,0-23.6,0-35.5c0-20.4,0-40.8,0-61.2c0-2.3,0.3-4.6,2.1-6.3
		c1.9,2.1,4.1,4,6.1,6c12.8,12.7,25.7,25.3,38.5,38c0.8,0.8,1.4,1.8,2.2,2.5c3,2.4,5.6,5.3,8.3,8c-8.8,8.7-17.6,17.4-26.4,26.1
		C67.6,125.4,58.1,134.9,48.5,144.4z"/>
	<path class="st9" d="M232.7,111.2c-5.8,0-11.6-0.1-17.3,0c-1.5,0-1.9-0.5-1.8-1.9c0.1-1.7,0.1-3.4,0-5c0-0.9,0.2-1.2,1.2-1.2
		c8.2,0,16.4,0,24.7,0c1,0,1.3,0.3,1.4,1.3c1.9,16.4-7.9,27.8-21.6,29.9c-12.7,2-23.2-2.2-30.5-12.8c-9.4-13.7-5-31.8,9.5-40.5
		c10.9-6.5,24.7-5.4,34.4,2.8c0.9,0.8,1.1,1.2,0.1,2.1c-1.5,1.3-2.6,3.4-4.3,4c-1.9,0.7-3.1-1.8-4.8-2.7
		c-12.6-6.7-28.3,0.9-30.5,14.9c-1.4,8.5,1.4,15.7,8.4,20.7c7.1,5.1,14.8,5.3,22.5,1.4C228.7,121.8,231.7,118.4,232.7,111.2z"/>
	<path class="st10" d="M48.5,144.4c9.5-9.5,19.1-18.9,28.6-28.4c8.8-8.7,17.6-17.4,26.4-26.1h0.2h0.2c6,6.4,12.4,12.3,18.6,18.4
		c-13.2,7.5-26.5,14.9-39.7,22.4c-8.3,4.7-16.7,9.4-25,14c-2.1,1.2-4.3,2-6.8,1.3C50,145.6,49.1,145.3,48.5,144.4z"/>
	<path class="st11" d="M103.9,89.8h-0.2h-0.2c-2.7-2.8-5.3-5.6-8.3-8c-0.8-0.7-1.4-1.7-2.2-2.5c-12.8-12.7-25.6-25.4-38.5-38
		c-2-2-4.2-3.9-6.1-6c2.3-2.1,5-2.5,8.2-0.8c4.9,2.6,9.7,5.3,14.5,8c16.7,9.4,33.4,18.8,50.1,28.2c0.3,0.2,0.6,0.4,0.9,0.6
		c-0.6,0.7-1.3,1.4-1.9,2C114.9,78.8,109.4,84.3,103.9,89.8z"/>
	<path class="st9" d="M354.5,101.5c0-3,0-3,2.8-3c1.7,0,3.9-0.5,4.8,0.3c1,0.9,0.3,3.1,0.3,4.8c0,10.3,0.1,20.5-0.1,30.8
		c-0.1,8.3-5.1,14.6-12.7,16.5c-8.6,2.1-17-1.4-21.1-8.8c-0.7-1.2-0.8-2.1,0.8-2.5c0.3-0.1,0.6-0.2,0.9-0.4c1.4-0.6,2.9-1.6,4.3-1.6
		c1.6-0.1,1.7,2.1,2.7,3.1c3.1,3.1,6.8,4,10.9,2.7c4-1.2,5.8-4.3,6.2-8.2c0.2-1.5,0.2-3,0.3-4.7c-1.7,1.4-3.2,2.7-5.1,3.4
		c-7.1,2.6-15.7-0.6-20.2-7.6c-3.9-6.2-4.2-12.8-0.6-19.2c3.5-6.3,9-9.6,16.3-9.6C348.3,97.4,351.2,98.7,354.5,101.5z M334.8,116.1
		c0,4.8,2.5,8.8,6.4,10.4c3.8,1.6,8.1,0.8,10.8-2.1c4.3-4.5,4.2-12.7-0.4-17c-2.2-2-4.8-3-7.8-2.4
		C338.1,106.1,334.8,110.3,334.8,116.1z"/>
	<path class="st9" d="M433.2,106c0-8.5,0-17,0-25.6c0-1.3,0.3-1.7,1.6-1.7c6.2,0.1,12.3,0,18.5,0c8.3,0.1,15.6,5.5,17.5,12.8
		c2.6,9.9-4,19.6-14.4,21.1c-4.1,0.6-8.3,0.3-12.5,0.2c-2,0-2.4,0.6-2.3,2.5c0.1,5.5,0,11.1,0.1,16.6c0,1.4-0.4,1.8-1.8,1.7
		c-1.7-0.1-3.5-0.1-5.2,0c-1.3,0.1-1.5-0.4-1.5-1.6C433.2,123.4,433.2,114.7,433.2,106z M441.6,95.9c0,2.7,0,5.5,0,8.2
		c0,0.8,0.2,1.2,1.1,1.2c3.7-0.1,7.5,0.1,11.2-0.1c4.7-0.2,8.7-4.1,9.1-8.7c0.3-4.4-2.9-8.7-7.6-9.6c-4.3-0.8-8.7-0.1-13-0.3
		c-0.9,0-0.7,0.6-0.7,1.1C441.6,90.4,441.6,93.1,441.6,95.9z"/>
	<path class="st12" d="M103.9,89.8c5.5-5.5,11-11,16.5-16.5c0.7-0.7,1.3-1.3,1.9-2c3,1.7,6.1,3.4,9.1,5.1c4.3,2.4,8.6,4.8,12.9,7.1
		c1,0.6,1.9,1.3,2.8,2.2c2.2,2.4,2.3,5.4,0.2,7.9c-0.8,0.9-1.7,1.7-2.7,2.2c-7.3,4.1-14.7,8.2-22,12.3
		C116.3,102.1,109.9,96.2,103.9,89.8z"/>
	<path class="st9" d="M513.1,129.4c-5.6,6.3-14.6,7-20.4,1.9c-6.1-5.3-5.4-14.1,1.5-18.3c5.4-3.2,11.1-3.7,17-1.6
		c0.5,0.2,1,0.4,1.6,0.6c0.1,0,0.1,0,0.3,0c0.1-2.1-0.7-3.7-2.3-5c-3.9-3.3-11.1-2.8-13.4,1.3c-0.4,0.8-0.9,0.4-1.4,0.2
		c-1.8-0.7-3.5-1.5-5.3-2.2c-1.1-0.4-1-0.9-0.5-1.7c2.5-4.1,6.3-6.2,10.9-6.9c5.6-0.8,10.9,0,15.4,3.8c3.1,2.6,4.6,6.1,4.7,10.1
		c0.1,6.9,0,13.8,0.1,20.7c0,1-0.2,1.4-1.3,1.4c-1.7-0.1-3.5-0.1-5.2,0c-1.4,0.1-1.8-0.4-1.6-1.7
		C513.2,131.2,513.1,130.5,513.1,129.4z M505.9,117c-2.2,0-4.3,0.3-6.3,1.4c-1.8,1-2.9,2.6-2.7,4.7c0.2,2.1,1.8,3.2,3.6,3.8
		c5.2,1.7,11-1.7,12.3-7c0.2-1-0.1-1.3-0.9-1.7C510.1,117.4,508.1,117,505.9,117z"/>
	<path class="st9" d="M322.9,116.1c0,10.6-8.2,18.7-19,18.7c-10.7,0-18.8-8-18.9-18.6s8.3-18.8,19.1-18.8
		C314.8,97.4,322.9,105.5,322.9,116.1z M303.9,127.3c6,0,10.7-4.9,10.7-11.2c0-6.2-4.7-11.2-10.5-11.2c-5.9-0.1-10.7,5-10.7,11.3
		C293.4,122.3,298,127.3,303.9,127.3z"/>
	<path class="st9" d="M262.6,134.8c-9.8,0-18.9-7.4-18.8-18.9c0.1-10.7,8.6-18.6,19.7-18.4c10.3,0.1,18.4,8.6,18.2,19.1
		C281.6,126.9,273.1,134.9,262.6,134.8z M273.3,116.1c0-6.4-4.5-11.2-10.4-11.3s-10.6,4.9-10.6,11.3c0,6.3,4.6,11.1,10.5,11.1
		C268.8,127.3,273.3,122.5,273.3,116.1z"/>
	<path class="st9" d="M390.2,121.8c3.2,6.6,12.1,7.6,17.1,1.8c1-1.2,1.6-1.3,2.8-0.4c1.3,1,2.6,1.9,4,2.7c0.8,0.5,0.7,0.9,0.2,1.6
		c-4.4,6.1-13.4,8.9-21.1,6.5c-7.5-2.4-12.7-9.4-12.8-17.2c-0.1-8.6,4.3-15.5,11.4-18.1c9.1-3.4,18.3,0.7,22.2,9.8
		c1.3,3,1.3,3-1.7,4.3C405,115.7,397.6,118.7,390.2,121.8z M388.7,115.4c5-2.1,9.9-4.1,14.7-6c0.3-0.1,0.7-0.3,1-0.4
		c1-0.3,0.9-0.7,0.4-1.4c-1.4-1.7-3.2-2.6-5.3-2.7C393.6,104.4,389,108.8,388.7,115.4z"/>
	<path class="st9" d="M521.7,98.5c2.8,0,5.4,0.1,8,0c1,0,1.2,0.6,1.5,1.3c3.1,7.4,6.1,14.9,9.2,22.4c0.9-1.1,1.2-2.4,1.7-3.5
		c2.5-6.2,5-12.5,7.5-18.8c0.4-1,0.8-1.4,2-1.4c2.5,0.1,5.1,0,7.9,0c-1.5,3.5-3,6.8-4.4,10.1c-5.9,13.4-11.9,26.8-17.7,40.2
		c-0.5,1.1-1,1.5-2.2,1.4c-2.3-0.1-4.6,0-7.2,0c1.1-2.5,2.1-4.8,3.2-7c1.5-3.4,3.1-6.8,4.7-10.1c0.5-1,0.4-1.8,0-2.8
		c-4.5-10.1-9-20.2-13.5-30.3C522.1,99.5,522,99.1,521.7,98.5z"/>
	<path class="st9" d="M484.2,106.3c0,8.5,0,17,0,25.6c0,1.4-0.3,1.9-1.7,1.7c-1.7-0.1-3.4-0.1-5,0c-1.4,0.1-1.8-0.3-1.8-1.7
		c0.1-8,0-15.9,0-23.9c0-9.2,0-18.4,0-27.6c0-1.3,0.3-1.8,1.6-1.7c1.7,0.1,3.5,0.1,5.2,0c1.3-0.1,1.7,0.3,1.7,1.6
		C484.2,89,484.2,97.7,484.2,106.3z"/>
	<path class="st9" d="M368.1,105.9c0-8.5,0-17,0-25.6c0-1.3,0.3-1.7,1.7-1.6c1.8,0.1,3.6,0.1,5.4,0c1,0,1.4,0.2,1.4,1.3
		c0,17.4,0,34.8,0,52.3c0,1.1-0.4,1.4-1.4,1.3c-1.9-0.1-3.7-0.1-5.6,0c-1.3,0.1-1.5-0.4-1.5-1.6
		C368.1,123.4,368.1,114.7,368.1,105.9z"/>
	<path class="st9" d="M340.4,38.8c0,6.1,0,12.1,0,18.2c0,2.2-0.8,2.8-3,2.3c-0.7-0.2-0.6-0.7-0.6-1.1c0-8.1,0-16.2,0-24.3
		c0-0.8,0.2-1,1-1.1c2.2-0.2,3.7,0.3,4.9,2.4c3.4,5.9,7.2,11.5,10.9,17.4c0.5-0.5,0.2-1.1,0.2-1.6c0-5.5,0.1-11.1-0.1-16.6
		c0-1.7,0.8-1.5,1.9-1.6c1.2,0,1.9,0,1.9,1.6c-0.1,7.7,0,15.3-0.1,23c0,0.6,0.6,1.8-0.5,1.8c-1.2,0-2.7,0.9-3.7-0.7
		c-1.9-3-3.8-6.1-5.8-9.1c-2.3-3.6-4.5-7.1-6.8-10.7C340.7,38.7,340.5,38.7,340.4,38.8z"/>
	<path class="st9" d="M205.7,45c1.7,0,3.4,0.1,5,0c1.3-0.1,1.6,0.4,1.6,1.6c0.4,7.8-5.7,13.8-13.8,13.4c-6.4-0.3-11.6-4.6-13-10.8
		c-1.4-6.1,1.4-12.2,7-15.3c4.7-2.6,11.9-1.9,15.5,1.6c0.6,0.6,1.1,1.1,0.1,1.7c-0.8,0.4-0.9,2.4-2.5,0.9c-3.3-2.9-8.2-3.2-11.9-0.8
		c-4,2.5-5.6,7.1-4.3,11.9c1.1,4.2,4.8,7,9.3,7.2c4.8,0.2,8.4-2.1,9.6-6c0.4-1.3,0.5-2.1-1.3-1.9c-2.2,0.1-4.5-0.1-6.7,0.1
		c-1.4,0.1-1.3-0.7-1.3-1.6s-0.3-1.9,1.3-1.8C202.1,45.1,203.9,45,205.7,45z"/>
	<path class="st9" d="M332.2,46.1c0,7.8-6,13.8-13.7,13.8s-13.9-6.1-13.8-13.8c0-8.2,6.4-14,13.9-13.9
		C326.4,32.4,332.2,38.2,332.2,46.1z M328.5,46c0-6-4.2-10.3-10.1-10.3c-5.7,0-10,4.3-10,10.3s4.2,10.4,10,10.4
		C324.3,56.4,328.5,52.1,328.5,46z"/>
	<path class="st9" d="M217,46.1c0-3.9,0-7.8,0-11.8c0-1.2,0.2-1.6,1.5-1.6c4.3,0.1,8.6,0.1,12.9,0c1.4,0,1.5,0.6,1.4,1.7
		c-0.1,0.9,0.4,2-1.4,1.9c-3.1-0.1-6.2,0-9.3-0.1c-1,0-1.4,0.2-1.4,1.3c0.1,1.9,0.1,3.7,0,5.6c0,1,0.3,1.2,1.3,1.2
		c2.8-0.1,5.6,0.1,8.4-0.1c1.5-0.1,1.3,0.8,1.2,1.6c0,0.8,0.4,1.9-1.2,1.9c-2.8-0.1-5.6,0-8.4,0c-1,0-1.3,0.2-1.3,1.2
		c0.1,1.9,0.1,3.9,0,5.8c0,0.9,0.3,1.1,1.2,1.1c3.1,0,6.2,0.1,9.3-0.1c1.4,0,1.7,0.4,1.6,1.7c-0.1,1.1,0,1.8-1.5,1.8
		c-4.3-0.1-8.6-0.1-12.9,0c-1.1,0-1.5-0.3-1.5-1.4C217.1,53.9,217,50,217,46.1z"/>
	<path class="st9" d="M243.6,47.9c0-3.4,0-6.8,0-10.3c0-1-0.3-1.4-1.4-1.4c-1.6,0.1-3.2-0.1-4.8,0c-1.4,0.1-1.4-0.7-1.2-1.6
		c0.1-0.8-0.6-1.9,1.1-1.9c5.4,0.1,10.8,0.1,16.2,0c1.5,0,1.1,1,1.1,1.7s0.5,1.9-1.1,1.8s-3.1,0.1-4.7,0c-1.3-0.1-1.7,0.3-1.7,1.6
		c0.1,6.5,0,13.1,0.1,19.6c0,1.7-0.6,1.8-2,1.9c-1.6,0.1-1.8-0.6-1.7-1.9C243.6,54.2,243.6,51.1,243.6,47.9z"/>
	<path class="st9" d="M286.3,47.8c0,3.4-0.1,6.7,0,10.1c0.1,1.6-0.9,1.4-1.9,1.4c-0.9,0-1.9,0.3-1.9-1.4c0.1-6.5-0.1-12.9,0.1-19.4
		c0-2-0.6-2.5-2.4-2.3c-1,0.1-2,0-3,0c-1.9,0-2.7-1.2-2.1-3c0.2-0.6,0.7-0.5,1.1-0.5c5.5,0,10.9,0,16.4,0c1.4,0,1,1,1,1.6
		c-0.1,0.7,0.6,1.9-1,1.9c-1.7,0-3.4,0.1-5,0c-1.2-0.1-1.5,0.4-1.4,1.5C286.4,41.1,286.3,44.4,286.3,47.8z"/>
	<path class="st9" d="M267.6,46c0-3.9,0.1-7.8,0-11.8c-0.1-1.8,1-1.4,2-1.5c1.2-0.1,1.8,0.1,1.8,1.5c-0.1,7.8-0.1,15.7,0,23.5
		c0,1.8-1,1.4-2,1.5c-1.1,0.1-1.8,0-1.8-1.5C267.7,53.8,267.6,49.9,267.6,46z"/>
	<path d="M334.8,116.1c0-5.8,3.4-10,9-11.1c3-0.6,5.6,0.4,7.8,2.4c4.6,4.3,4.8,12.5,0.4,17c-2.7,2.8-7,3.6-10.8,2.1
		C337.2,124.9,334.8,120.8,334.8,116.1z"/>
	<path d="M441.6,95.9c0-2.7,0-5.5,0-8.2c0-0.5-0.2-1.2,0.7-1.1c4.3,0.2,8.7-0.5,13,0.3c4.7,0.9,7.9,5.2,7.6,9.6
		c-0.4,4.6-4.3,8.6-9.1,8.7c-3.7,0.1-7.5,0-11.2,0.1c-1,0-1.1-0.3-1.1-1.2C441.7,101.3,441.6,98.6,441.6,95.9z"/>
	<path d="M505.9,117c2.1,0,4.2,0.4,6.1,1.3c0.8,0.4,1.1,0.7,0.9,1.7c-1.3,5.3-7.2,8.6-12.3,7c-1.9-0.6-3.4-1.6-3.6-3.8
		c-0.2-2.1,0.8-3.7,2.7-4.7C501.6,117.2,503.7,117,505.9,117z"/>
	<path d="M303.9,127.3c-5.9,0-10.6-5-10.5-11.2c0-6.3,4.8-11.3,10.7-11.3c5.8,0.1,10.5,5,10.5,11.2
		C314.6,122.4,309.9,127.3,303.9,127.3z"/>
	<path d="M273.3,116.1c0,6.4-4.5,11.2-10.5,11.2s-10.5-4.8-10.5-11.1c0-6.4,4.7-11.4,10.6-11.3C268.8,104.9,273.3,109.8,273.3,116.1
		z"/>
	<path d="M388.7,115.4c0.3-6.7,4.9-11.1,10.8-10.6c2.1,0.2,3.9,1,5.3,2.7c0.6,0.7,0.6,1.2-0.4,1.4c-0.4,0.1-0.7,0.3-1,0.4
		C398.6,111.4,393.7,113.4,388.7,115.4z"/>
	<path d="M328.5,46c0,6-4.2,10.4-10.1,10.3c-5.8,0-10-4.4-10-10.4c0-5.9,4.3-10.3,10-10.3C324.3,35.7,328.5,40,328.5,46z"/>
	<path class="st13" d="M577.1,2.2c-2.4-0.2-4.8-0.4-7.2-0.5H83.7C64.2,2,44.7,2.2,25.3,2.2c-3.1,0-6,0.5-8.9,1.5
		C8.6,6.3,2.3,14.9,2.3,22.9c0,44.3,0,88.5,0,132.8c0,1.6,0,3.1,0.4,4.6c2.2,10,11.4,17,20.4,17c185.4,0,370.8,0,556.2,0
		c6.6,0,11.8-3,16-7.9c2.5-2.9,3.8-6.4,4.9-10c0-46.3,0-92.6,0-138.9c-0.7-2.2-1.2-4.5-2.4-6.5C593,6.1,586.3,2.1,577.1,2.2z
		 M596.4,154.8c0,11-7.9,18.9-18.9,18.9c-92.2,0-184.3,0-276.5,0c-92,0-184.1,0-276.1,0c-8.2,0-14-3.7-17.5-11.1
		c-1-2.2-1.5-4.5-1.5-6.9c0-43.9,0-87.9,0-131.8C5.9,14,14,6,24,5.8c0.3,0,0.6,0,0.9,0c184.1,0,368.3,0,552.4,0
		c8.9,0,16.2,5.4,18.4,13.5c0.5,1.8,0.6,3.5,0.6,5.4C596.4,68.1,596.4,111.4,596.4,154.8z"/>
</g>
<g id="DESIGNED_BY_FREEPIK">
</g>
</svg>
