<?xml version="1.0" encoding="utf-8"?>
<!-- Generator: Adobe Illustrator 24.0.0, SVG Export Plug-In . SVG Version: 6.00 Build 0)  -->
<svg version="1.1" id="Layer_1" xmlns="http://www.w3.org/2000/svg" xmlns:xlink="http://www.w3.org/1999/xlink" x="0px" y="0px"
	 viewBox="0 0 475 113" style="enable-background:new 0 0 475 113;" xml:space="preserve">
<style type="text/css">
	.st0{fill:#FFFFFF;}
</style>
<path class="st0" d="M356.4,101.6c-0.9-0.3-0.9-0.3-0.9-1.4c0-0.8,0-0.8,0.7-0.5c1.1,0.4,2-0.1,2.4-1.2c0.2-0.5,0.2-1,0.2-1.6
	c0-2.7,0-5.3,0-8c0-0.5,0.2-0.7,0.7-0.7c1.4,0,1.3-0.1,1.2,1.2c0,2.7,0.1,5.4-0.1,8.1c-0.1,1.9-1.2,3.3-2.7,3.8
	c-0.2,0.1-0.4,0-0.5,0.2C357.1,101.6,356.7,101.6,356.4,101.6z"/>
<path class="st0" d="M98.3,29.2c-1.2-5.7-4.4-10.1-9.2-13.2c-3.4-2.2-7.2-3.2-11.3-3.3c-8-0.1-16-0.2-24-0.3c-7-0.1-14-0.2-21-0.3
	V12c-0.8,0-1.7,0-2.5,0c-0.9,0-1.8,0-2.8,0c-0.3,0-0.7,0-1,0c-2.2,0.3-4.4,0.8-6.5,1.7c-4.2,1.8-7.4,4.6-9.8,8.5
	c-1.9,3.2-2.7,6.6-2.8,10.2C7.3,43.8,7.2,55.2,7,66.5c0,1.9,0,3.9-0.1,5.8H6.8c0,1.2,0,2.4,0,3.6s0,2.5,0,3.7c0,0.8,0,1.5,0,2.3
	C7,82.2,7,82.3,7,82.4c0.3,1.6,0.6,3.3,1.2,4.8c2.2,5.5,6.1,9.4,11.5,11.8c2.2,0.9,4.6,1.6,7,1.6c1.9,0.1,3.7,0.1,5.6,0.1
	c5.5,0.1,11,0.1,16.6,0.2c8.8,0.1,17.7,0.2,26.5,0.4c2.8,0,5.5,0,8.2-0.8c5.4-1.6,9.6-4.8,12.3-9.8c1.6-2.9,2.5-5.9,2.5-9.2
	c0-5.1,0-10.2,0.1-15.3c0.1-11.3,0.1-22.5,0.2-33.8C98.6,31.3,98.5,30.3,98.3,29.2z M58.6,61.3c-1.8,2.8-3.8,5.4-6.5,7.5
	c-1.7,1.3-3.5,2.4-5.4,3.3c-0.8,0.3-1.6,0.3-2.5,0.5c-3.1,0.6-6.1,1.2-9.2,1.7c-3,0.5-5.5,1.9-7.7,3.9c-2.1,1.9-3.7,4.2-5,6.8
	c-0.7,1.4-1.3,2.8-1.8,4.4c0,0.1,0,0.2-0.2,0.2s-0.2-0.1-0.2-0.3c-0.5-1.6-0.7-3.3-0.8-4.9c-0.2-3-0.2-6.1,0.4-9.1
	c0.9-4.5,2.7-8.6,6.1-11.8c3.1-2.9,6.7-4.9,10.8-5.9c3.6-0.8,7.3-1.6,10.9-2.2c4.6-0.8,9.2-1.6,13.8-2.5c0.2,0,0.4-0.1,0.5,0
	C61.3,55.9,60.3,58.7,58.6,61.3z M86.2,27.1c-0.4,2.6-1.2,5-2.4,7.3c-1.5,3-3.9,5.2-6.5,7.1c-2.4,1.8-5,2.9-7.8,3.9
	c-2,0.7-4.2,1-6.3,1.3c-4.9,0.9-9.7,1.7-14.6,2.6c-3,0.5-6,1.1-9,1.6c-2.1,0.3-4.1,0.8-6,1.8c-1.9,1-3.4,2.4-4.3,4.4
	c-0.1,0.1-0.1,0.3-0.2,0.4c-0.1,0.1-0.2,0.2-0.3,0.2c-0.1,0-0.1-0.2-0.1-0.3c-0.6-2.4-1.2-4.7-1.1-6.7c-0.1-5.8,2.2-9.9,6.3-13.1
	c2.2-1.7,4.8-2.8,7.6-3.5c2.8-0.8,5.6-1.2,8.4-1.7c4.7-0.8,9.3-1.6,14-2.5s9.3-1.7,14-2.5c2.3-0.4,4.6-0.8,6.9-1.3
	c0.1,0,0.3,0,0.4-0.1C86.4,26,86.4,26,86.2,27.1z"/>
<path class="st0" d="M118.9,91.1c0,3.3,0,6.4,0,9.5c0,0.7,0,0.7-0.7,0.7c-1.4,0-1.2,0.2-1.2-1.2c0-3.7,0-7.4,0-11.2
	c0-0.5,0.2-0.7,0.7-0.7c1.2-0.1,1.9,0.3,2.5,1.3c1.7,2.8,3.6,5.5,5.4,8.3c0.1,0.1,0.2,0.3,0.3,0.4c0.2-0.2,0.1-0.3,0.1-0.5
	c0-3,0-5.9,0-8.9c0-0.5,0.2-0.7,0.7-0.7c1.4,0,1.3-0.1,1.3,1.3c0,3.7,0,7.4,0,11.1c0,0.7,0,0.7-0.7,0.8c-1.1,0.1-1.7-0.3-2.3-1.2
	c-1.8-2.9-3.7-5.6-5.6-8.4C119.2,91.6,119.1,91.4,118.9,91.1z"/>
<path class="st0" d="M314.9,91.1c0,3.3,0,6.4,0,9.5c0,0.5-0.1,0.7-0.7,0.7c-1.4,0-1.2,0.2-1.2-1.2c0-3.7,0-7.4,0-11.2
	c0-0.5,0.2-0.6,0.7-0.7c1.2-0.1,1.9,0.3,2.5,1.3c1.7,2.8,3.6,5.5,5.4,8.3c0.1,0.1,0.2,0.3,0.3,0.5c0.1-0.2,0.1-0.3,0.1-0.5
	c0-3,0-5.9,0-8.9c0-0.5,0.2-0.7,0.7-0.7c1.4,0,1.3-0.1,1.3,1.2c0,3.7,0,7.4,0,11.1c0,0.7,0,0.7-0.7,0.8c-1.1,0.1-1.7-0.3-2.3-1.2
	c-1.8-2.8-3.7-5.6-5.5-8.4C315.2,91.6,315.1,91.4,314.9,91.1z"/>
<path class="st0" d="M376.5,95c0,1.7-0.5,3.6-2.2,5c-2,1.6-4.3,1.8-6.6,1c-2.2-0.8-3.4-2.6-3.8-4.9c-0.2-1.3-0.1-2.6,0.3-3.9
	c1.1-3.2,3.9-4.6,7-4.2C374.6,88.5,376.6,91.1,376.5,95z M374.5,94.9c0-0.6,0-1.1-0.1-1.7c-0.3-1.8-1.5-3-3.2-3.4
	c-1.8-0.4-3.6,0.2-4.5,1.8c-1.2,2-1.2,4.2-0.1,6.2c0.9,1.7,2.5,2.1,4.3,1.9c1.7-0.2,2.7-1.2,3.3-2.8
	C374.5,96.2,374.6,95.5,374.5,94.9z"/>
<path class="st0" d="M421,95c0,1.7-0.5,3.6-2.1,5c-2,1.7-4.3,1.9-6.7,1.1c-2.3-0.8-3.4-2.6-3.8-4.9c-0.2-1.5-0.1-3,0.5-4.4
	c1.2-3,3.9-4,6.9-3.7C419.1,88.5,421.1,91.1,421,95z M419,94.9c0-0.7,0-1.2-0.1-1.7c-0.3-1.8-1.5-3.1-3.3-3.4
	c-1.9-0.4-3.6,0.4-4.5,2c-1.1,2-1.1,4.1,0,6c0.9,1.7,2.5,2.1,4.3,1.9c1.7-0.2,2.7-1.2,3.3-2.8C419,96.2,419,95.5,419,94.9z"/>
<path class="st0" d="M309.7,95c0,1.7-0.5,3.6-2.1,5c-2,1.7-4.3,1.9-6.7,1.1c-2.3-0.8-3.4-2.6-3.8-4.9c-0.2-1.5-0.1-3,0.5-4.4
	c1.2-2.9,3.9-4.1,6.9-3.7C307.8,88.5,309.8,91.1,309.7,95z M307.7,94.9c0-0.6,0-1.2-0.1-1.7c-0.3-1.8-1.5-3-3.2-3.4
	c-1.8-0.4-3.6,0.2-4.5,1.8c-1.2,2-1.2,4.2-0.1,6.2c0.9,1.7,2.5,2.1,4.3,1.9c1.7-0.2,2.7-1.2,3.3-2.8
	C307.7,96.2,307.7,95.5,307.7,94.9z"/>
<path class="st0" d="M385.9,94.3c1.8,0.8,2.5,1.9,2.3,3.7c-0.2,1.6-1.6,2.9-3.3,3.2c-1.5,0.2-3.1,0.1-4.7,0.1
	c-0.4,0-0.4-0.3-0.4-0.5c0-1.4,0-2.9,0-4.3c0-2.5,0-5,0-7.5c0-0.5,0.2-0.7,0.7-0.7c1.4,0.1,2.8-0.1,4.1,0.1c1.5,0.2,2.8,1.2,2.9,2.5
	c0.2,1.4-0.2,2.5-1.4,3.3C386,94.2,385.9,94.2,385.9,94.3z M381.7,97.5c0,0.6,0,1.2,0,1.8c0,0.2,0,0.4,0.2,0.3c1-0.1,2,0.1,2.9-0.2
	c0.9-0.3,1.4-1,1.3-2c0-0.9-0.5-1.5-1.5-1.7c-0.9-0.3-1.9-0.2-2.8-0.2c-0.3,0-0.3,0.2-0.3,0.4C381.7,96.3,381.7,96.9,381.7,97.5z
	 M382.8,90c-0.2,0-0.4,0-0.6,0c-0.5-0.1-0.6,0.1-0.5,0.5c0,0.7,0,1.3,0,2c0,1.2,0,1.2,1.2,1.2c0.7,0,1.4-0.1,1.9-0.5
	c0.7-0.5,0.8-1.2,0.7-2c-0.1-0.7-0.7-1-1.4-1.1C383.7,90,383.3,90,382.8,90z"/>
<path class="st0" d="M227.4,94.8c0-2,0-4,0-5.9c0-0.3,0-0.6,0.4-0.6c1.8,0,3.6-0.1,5.3,0.2c3.7,0.6,5.2,3,5.1,6.4
	c-0.1,3.7-2.7,6.4-7,6.5c-1.1,0-2.2,0-3.2,0c-0.5,0-0.6-0.1-0.6-0.6C227.4,98.7,227.4,96.7,227.4,94.8z M229.3,94.8
	c0,1.5,0,2.9,0,4.4c0,0.2,0,0.4,0.3,0.4c0.9,0,1.9,0,2.8-0.1c1.8-0.3,3.2-1.5,3.7-3.2c0.2-0.9,0.2-1.8,0.1-2.7
	c-0.3-1.9-1.3-3-3.2-3.4c-1.1-0.2-2.1-0.2-3.2-0.2c-0.4,0-0.5,0.1-0.5,0.5C229.3,91.9,229.3,93.3,229.3,94.8z"/>
<path class="st0" d="M131.9,94.8c0-2,0-3.9,0-5.9c0-0.5,0.2-0.6,0.6-0.6c1.7,0.1,3.4-0.1,5.1,0.2c3.7,0.6,5.2,3,5.1,6.4
	c-0.1,3.7-2.7,6.3-6.9,6.5c-1.2,0-2.3,0-3.5,0c-0.4,0-0.5-0.2-0.5-0.6C132,98.8,131.9,96.8,131.9,94.8z M133.8,94.8
	c0,1.4,0,2.9,0,4.3c0,0.4,0.1,0.5,0.5,0.4c0.6,0,1.2,0,1.8,0c2.5-0.1,4.2-1.4,4.6-3.7c0.1-0.7,0.1-1.4,0-2.1
	c-0.2-1.7-1.2-2.9-2.9-3.4c-1.2-0.3-2.5-0.3-3.8-0.3c-0.4,0-0.2,0.3-0.2,0.4C133.8,91.9,133.8,93.3,133.8,94.8z"/>
<path class="st0" d="M430,95.3c0.8,0.6,1.3,1.5,1.9,2.4c0.7,1,1.3,2,1.9,3c0.3,0.4,0.2,0.5-0.3,0.6c-1.1,0.2-1.9-0.2-2.4-1.3
	c-0.4-1-1.1-1.8-1.6-2.7c-0.7-1.2-1.7-1.5-3-1.4c-0.3,0-0.3,0.2-0.3,0.4c0,1.4,0,2.9,0,4.3c0,0.5-0.2,0.7-0.7,0.6
	c-1.4,0-1.2,0.2-1.2-1.2c0-3.7,0-7.4,0-11.2c0-0.5,0.1-0.7,0.7-0.7c1.4,0.1,2.7-0.1,4.1,0.1c1.9,0.2,3.2,1.2,3.4,2.7
	c0.3,1.9-0.4,3.3-2.3,4.2C430.1,95.2,430.1,95.3,430,95.3z M426.2,92.1c0,0.3,0,0.6,0,0.8c0,1.3,0,1.3,1.3,1.3c0.7,0,1.4,0,2-0.3
	c0.8-0.5,1.2-1.3,1-2.3c-0.1-0.8-0.7-1.3-1.6-1.4c-0.8-0.2-1.6,0-2.4-0.1c-0.3,0-0.3,0.1-0.3,0.3C426.2,90.9,426.2,91.5,426.2,92.1z
	"/>
<path class="st0" d="M337.3,101.3c-0.9,0-0.9,0-1.2-0.8c-0.3-0.8-0.6-1.5-0.9-2.3c-0.1-0.3-0.2-0.4-0.6-0.4c-1.5,0-3,0-4.5,0
	c-0.3,0-0.4,0.1-0.5,0.4c-0.3,0.9-0.7,1.9-1,2.8c-0.1,0.3-0.2,0.4-0.5,0.4s-0.7,0-1,0c-0.6,0-0.7-0.1-0.5-0.7
	c1.2-3.1,2.4-6.1,3.6-9.2c0.4-1,0.8-1.9,1.1-2.9c0.1-0.3,0.3-0.4,0.6-0.4c1.4,0,1.4,0,1.9,1.3c1.4,3.6,2.9,7.3,4.3,10.9
	c0.3,0.8,0.3,0.9-0.6,0.9C337.5,101.3,337.4,101.3,337.3,101.3z M330.4,96c1.3,0,2.6,0,3.9,0c-0.6-1.7-1.3-3.4-2-5.2
	C331.7,92.6,331.1,94.3,330.4,96z"/>
<path class="st0" d="M456.5,101.3c-0.6,0.2-0.9-0.1-1.1-0.8c-0.3-0.8-0.6-1.6-0.9-2.4c-0.1-0.3-0.2-0.4-0.5-0.4c-1.5,0-3,0-4.5,0
	c-0.3,0-0.4,0.1-0.5,0.4c-0.3,0.9-0.7,1.9-1,2.8c-0.1,0.3-0.3,0.4-0.6,0.4c-0.3,0-0.7,0-1,0c-0.5,0-0.6-0.1-0.4-0.6
	c1.3-3.3,2.6-6.5,3.9-9.8c0.3-0.7,0.6-1.5,0.9-2.2c0.1-0.3,0.2-0.4,0.6-0.4c1.4,0,1.4,0,1.9,1.3c1.5,3.6,2.9,7.3,4.3,10.9
	c0.3,0.8,0.3,0.8-0.5,0.8C456.9,101.3,456.7,101.3,456.5,101.3z M453.7,96c-0.7-1.7-1.3-3.4-2-5.2c-0.7,1.7-1.3,3.3-1.9,4.9
	c-0.1,0.2,0,0.3,0.2,0.3C451.3,96,452.5,96,453.7,96z"/>
<path class="st0" d="M272.4,88.3c0.9,0,0.9,0,1.3,0.9c1.5,3.8,3,7.7,4.6,11.5c0.2,0.6,0.2,0.7-0.5,0.7c-1.4,0-1.4,0-1.9-1.3
	c-0.2-0.6-0.5-1.3-0.7-1.9c-0.1-0.3-0.2-0.4-0.5-0.4c-1.5,0-3,0-4.5,0c-0.3,0-0.5,0.1-0.5,0.4c-0.3,0.9-0.7,1.9-1,2.8
	c-0.1,0.3-0.3,0.4-0.6,0.4c-0.3,0-0.6,0-0.9,0c-0.7,0-0.7-0.1-0.5-0.7c1.5-3.8,3-7.7,4.5-11.5C271.5,88.3,271.5,88.3,272.4,88.3z
	 M272.4,90.8c-0.2,0.4-0.3,0.7-0.4,1.1c-0.5,1.2-0.9,2.5-1.4,3.7c-0.1,0.1-0.3,0.4,0.1,0.4c1.2,0,2.4,0,3.6,0
	C273.7,94.3,273,92.6,272.4,90.8z"/>
<path class="st0" d="M161.4,101.3c-0.9,0-0.9,0-1.2-0.8s-0.6-1.6-0.9-2.4c-0.1-0.3-0.2-0.3-0.5-0.3c-1.5,0-3,0-4.6,0
	c-0.3,0-0.4,0.1-0.5,0.3c-0.3,0.9-0.7,1.8-1,2.8c-0.1,0.3-0.3,0.5-0.6,0.4c-0.3,0-0.6,0-0.9,0c-0.6,0-0.7-0.1-0.5-0.7
	c1.1-2.7,2.1-5.3,3.2-8c0.5-1.3,1-2.6,1.5-3.9c0.1-0.3,0.3-0.4,0.6-0.4c1.4,0,1.4,0,1.9,1.3c1.4,3.6,2.9,7.3,4.3,10.9
	c0.3,0.9,0.3,0.9-0.6,0.9C161.6,101.3,161.5,101.3,161.4,101.3z M158.5,96c-0.6-1.7-1.3-3.4-2-5.2c-0.7,1.8-1.3,3.5-1.9,5.2
	C155.9,96,157.2,96,158.5,96z"/>
<path class="st0" d="M247.3,101.5c-0.7,0-1.3,0-2,0c-2.2-0.2-3.6-1.7-3.9-4c-0.2-1.5-0.1-3.1-0.1-4.6c0-1.3,0-2.7,0-4
	c0-0.4,0.1-0.6,0.6-0.6c1.6,0,1.4-0.2,1.4,1.4c0,2.1,0,4.2,0,6.3c0,0.4,0,0.8,0,1.2c0.3,2.3,1.9,2.9,3.8,2.6
	c1.5-0.2,2.3-1.2,2.3-2.8c0.1-2.6,0-5.3,0-7.9c0-0.8,0-0.8,0.8-0.8c1.3,0,1.2-0.1,1.2,1.2c0,2.1,0,4.3,0,6.4c0,0.9-0.1,1.8-0.3,2.6
	C250.5,100.2,249.1,101.3,247.3,101.5z"/>
<path class="st0" d="M193.7,95.4c0.7,0,1.4,0,2,0c0.4,0,0.5,0.2,0.4,0.5c-0.1,0.8-0.1,0.8-1,0.8c-0.4,0-0.8,0-1.2,0
	c-0.4-0.1-0.6,0.2-0.6,0.5c-0.2,0.9-0.4,1.7-0.6,2.6c-0.1,0.3-0.2,0.4-0.5,0.4c-1.1,0-1.1,0-0.9-1.1c0.2-0.7,0.3-1.4,0.5-2.1
	c0.1-0.3,0-0.3-0.3-0.3c-1.5-0.1-1.5-0.1-1.8,1.4c-0.1,0.6-0.3,1.1-0.4,1.7c-0.1,0.3-0.2,0.5-0.5,0.5c-1.2,0-1.1,0-0.9-1.1
	c0.2-0.7,0.3-1.4,0.5-2c0.1-0.4,0-0.4-0.3-0.4c-0.5,0-1,0-1.4,0s-0.5-0.1-0.4-0.5c0.2-0.8,0.2-0.8,1-0.8c0.1,0,0.2,0,0.3,0
	c1.3,0,1.3,0,1.5-1.2c0.2-1,0.2-1-0.8-1c-0.3,0-0.6,0-0.9,0c-0.4,0-0.5-0.2-0.4-0.6c0.1-0.8,0.1-0.8,1-0.8c0.5,0,0.9,0,1.4,0
	c0.3,0,0.4-0.1,0.4-0.4c0.2-0.9,0.4-1.9,0.6-2.8c0.1-0.4,0.2-0.4,0.5-0.4c1.1,0,1.1,0,0.9,1.1c-0.2,0.7-0.3,1.4-0.5,2.1
	c-0.1,0.3,0,0.4,0.3,0.4c1.4,0,1.4,0,1.8-1.4c0.1-0.6,0.3-1.2,0.4-1.8c0.1-0.3,0.2-0.5,0.5-0.4h0.1c1,0,1,0,0.8,0.9
	c-0.2,0.8-0.3,1.5-0.5,2.2c-0.1,0.3,0,0.4,0.3,0.4c0.5,0,1,0,1.4,0s0.6,0.1,0.5,0.6c-0.2,0.8-0.2,0.8-1,0.8c-0.2,0-0.3,0-0.5,0
	c-1.1,0-1.1,0-1.3,1.1C193.9,94.6,193.8,95,193.7,95.4z M191.3,95.4c0.9,0,0.9,0,1.1-0.9c0.1-0.3,0.1-0.5,0.2-0.8
	c0.2-0.4,0-0.6-0.4-0.5c-0.4,0-1-0.1-1.3,0.1s-0.3,0.8-0.4,1.2C190.3,95.4,190.3,95.4,191.3,95.4z"/>
<path class="st0" d="M397.7,94.8c0-1.9,0-3.9,0-5.8c0-0.5,0.1-0.7,0.7-0.7c1.4,0.1,2.9-0.1,4.3,0.1c2.1,0.3,3.2,1.6,3.4,3.7
	c0.1,1.9-1.1,3.6-3,4.2c-1,0.3-2,0.3-2.9,0.3c-0.4,0-0.6,0.1-0.5,0.5c0,1.2,0,2.5,0,3.7c0,0.4-0.1,0.6-0.6,0.6
	c-1.6,0-1.3,0.2-1.3-1.3C397.7,98.3,397.7,96.5,397.7,94.8z M400.9,90c-0.4,0-0.7,0-1,0c-0.2,0-0.3,0-0.3,0.3c0,1.4,0,2.8,0,4.2
	c0,0.2,0,0.3,0.2,0.3c0.9,0,1.9,0.1,2.8-0.3c1.1-0.4,1.6-1.3,1.4-2.5c-0.1-1.1-0.7-1.7-1.9-1.9C401.7,90,401.3,90,400.9,90z"/>
<path class="st0" d="M216.9,94.8c0-2,0-3.9,0-5.9c0-0.5,0.1-0.7,0.6-0.6c1.9,0,3.9,0,5.8,0c0.5,0,0.6,0.1,0.6,0.6
	c0,1.3,0.1,1.1-1.1,1.1c-1.2,0-2.3,0-3.5,0c-0.4,0-0.5,0.1-0.5,0.5c0,1,0,1.9,0,2.9c0,0.4,0.1,0.5,0.5,0.4c1.2,0,2.4,0,3.6,0
	c0.5,0,0.7,0.1,0.6,0.6c0,1.2,0.1,1.1-1.1,1.1c-1.1,0-2.1,0-3.2,0c-0.4,0-0.5,0.1-0.5,0.5c0,1.1,0,2.1,0,3.2c0,0.3,0.1,0.4,0.4,0.4
	c1.5,0,2.9,0,4.4,0c0.5,0,0.6,0.1,0.6,0.6c0,1.3,0.1,1.2-1.1,1.2c-1.9,0-3.7,0-5.6,0c-0.5,0-0.6-0.1-0.6-0.6
	C217,98.8,216.9,96.8,216.9,94.8z"/>
<path class="st0" d="M174.7,88c0.9,0,1.7,0.1,2.5,0.3c0.3,0.1,0.4,0.2,0.4,0.6c0,0.3,0,0.7,0,1c0,0.5-0.2,0.6-0.6,0.4
	c-1.2-0.6-2.4-0.7-3.6-0.4c-0.7,0.1-1.3,0.5-1.4,1.3c-0.2,0.8,0.2,1.4,0.9,1.8c0.7,0.5,1.6,0.8,2.3,1.2c0.8,0.4,1.5,0.8,2.1,1.5
	c1.5,1.6,1.1,4.2-0.9,5.2s-4.1,0.8-6.2,0c-0.3-0.1-0.4-0.3-0.3-0.5c0-0.3,0-0.7,0-1c0-0.2-0.1-0.4,0.2-0.5c0.2-0.1,0.3,0.1,0.5,0.2
	c1.4,0.8,2.8,1.1,4.3,0.7c0.6-0.1,1.1-0.5,1.3-1.1c0.2-0.7,0-1.3-0.6-1.8c-0.5-0.4-1-0.6-1.5-0.9c-0.8-0.4-1.7-0.8-2.5-1.4
	c-1.1-0.7-1.7-1.7-1.6-3.1c0.1-1.5,1-2.3,2.3-2.9C173,88.1,173.9,88,174.7,88z"/>
<path class="st0" d="M261,101.5c-3.9,0-6.5-2.5-6.5-6.4c0-2.9,1.1-5.2,3.8-6.4c1.9-0.9,3.9-0.8,6-0.2c0.3,0.1,0.4,0.2,0.4,0.5
	s0,0.7,0,1c0,0.5-0.1,0.6-0.6,0.4c-1.1-0.5-2.3-0.7-3.5-0.5c-1.9,0.2-3.3,1.6-3.8,3.4c-0.3,1-0.3,2.1-0.1,3.1
	c0.5,2.2,2.3,3.5,4.5,3.4c1,0,2-0.2,2.9-0.7c0.4-0.2,0.5,0,0.5,0.4c0.1,1.3,0,1.4-1.3,1.7C262.6,101.4,261.7,101.5,261,101.5z"/>
<path class="st0" d="M204.4,93.9c0,1.8,0,3.5,0,5.3c0,0.4,0.1,0.5,0.5,0.5c0.7,0,1.3,0,2,0c0.4,0,0.5,0.1,0.5,0.5
	c0,1.4,0.1,1.2-1.2,1.2c-2,0-4,0-6,0c-0.5,0-0.6-0.1-0.6-0.6c0-1.2-0.1-1.1,1.1-1.1c0.6,0,1.4,0.3,1.7-0.1s0.1-1.1,0.1-1.7
	c0-2.3,0-4.7,0-7c0-0.4-0.1-0.5-0.5-0.4c-0.7,0.2-1.4,0.4-2.1,0.6c-0.3,0.1-0.5,0-0.5-0.4c0,0,0,0,0-0.1c-0.1-1.2-0.1-1.2,1.1-1.6
	c1.1-0.3,2.1-0.6,3.2-0.9c0.6-0.2,0.7-0.1,0.7,0.5C204.4,90.4,204.4,92.2,204.4,93.9z"/>
<path class="st0" d="M285.4,95.6c0,1.7,0,3.4,0,5.1c0,0.5-0.1,0.7-0.6,0.7c-1.5,0-1.3,0.2-1.3-1.3c0-3.2,0-6.3,0-9.5
	c0-0.4-0.1-0.5-0.5-0.5c-0.9,0-1.8,0-2.7,0c-0.4,0-0.6-0.2-0.6-0.6c0-1.3-0.1-1.2,1.2-1.2c2.5,0,5.1,0,7.6,0c0.5,0,0.7,0.2,0.7,0.7
	c0,1.2,0.1,1.1-1.1,1.1c-0.8,0-1.5,0-2.3,0c-0.3,0-0.4,0.1-0.4,0.4C285.4,92.2,285.4,93.9,285.4,95.6z"/>
<path class="st0" d="M438.9,95.6c0-1.7,0-3.4,0-5.1c0-0.4-0.1-0.5-0.5-0.5c-0.9,0-1.8,0-2.7,0c-0.5,0-0.6-0.2-0.6-0.6
	c0-1.3-0.1-1.1,1.2-1.1c2.5,0,5.1,0,7.6,0c0.5,0,0.7,0.2,0.7,0.7c0,1.2,0.1,1.1-1.1,1.1c-0.7,0-1.5,0-2.2,0c-0.4,0-0.5,0.1-0.5,0.5
	c0,3.4,0,6.7,0,10.1c0,0.7,0,0.8-0.7,0.7c-1.4,0-1.2,0.2-1.2-1.2C438.9,98.6,438.9,97.1,438.9,95.6z"/>
<path class="st0" d="M341,94.8c0-2,0-3.9,0-5.9c0-0.5,0.1-0.7,0.6-0.6c1.5,0,1.3-0.2,1.3,1.3c0,3.2,0,6.3,0,9.5
	c0,0.4,0.1,0.5,0.5,0.5c1.4,0,2.8,0,4.1,0c0.5,0,0.7,0.1,0.6,0.6c0,1.2,0.1,1.1-1.1,1.1c-1.8,0-3.6,0-5.5,0c-0.5,0-0.6-0.1-0.6-0.6
	C341,98.8,341,96.8,341,94.8z"/>
<path class="st0" d="M460.4,94.8c0-2,0-4,0-5.9c0-0.5,0.1-0.7,0.6-0.6c1.5,0,1.3-0.2,1.3,1.3c0,3.2,0,6.3,0,9.5
	c0,0.4,0.1,0.5,0.5,0.5c1.4,0,2.8,0,4.1,0c0.5,0,0.7,0.1,0.6,0.6c0,1.2,0.1,1.1-1.1,1.1c-1.8,0-3.6,0-5.5,0c-0.5,0-0.6-0.1-0.6-0.6
	C460.4,98.8,460.4,96.8,460.4,94.8z"/>
<path class="st0" d="M147,101.3c-0.6,0-1.1,0-1.7,0c-0.4,0-0.5-0.2-0.5-0.5c0-0.1,0-0.3,0-0.4c0-0.8,0-0.8,0.8-0.7
	c0.4,0,0.5-0.1,0.5-0.6c0-2.9,0-5.8,0-8.6c0-0.5-0.1-0.6-0.6-0.5c-0.3,0-0.6,0.1-0.7-0.2c-0.1-0.4-0.1-0.9,0-1.3
	c0.1-0.2,0.3-0.2,0.5-0.2c1.1,0,2.2,0,3.4,0c0.4,0,0.6,0.2,0.6,0.6c0,0.1,0,0.3,0,0.4c0.1,0.5-0.1,0.7-0.6,0.7
	c-0.5-0.1-0.7,0.1-0.7,0.6c0,2.8,0,5.6,0,8.5c0,0.5,0.1,0.6,0.6,0.6c0.7,0,0.7,0,0.7,0.9c0,0.7,0,0.7-0.7,0.7
	C148,101.3,147.5,101.3,147,101.3z"/>
<path class="st0" d="M111.9,101.3c-0.6,0-1.2,0-1.8,0c-0.3,0-0.5-0.1-0.5-0.5c0-0.1,0-0.3,0-0.4c0-0.8,0-0.8,0.8-0.8
	c0.4,0,0.5-0.1,0.5-0.5c0-2.9,0-5.8,0-8.7c0-0.4-0.1-0.6-0.5-0.5c-0.3,0-0.7,0.1-0.8-0.2c-0.1-0.4-0.1-0.9,0.1-1.3
	c0.1-0.1,0.2-0.2,0.4-0.2c1.2,0,2.3,0,3.5,0c0.3,0,0.5,0.1,0.5,0.5c0,0.1,0,0.3,0,0.4c0,0.8,0,0.8-0.8,0.7c-0.5,0-0.5,0.1-0.5,0.6
	c0,2.9,0,5.8,0,8.6c0,0.5,0.1,0.6,0.6,0.5c0.2,0,0.6-0.1,0.7,0.2c0.1,0.4,0.1,0.9,0,1.3c-0.1,0.2-0.3,0.2-0.4,0.2
	C113,101.3,112.4,101.3,111.9,101.3z"/>
<path class="st0" d="M292.7,101.3c-0.6,0-1.1,0-1.7,0c-0.4,0-0.5-0.1-0.5-0.5c0-0.1,0-0.2,0-0.3c0-0.8,0-0.8,0.8-0.8
	c0.4,0,0.5-0.1,0.5-0.5c0-2.9,0-5.8,0-8.7c0-0.4-0.1-0.5-0.5-0.5c-0.3,0-0.7,0.1-0.8-0.2c-0.1-0.4-0.1-0.9,0-1.3
	c0.1-0.2,0.3-0.2,0.4-0.2c1.2,0,2.3,0,3.5,0c0.4,0,0.5,0.2,0.5,0.5c0,0.1,0,0.2,0,0.3c0,0.9,0,0.9-0.9,0.9c-0.4,0-0.4,0.1-0.4,0.5
	c0,2.9,0,5.8,0,8.7c0,0.4,0.1,0.5,0.5,0.5c0.3,0,0.6-0.2,0.7,0.2c0.1,0.4,0.1,0.9,0,1.3c-0.1,0.2-0.3,0.2-0.4,0.2
	C293.9,101.3,293.3,101.3,292.7,101.3z"/>
<path class="st0" d="M166.3,88c0.2,0,0.4,0,0.6,0c0.3,0,0.4,0.2,0.3,0.4c-0.4,1.2-0.8,2.4-1.2,3.6c-0.1,0.2-0.1,0.2-0.3,0.2
	c-0.3,0-0.5,0-0.8,0s-0.4-0.1-0.4-0.5c0.3-1.2,0.6-2.4,0.9-3.6C165.6,87.7,166.1,88.2,166.3,88z"/>
<path class="st0" d="M253.4,37.4c-0.2-0.3-0.1-0.7,0-1.1c0.3-1.2,0.2-2.4,0-3.6c-0.1-0.4-0.1-0.8,0-1.2c0.2,0.4,0.3,0.9,0.3,1.4
	C253.8,34.4,253.9,35.9,253.4,37.4z"/>
<path class="st0" d="M254.3,64.3c-0.1-1.5-0.1-2.9,0-4.4c0,0.1,0.1,0.1,0.1,0.2c0,0.9,0.2,1.8,0.1,2.8c-0.1,0.3,0,0.6-0.1,1
	C254.5,64,254.6,64.2,254.3,64.3z"/>
<path class="st0" d="M254.3,58.2c-0.4-0.6-0.6-1.3-0.4-2.1C254,56.8,254.3,57.5,254.3,58.2z"/>
<path class="st0" d="M253.8,67.3c-0.2-0.6,0-1.1,0.4-1.6C254.3,66.3,254,66.8,253.8,67.3z"/>
<path class="st0" d="M253.8,55.9c-0.3-0.3-0.6-0.6-0.4-1.1C253.6,55.1,253.8,55.5,253.8,55.9z"/>
<path class="st0" d="M253.4,68.4c-0.2-0.4,0.2-0.7,0.4-0.9C253.8,67.9,253.6,68.2,253.4,68.4z"/>
<path class="st0" d="M254.3,59.3c0-0.3-0.3-0.6,0-0.9C254.5,58.7,254.4,59,254.3,59.3z"/>
<path class="st0" d="M254.3,65.6c-0.2-0.2,0-0.4,0-0.6C254.4,65.2,254.4,65.4,254.3,65.6z"/>
<g>
	<path class="st0" d="M202.1,31.9c-0.2-1.8-0.7-3.5-1.5-5.1c-1-2-2.3-3.7-4.2-5c-1.6-1.1-3.4-1.8-5.2-2.3c-2.2-0.6-4.5-0.7-6.8-0.7
		c-7.7,0-15.3,0-23,0c-0.6,0-0.8,0.1-0.8,0.8c-0.1,4.8,0,9.6-0.1,14.4c-0.1,4,0,8-0.1,12.1c-0.1,4.9,0,9.8,0,14.7h-0.1
		c0,4.9,0,9.9,0,14.8c0,0.8,0,0.8,0.8,0.8c4.2,0,8.4,0,12.7,0c0.1,0,0.2,0,0.3,0c0.3,0,0.5-0.2,0.5-0.5c0-3,0-6.1,0-9.1
		c0-2.3,0-4.7,0-7c0-0.9,0-0.9,0.9-0.9c3.1,0,6.3,0,9.4,0c2.4,0,4.7-0.4,6.9-1.2c1.8-0.6,3.5-1.5,5-2.8c1.8-1.6,3.4-3.3,4.3-5.6
		c0.7-1.6,1-3.3,1.1-5c0.1-1.8,0.1-3.5,0.1-5.3C202.3,36.6,202.4,34.3,202.1,31.9z M187.7,42.5c-0.3,1.3-1,2.3-2.1,2.9
		c-1.3,0.7-2.7,0.9-4.1,0.9c-2,0-4.1,0-6.1,0c-0.5,0-0.7-0.2-0.7-0.7c0-1.8,0-3.6,0-5.4c0.1-2.3,0-4.7,0.1-7c0-0.4,0-0.8-0.1-1.2
		c0-0.5,0.2-0.7,0.6-0.7c1.2,0,2.5,0,3.7,0c0.8,0,1.7,0,2.5,0c1.1-0.1,2.2,0.2,3.2,0.5c0.8,0.2,1.4,0.8,2,1.5c1,1.1,1.2,2.4,1.2,3.7
		C187.9,38.8,188,40.7,187.7,42.5z"/>
	<path class="st0" d="M149.7,18.5c-0.2,0-0.4,0-0.6,0c-12.4,0-24.8,0-37.2,0c-1.1,0-1.1,0-1.1,1.1c0,10.7,0,21.3,0,32
		c0,1.8,0,3.7,0,5.5c0,6.4,0,12.8,0,19.1c0,0.5,0.3,0.3,0.5,0.3c4,0,8.1,0,12.1,0c0.3,0,0.7,0,1,0c0.7-0.1,0.8-0.1,0.8-0.8
		c0-5.7,0-11.4,0-17.1c0-0.9,0.3-1.9,0-2.8c0-0.2,0.1-0.3,0.3-0.3c0.2,0,0.4,0,0.6,0c6.5,0,12.9,0,19.4,0c0.7,0,0.8-0.1,0.8-0.8
		c0-3.7,0-7.4,0-11.1c0-1-0.1-1.1-1.1-1.1c-6.4,0-12.7,0-19.1,0c-0.7,0-0.7,0-0.7-0.7c0-3.1,0-6.3,0-9.4c0-0.8,0-0.8,0.8-0.8
		c7.9,0,15.7,0,23.6,0c0.8,0,0.9-0.1,0.9-0.9c0-3.7,0-7.4,0-11.2C150.7,18.6,150.6,18.5,149.7,18.5z"/>
	<path class="st0" d="M254.5,57.1L254.5,57.1c-0.5-0.9-0.4-1.8-0.8-2.6c-0.3-0.5-0.4-1.2-0.7-1.7c-0.7-1.4-1.6-2.6-2.7-3.7
		c-1.5-1.5-3.3-2.7-5.1-3.7c-0.4-0.2-0.9-0.4-1.4-0.6c-0.7-0.2-1.4-0.4-2-0.7s-1.3-0.4-2-0.6c-1.2-0.4-2.4-0.6-3.6-1
		c-0.1,0-0.3-0.1-0.4-0.1c-0.5,0-0.9-0.1-1.3-0.3c-0.3-0.1-0.5-0.2-0.8-0.2c-0.8,0-1.5-0.4-2.2-0.7c-0.4-0.1-0.9-0.2-1.3-0.5
		c-0.4-0.3-1-0.5-1.5-0.7c-0.7-0.4-1.4-0.8-2-1.3c-0.8-0.7-1.2-1.6-1.5-2.6c-0.5-1.3-0.3-2.5,0.4-3.5c0.7-1.1,1.9-1.5,3.2-1.7
		c0.2,0,0.4,0,0.6-0.1c0.7-0.3,1.5-0.3,2.3-0.3c1.8-0.1,3.6,0.2,5.3,1c0.7,0.3,1.3,0.9,1.8,1.6c0.4,0.7,0.6,1.4,0.8,2.2
		c0.2,0.7,0.3,1.4,0.2,2.1c-0.1,0.7-0.3,1.4-0.6,2c-0.1,0.2-0.4,0.4-0.2,0.7c0.1,0.3,0.4,0.2,0.6,0.2c2.1,0,4.3,0,6.4,0
		c2.1,0,4.3,0,6.4,0c0.4,0,0.8-0.1,0.9-0.4c0.2-0.6,0.7-1.2,0.7-1.9c0-0.2,0.1-0.4,0.2-0.6c0.2-0.5,0.3-0.9,0.3-1.4
		c0.1-1.8,0-3.6-0.5-5.3c-0.1-0.2,0-0.5-0.2-0.7c-0.4-0.5-0.4-1.2-0.7-1.8c-0.5-1.1-1-2.1-1.8-3c-1.4-1.8-3.2-3.2-5.2-4.2
		c-0.4-0.2-0.8-0.3-1.2-0.5c-0.6-0.4-1.3-0.6-1.9-0.7c-0.9-0.3-1.7-0.7-2.7-0.6c-0.1,0-0.1,0-0.2,0c-1.3-0.6-2.6-0.5-4-0.6
		c-2.9-0.2-5.9-0.3-8.8,0.2c-0.8,0.1-1.7,0-2.5,0.3c-0.4,0.2-0.9,0.2-1.3,0.2c-0.8,0.1-1.5,0.4-2.3,0.6c-0.5,0.1-1,0.2-1.4,0.4
		c-0.9,0.5-1.8,0.8-2.7,1.3c-1.2,0.7-2.2,1.5-3.1,2.4c-0.8,0.9-1.6,1.9-2.1,3.1c-0.6,1.1-0.9,2.3-1.2,3.5c-0.2,0.9-0.2,1.9-0.2,2.8
		c-0.1,1.4,0.1,2.7,0.1,4.1c0,1,0.4,2,0.6,3c0.3,1,0.7,2.1,1.3,3c0.7,1.2,1.6,2.3,2.6,3.3c0.9,0.8,1.7,1.6,2.7,2.2
		c0.7,0.4,1.4,0.9,2.1,1.2c0.5,0.2,1,0.4,1.5,0.7c0.6,0.3,1.2,0.6,1.8,0.7c0.8,0.2,1.4,0.5,2.1,0.7c0.8,0.2,1.6,0.5,2.4,0.8
		c0.8,0.3,1.7,0.4,2.5,0.8c0.7,0.3,1.5,0.5,2.3,0.7c0.6,0.2,1.2,0.4,1.8,0.7c0.5,0.3,1.1,0.4,1.6,0.7c1,0.5,2,1.1,2.9,1.9
		c0.6,0.6,1,1.4,1.3,2.2c0.4,0.9,0.4,1.8,0.1,2.7c-0.5,1.4-1.7,2-2.9,2.2c-1.1,0.3-2.3,0.4-3.5,0.4c-1,0-2-0.2-2.9-0.2
		s-1.7-0.4-2.6-0.7c-0.9-0.3-1.5-1.1-2.1-1.8c-0.2-0.3-0.4-0.6-0.6-0.9c-0.4-1.1-0.7-2.3-0.6-3.5c0.1-0.6-0.2-0.8-0.8-0.8
		c-4.3,0-8.7,0-13,0c-0.4,0-0.7,0.2-0.7,0.7c0,2.8-0.1,5.6,0.9,8.3c0.4,1.2,0.9,2.4,1.6,3.5c0.6,0.9,1.2,1.7,1.9,2.5
		c0.8,0.8,1.6,1.5,2.5,2.1c0.8,0.4,1.5,0.9,2.4,1.2c0.6,0.2,1.2,0.4,1.8,0.6c1,0.3,2.1,0.6,3.1,0.8c0.4,0.1,0.9,0,1.4,0.2
		c1.6,0.5,3.4,0.4,5.1,0.6c2.1,0.2,4.3,0.2,6.4-0.2c1.6-0.2,3.1-0.4,4.7-0.6c0.4,0,0.7-0.1,1-0.3c0.2-0.1,0.5-0.2,0.8-0.2
		c0.8,0,1.4-0.4,2.1-0.6c0.9-0.3,1.7-0.7,2.6-1.2c0.8-0.5,1.7-1.1,2.4-1.7c1-0.9,1.8-2,2.4-3.2c0.6-1,0.9-2,1.2-3.1s0.4-2.2,0.5-3.3
		C255.1,61.2,254.5,59.2,254.5,57.1z M253.8,56.1c0.1,0.7,0.4,1.4,0.4,2.1C253.8,57.6,253.6,56.9,253.8,56.1z M253.8,55.9
		L253.8,55.9L253.8,55.9c-0.3-0.3-0.6-0.6-0.4-1.1l0,0C253.6,55.1,253.8,55.5,253.8,55.9z M252.8,53.2c0.1,0.3,0.3,0.5,0.5,0.8
		C253.1,53.7,252.9,53.5,252.8,53.2c0-0.1,0-0.1-0.1-0.2C252.8,53.1,252.8,53.1,252.8,53.2z M251.8,51.4c0.2,0.1,0.2,0.2,0.3,0.3
		C252,51.6,251.9,51.5,251.8,51.4L251.8,51.4L251.8,51.4z M250.9,50.3c0.1,0,0.2,0.1,0.2,0.2C251.1,50.4,251,50.4,250.9,50.3
		c-0.1-0.1-0.1-0.2-0.2-0.3C250.8,50.1,250.9,50.2,250.9,50.3z M250.4,49.7c0.1,0.1,0.3,0.1,0.3,0.2
		C250.6,49.8,250.5,49.7,250.4,49.7c-0.1-0.2-0.3-0.3-0.4-0.5C250.1,49.3,250.3,49.5,250.4,49.7z M246.8,46.7L246.8,46.7L246.8,46.7
		L246.8,46.7z M247.6,47.3c0.2,0.1,0.5,0.2,0.7,0.4C248,47.5,247.8,47.4,247.6,47.3c-0.1-0.1-0.2-0.2-0.3-0.2
		C247.4,47.1,247.5,47.2,247.6,47.3z M243.9,45.3h0.1C244,45.3,244,45.3,243.9,45.3L243.9,45.3L243.9,45.3z M227.5,64.5
		c-0.1-0.1-0.1-0.1-0.2-0.2l0,0C227.3,64.3,227.4,64.4,227.5,64.5z M227.9,64.8c0.1,0.1,0.3,0.1,0.5,0.2
		C228.2,64.9,228,64.8,227.9,64.8z M240.4,59.9c0-0.1-0.1-0.2-0.1-0.3C240.3,59.7,240.4,59.8,240.4,59.9z M240.4,60.3
		c0,0.2,0,0.3-0.1,0.5l0,0C240.4,60.6,240.4,60.5,240.4,60.3z M229.4,40.8c0.2,0.1,0.5,0.2,0.7,0.3C229.9,41,229.6,40.9,229.4,40.8
		c-0.1,0-0.1,0-0.2,0C229.3,40.7,229.3,40.8,229.4,40.8z M228.8,40.5h-0.1l0,0l0,0C228.7,40.5,228.7,40.5,228.8,40.5z M225.8,38.4
		c0.2,0.1,0.3,0.3,0.4,0.5c0,0.1,0.1,0.1,0.1,0.2c0.2,0.1,0.4,0.1,0.5,0.4c-0.1-0.2-0.3-0.3-0.5-0.4c0-0.1-0.1-0.1-0.1-0.2
		C226.1,38.6,226,38.5,225.8,38.4c0,0.2,0,0.3,0.1,0.3C225.8,38.6,225.8,38.5,225.8,38.4c-0.1-0.1-0.1-0.1-0.2-0.2l-0.1-0.1l0.1,0.1
		C225.6,38.2,225.7,38.3,225.8,38.4z M225.3,38c-0.1-0.1-0.2-0.1-0.2-0.2C225.2,37.9,225.3,37.9,225.3,38z M226.6,31.1
		c-0.2,0.3-0.5,0.4-0.8,0.6C226.1,31.6,226.4,31.4,226.6,31.1L226.6,31.1c0.1,0,0.2,0,0.3-0.1C226.8,31.1,226.7,31.1,226.6,31.1z
		 M228,30.6c0,0.1-0.1,0.1-0.2,0.1C227.9,30.7,227.9,30.7,228,30.6c0.1,0,0.1,0,0.2,0C228.1,30.6,228,30.6,228,30.6z M238.4,32.4
		c-0.1-0.1-0.3-0.1-0.3-0.2C238.2,32.3,238.3,32.4,238.4,32.4c0,0.1,0.1,0.2,0.2,0.3C238.5,32.7,238.5,32.6,238.4,32.4z M239.3,34
		c-0.1-0.1-0.1-0.2-0.2-0.3C239.2,33.8,239.3,33.9,239.3,34s0,0.1,0,0.2C239.3,34.1,239.3,34,239.3,34z M239.2,39.5L239.2,39.5
		C239.2,39.4,239.2,39.4,239.2,39.5l-0.1,0.1C239.1,39.5,239.2,39.5,239.2,39.5z M252.2,39.9c-0.1,0.1-0.3,0.1-0.4,0.1
		C252,40,252.1,40,252.2,39.9c0.1,0,0.1,0,0.2,0C252.4,39.9,252.3,39.9,252.2,39.9z M253.7,32.9c0.1,1.5,0.2,3-0.3,4.5
		c-0.2-0.3-0.1-0.7,0-1.1c0.3-1.2,0.2-2.4,0-3.6c-0.1-0.4-0.1-0.8,0-1.2C253.6,32,253.7,32.4,253.7,32.9z M253,29.6
		c0.1,0.2,0.1,0.3,0.2,0.5C253.1,29.9,253,29.7,253,29.6z M251.4,26.2c0.2,0.2,0.4,0.4,0.5,0.7c0,0.1,0.1,0.2,0.1,0.3
		c0.5,0.4,0.6,1,0.8,1.6c-0.2-0.6-0.3-1.2-0.8-1.6c0-0.1-0.1-0.2-0.1-0.3C251.8,26.6,251.6,26.4,251.4,26.2c0-0.1,0-0.1-0.1-0.2
		C251.3,26.1,251.4,26.1,251.4,26.2z M250.9,25.6c0.2,0.1,0.3,0.2,0.4,0.3C251.2,25.7,251.1,25.6,250.9,25.6
		c-0.1-0.1-0.2-0.3-0.2-0.4C250.7,25.3,250.8,25.4,250.9,25.6z M250.4,24.8c0.1,0,0.2,0.1,0.3,0.2C250.6,24.9,250.5,24.8,250.4,24.8
		c0-0.1-0.1-0.1-0.1-0.2C250.3,24.7,250.3,24.7,250.4,24.8z M249,23.4L249,23.4c0.1,0,0.1,0,0.2,0.1C249.2,23.4,249.1,23.4,249,23.4
		z M245.9,21.2c0.2,0.1,0.3,0.2,0.5,0.2C246.3,21.3,246.1,21.3,245.9,21.2c-0.1,0-0.1,0-0.2-0.1C245.8,21.1,245.9,21.2,245.9,21.2z
		 M243.8,20.2c0.2,0,0.3,0.1,0.4,0.2C244.1,20.3,244,20.2,243.8,20.2c-0.1,0-0.2-0.1-0.3-0.1C243.6,20.1,243.7,20.2,243.8,20.2z
		 M226.9,18.6c0.2-0.1,0.4-0.1,0.6-0.1C227.2,18.5,227.1,18.6,226.9,18.6c-0.1,0-0.3,0-0.4,0C226.6,18.7,226.7,18.7,226.9,18.6z
		 M224.2,19.1c0.4-0.1,0.7-0.2,1.1-0.3C225,18.9,224.6,19,224.2,19.1c-0.1,0-0.2,0-0.3,0C224,19.1,224.1,19.1,224.2,19.1z
		 M222.2,19.6c0.3-0.2,0.7-0.4,1-0.4C222.9,19.2,222.5,19.4,222.2,19.6c-0.1,0-0.3,0-0.4,0C221.9,19.6,222.1,19.6,222.2,19.6z
		 M221.2,19.7c-0.1,0-0.3,0.1-0.4,0.2C221,19.8,221.1,19.7,221.2,19.7z M217.8,21.1c0.3-0.2,0.5-0.4,0.8-0.5c0.1,0,0.2-0.1,0.3-0.1
		s0.2,0,0.3,0c0.1-0.1,0.2-0.2,0.3-0.3c-0.1,0.1-0.2,0.2-0.3,0.3c-0.1,0-0.2,0-0.3,0s-0.2,0-0.3,0.1C218.3,20.7,218.1,21,217.8,21.1
		c-0.1,0-0.1,0-0.2,0C217.7,21.2,217.7,21.1,217.8,21.1z M217,21.6c0.1-0.1,0.3-0.3,0.4-0.3C217.3,21.3,217.2,21.4,217,21.6
		c-0.1,0-0.2,0.1-0.3,0.1C216.9,21.6,216.9,21.6,217,21.6z M215.5,22.6c0.2-0.4,0.6-0.5,0.9-0.7C216.1,22,215.7,22.2,215.5,22.6
		c-0.1,0-0.1,0.1-0.2,0.1C215.4,22.7,215.4,22.6,215.5,22.6z M212.7,25.5c0-0.1,0.1-0.2,0.2-0.3C212.7,25.3,212.7,25.3,212.7,25.5
		l-0.1,0.1C212.6,25.5,212.6,25.5,212.7,25.5z M210.4,31.6c-0.1,0.3,0,0.6,0.1,0.9c0,1.1,0,2.1,0,3.2c0-1.1,0-2.1,0-3.2
		C210.3,32.2,210.3,31.9,210.4,31.6z M210.9,39.4c-0.1-0.4-0.2-0.8-0.3-1.2C210.7,38.6,210.8,39,210.9,39.4c0,0.1,0,0.1,0,0.2
		C210.9,39.5,210.9,39.4,210.9,39.4z M213.4,44.7c-0.4-0.3-0.7-0.8-0.8-1.2c-0.1-0.1-0.1-0.2-0.2-0.3c-0.4-0.5-0.6-1-0.8-1.6
		c0.2,0.6,0.4,1.1,0.8,1.6c0.1,0.1,0.1,0.2,0.2,0.3C212.7,43.9,213,44.3,213.4,44.7L213.4,44.7L213.4,44.7z M213.9,45.2
		c-0.1,0-0.2-0.1-0.3-0.2C213.6,45.1,213.7,45.2,213.9,45.2C213.9,45.2,213.9,45.3,213.9,45.2C213.9,45.3,213.9,45.2,213.9,45.2z
		 M214.3,45.7c-0.1-0.1-0.2-0.1-0.3-0.2C214.1,45.6,214.2,45.7,214.3,45.7c0.1,0.1,0.2,0.2,0.3,0.3C214.5,46,214.4,45.9,214.3,45.7z
		 M214.7,46.3c0.1,0.1,0.1,0.1,0.2,0.1l0.1,0.1l-0.1-0.1C214.9,46.4,214.8,46.4,214.7,46.3z M215.8,47.2c-0.1,0-0.2-0.1-0.3-0.2
		C215.6,47.1,215.7,47.2,215.8,47.2L215.8,47.2c0.1,0,0.1,0.1,0.2,0.1C216,47.3,215.9,47.2,215.8,47.2z M217.8,48.7
		c-0.4-0.3-0.9-0.4-1.2-0.9C216.9,48.3,217.4,48.5,217.8,48.7C217.9,48.7,217.9,48.7,217.8,48.7C217.9,48.7,217.9,48.7,217.8,48.7z
		 M219.5,49.7c-0.1,0-0.2-0.1-0.3-0.1C219.3,49.6,219.4,49.7,219.5,49.7s0.2,0.1,0.3,0.1C219.7,49.8,219.6,49.7,219.5,49.7z
		 M220.3,50c-0.1,0-0.3,0-0.4-0.1C220,50,220.1,50,220.3,50c0.1,0.1,0.1,0.1,0.2,0.1C220.4,50.1,220.3,50.1,220.3,50z M231.2,53.7
		c-0.4,0-0.7-0.1-1-0.2C230.5,53.6,230.8,53.7,231.2,53.7c0.1,0,0.2,0,0.3,0C231.4,53.7,231.3,53.7,231.2,53.7z M235.6,55.4h-0.1
		C235.5,55.4,235.5,55.4,235.6,55.4c0.1,0.1,0.2,0.1,0.3,0.2C235.8,55.5,235.7,55.5,235.6,55.4z M239.9,59.2
		c-0.2-0.3-0.4-0.5-0.5-0.8v-0.1c-0.4-0.4-0.9-0.9-1.3-1.4l0,0c-0.1,0-0.1,0-0.2,0c0,0,0.1,0,0.2,0l0,0c0.4,0.4,0.9,0.9,1.3,1.4v0.1
		C239.5,58.7,239.7,58.9,239.9,59.2c0,0.1,0,0.1,0.1,0.2c0.1,0,0.1,0.1,0.2,0.1c0,0-0.1-0.1-0.2-0.1c0,0.1,0,0.1,0.1,0.2
		c0-0.1,0-0.1-0.1-0.2C240,59.3,239.9,59.3,239.9,59.2z M239.2,64.2c0.1-0.2,0.2-0.5,0.4-0.6C239.4,63.7,239.3,63.9,239.2,64.2
		c-0.1,0-0.2,0.1-0.3,0.1C239,64.3,239.1,64.2,239.2,64.2z M237.3,65.1L237.3,65.1c0.2-0.2,0.5-0.3,0.8-0.4
		C237.8,64.8,237.6,64.9,237.3,65.1z M225.4,62.4c0.6,0.6,1.1,1.2,1.7,1.7C226.5,63.6,225.9,63,225.4,62.4
		C225.4,62.4,225.3,62.4,225.4,62.4C225.3,62.4,225.4,62.4,225.4,62.4z M210.5,57.9c0-0.1,0.1-0.2,0.1-0.2S210.5,57.8,210.5,57.9
		c0,0.1,0,0.1-0.1,0.2C210.4,58,210.5,57.9,210.5,57.9z M210.5,61.6c-0.1-0.2-0.1-0.5-0.1-0.7C210.3,61.1,210.4,61.4,210.5,61.6
		c0,0.1,0,0.2,0,0.3C210.5,61.8,210.5,61.7,210.5,61.6z M212.4,68.8c-0.2-0.2-0.3-0.4-0.4-0.7C212.1,68.4,212.2,68.6,212.4,68.8
		c0,0.1,0,0.1,0,0.2C212.4,68.9,212.4,68.8,212.4,68.8z M212.8,69.6c-0.1-0.1-0.3-0.2-0.3-0.4C212.6,69.3,212.7,69.4,212.8,69.6
		c0,0.1,0,0.1,0.1,0.2C212.9,69.7,212.9,69.6,212.8,69.6z M213.8,71c-0.3-0.2-0.5-0.4-0.7-0.7C213.3,70.5,213.5,70.8,213.8,71
		c0.1,0.1,0.1,0.2,0.2,0.3C213.9,71.2,213.9,71.1,213.8,71z M214.4,71.7c-0.2,0-0.3-0.2-0.3-0.3C214.2,71.6,214.2,71.7,214.4,71.7
		L214.4,71.7L214.4,71.7z M215,72.4c0.1,0,0.1,0.1,0.2,0.1l0,0C215.1,72.5,215.1,72.5,215,72.4z M216.5,73.6
		c-0.1-0.1-0.2-0.1-0.4-0.2C216.3,73.5,216.4,73.5,216.5,73.6s0.2,0.1,0.3,0.2C216.7,73.7,216.6,73.6,216.5,73.6z M222.4,76.2
		c-0.3,0-0.6-0.1-0.8-0.2C221.8,76.1,222,76.2,222.4,76.2c0.1,0,0.1,0,0.2,0C222.5,76.2,222.4,76.2,222.4,76.2z M225,76.7
		c-0.1,0.1-0.2,0.1-0.4,0C224.8,76.8,224.9,76.8,225,76.7c0.2,0,0.4,0,0.6,0.1C225.4,76.7,225.2,76.7,225,76.7z M240.6,76.7
		c-0.3,0.2-0.6,0.2-0.9,0.3C240,77,240.3,76.9,240.6,76.7c0.2,0,0.4,0,0.6,0C241,76.7,240.8,76.7,240.6,76.7z M241.6,76.7
		L241.6,76.7c-0.1,0.1-0.1,0.1-0.2,0.1C241.5,76.8,241.6,76.7,241.6,76.7z M244.8,75.8L244.8,75.8c-0.3,0.1-0.5,0.3-0.8,0.4
		C244.3,76.1,244.6,75.9,244.8,75.8z M246,75.3c-0.2,0.3-0.4,0.4-0.7,0.5C245.6,75.7,245.8,75.6,246,75.3c0.1,0,0.1,0,0.2,0
		C246.1,75.3,246,75.3,246,75.3z M246.4,75.2c-0.1,0.1-0.1,0.1-0.2,0.1C246.3,75.3,246.4,75.3,246.4,75.2c0.1,0,0.2-0.1,0.3-0.1
		C246.6,75.2,246.5,75.2,246.4,75.2z M247.6,74.7c-0.1,0.1-0.1,0.1-0.2,0.1C247.5,74.8,247.6,74.8,247.6,74.7z M248.2,74.3
		c0,0.1-0.1,0.2-0.3,0.2C248,74.5,248.1,74.4,248.2,74.3c0.2,0,0.4-0.1,0.5-0.2C248.5,74.2,248.3,74.3,248.2,74.3z M249,73.8
		C249,73.9,249,73.9,249,73.8C249,73.9,249,73.9,249,73.8c0.1,0,0.2-0.1,0.3-0.1C249.2,73.7,249.1,73.8,249,73.8z M249.7,73.3
		c-0.1,0.1-0.1,0.2-0.3,0.3C249.6,73.6,249.6,73.4,249.7,73.3c0.1-0.1,0.2-0.1,0.3-0.2C249.9,73.2,249.8,73.2,249.7,73.3z
		 M250.2,72.9c0,0.1-0.1,0.2-0.2,0.2C250.2,73,250.2,73,250.2,72.9L250.2,72.9c0.1-0.1,0.2-0.2,0.3-0.2
		C250.5,72.7,250.4,72.8,250.2,72.9z M251.3,71.8c-0.1,0.2-0.2,0.3-0.3,0.5C251.1,72.2,251.2,72,251.3,71.8c0-0.1,0.1-0.1,0.1-0.2
		C251.4,71.7,251.4,71.8,251.3,71.8z M251.8,71.3c0,0.1-0.1,0.2-0.2,0.3C251.7,71.5,251.8,71.4,251.8,71.3s0.1-0.1,0.1-0.2
		C251.9,71.2,251.8,71.2,251.8,71.3z M253.8,67.5c0,0.4-0.2,0.6-0.4,0.9C253.2,68,253.6,67.8,253.8,67.5z M254.3,65.8
		c0,0.6-0.3,1-0.4,1.6C253.6,66.7,253.9,66.2,254.3,65.8z M254.6,62.8c-0.1,0.3,0,0.6-0.1,1c0,0.2,0,0.4-0.2,0.5c0,0.2,0,0.5,0,0.7
		c0.1,0.2,0.1,0.4,0,0.6c-0.2-0.2,0-0.4,0-0.6s0-0.5,0-0.7c-0.1-1.5-0.1-2.9,0-4.4c0-0.2,0-0.4,0-0.6c0-0.3-0.3-0.6,0-0.9
		c0.2,0.3,0.1,0.6,0,0.9c0,0.2,0,0.4,0,0.6c0,0.1,0.1,0.1,0.1,0.2C254.4,61,254.7,61.9,254.6,62.8z"/>
</g>
<g>
	<path class="st0" d="M467.8,58.6c-0.1-0.5,0.1-1.1-0.1-1.5c-0.4-0.8-0.4-1.7-0.8-2.6c-0.5-1.2-1-2.3-1.7-3.4
		c-0.9-1.3-2-2.4-3.3-3.4c-1-0.8-2-1.4-3.1-2c-0.9-0.5-1.9-0.9-2.9-1.2c-0.7-0.2-1.5-0.7-2.3-0.7c-0.1,0-0.3,0-0.4-0.1
		c-0.3-0.3-0.6-0.3-1-0.3c-0.8-0.1-1.6-0.4-2.4-0.6c-0.9-0.3-2-0.2-2.8-0.8c-0.1,0-0.2,0-0.3,0c-0.8,0-1.5-0.4-2.2-0.7
		c-0.6-0.2-1.2-0.4-1.8-0.7c-0.8-0.4-1.6-0.7-2.3-1.2c-1.3-0.8-2.2-2.1-2.5-3.7c-0.6-2.6,1.3-4.4,3.7-4.8c0.2,0,0.4,0,0.6-0.1
		c2.2-0.7,4.4-0.3,6.7,0.2c0.1,0,0.2,0,0.2,0.1c0.4,0.4,1.1,0.5,1.5,0.8c0.5,0.4,0.9,0.9,1.2,1.4c0.4,0.6,0.5,1.2,0.7,1.9
		c0.5,1.5,0.2,3-0.6,4.3c-0.1,0.2-0.2,0.3-0.1,0.5s0.3,0.2,0.5,0.2c1.2,0,2.3,0,3.5,0c3.2,0,6.3,0,9.5,0c0.4,0,0.7,0,0.9-0.4
		c0.5-1,0.9-2.1,1-3.3c0.2-1.9,0.2-3.7-0.3-5.6c-0.2-0.6-0.4-1.2-0.5-1.8c-0.1-0.7-0.5-1.2-0.8-1.9c-0.3-0.7-0.8-1.4-1.3-2.1
		c-0.9-1.1-1.9-2.1-3-3c-0.8-0.6-1.8-1.1-2.7-1.6c-0.9-0.5-1.8-0.8-2.7-1.1c-0.9-0.3-1.8-0.7-2.8-0.7c-0.1,0-0.1,0-0.2,0
		c-1.3-0.5-2.7-0.5-4.1-0.6c-2.9-0.2-5.9-0.1-8.8,0.2c-1.3,0.1-2.6,0.6-4,0.6c-0.1,0-0.3,0.1-0.4,0.1c-0.8,0.4-1.7,0.4-2.5,0.8
		c-0.5,0.2-1.1,0.4-1.6,0.7c-0.5,0.2-1,0.5-1.5,0.8c-0.7,0.4-1.3,0.8-1.9,1.3c-1.1,0.8-1.9,1.8-2.7,2.9c-0.4,0.6-0.8,1.2-1,1.8
		c-0.2,0.7-0.5,1.4-0.7,2.1c-0.4,1.2-0.4,2.5-0.4,3.7c0,2.1-0.1,4.1,0.5,6.2c0.4,1.4,0.8,2.7,1.5,4s1.6,2.3,2.6,3.3
		c1.8,1.8,3.9,3.2,6.3,4.2c0.5,0.2,1,0.3,1.4,0.5c0.7,0.3,1.4,0.5,2.1,0.8c0.2,0.1,0.5,0,0.7,0.2c0.8,0.4,1.7,0.6,2.6,0.9
		c0.2,0,0.3,0.1,0.5,0.1c0.8,0.4,1.7,0.5,2.5,0.8c0.7,0.2,1.3,0.5,2,0.7c0.4,0.1,0.9,0.2,1.3,0.5c0.5,0.4,1.1,0.4,1.6,0.8
		c0.7,0.4,1.4,0.7,2,1.1c1,0.8,1.9,1.7,2.3,3.1c0.3,1.2,0.3,2.4-0.5,3.4c-0.6,0.8-1.6,1.2-2.5,1.4c-1,0.3-2.2,0.3-3.3,0.4
		c-0.9,0.1-1.8-0.2-2.7-0.2c-1.6-0.1-3.1-0.6-4.4-1.6c-0.6-0.5-1.1-1.1-1.4-1.9c-0.4-1-0.6-2.1-0.5-3.2c0.1-0.9-0.1-1-1-1
		c-4.2,0-8.3,0-12.5,0c-0.9,0-1.1,0.1-1,1c0,1.5,0.1,3,0.1,4.5c0,0.1,0,0.3,0.1,0.4c0.4,1,0.4,2.1,0.8,3.1c0.2,0.6,0.4,1.4,0.7,2
		c0.5,1.1,1.1,2.2,2,3.1c0.7,0.8,1.5,1.6,2.3,2.2s1.7,1.1,2.6,1.5c1,0.5,2.1,0.9,3.2,1.2c1.1,0.2,2.1,0.8,3.2,0.6
		c1.7,0.7,3.5,0.4,5.2,0.7c2.1,0.3,4.3,0.4,6.5-0.1c1-0.2,2,0,3-0.2c0.5-0.1,1-0.4,1.5-0.3c1.1,0.1,2-0.4,3-0.7
		c1-0.3,2.1-0.7,3.1-1.2c1.3-0.6,2.5-1.4,3.6-2.4c1.2-1.1,2.1-2.4,2.7-4c0.4-1.1,0.9-2.1,0.9-3.3c0-0.2-0.1-0.6,0.3-0.6
		c0-1.8,0-3.6,0-5.4C467.7,59.3,467.8,58.9,467.8,58.6z"/>
	<path class="st0" d="M358.4,29.9c-0.6-1.6-1.3-3.1-2.4-4.4c-1.1-1.4-2.3-2.6-3.8-3.6c-1.1-0.7-2.2-1.3-3.3-1.7
		c-1.3-0.5-2.7-0.9-4.2-1.2c-2.1-0.5-4.3-0.4-6.4-0.7c-0.7-0.1-1.3,0.1-1.9,0.2c-3,0.1-6,0.5-8.9,1.6c-1.5,0.6-3,1.3-4.3,2.2
		c-2.2,1.6-4,3.7-5.1,6.2c-0.9,1.8-1.4,3.7-1.8,5.7c-0.3,1.7-0.5,3.5-0.5,5.3c0,5.8,0,11.6-0.1,17.3c0,2.7,0.3,5.4,1.1,8
		c0.5,1.8,1.3,3.5,2.3,5.1c1.4,2.1,3.3,3.8,5.5,5c1.4,0.7,2.9,1.3,4.4,1.7c1.8,0.4,3.6,0.8,5.4,0.9c3.1,0.1,6.2,0.2,9.3-0.3
		c1.7-0.3,3.3-0.6,4.9-1.2c1.5-0.6,2.9-1.3,4.2-2.3c1.9-1.4,3.4-3.2,4.4-5.3c0.7-1.4,1.3-3,1.7-4.6c0.4-2,0.8-4,0.8-6
		c0-3.4,0-6.8,0-10.2h0.1c0-2.6,0-5.1,0-7.7C359.9,36.4,359.6,33.1,358.4,29.9z M345.7,48.2c-0.1,2.9,0,6.1-0.1,9.1
		c-0.1,1.5-0.4,3-1,4.3c-0.7,1.4-1.9,2.3-3.4,2.9c-1.6,0.6-3.3,0.6-5,0.4c-2.1-0.2-3.9-1.1-5.1-3c-0.6-1-0.8-2.2-1-3.3
		c-0.2-1.2-0.2-2.4-0.2-3.7c0-5.3,0-10.7,0.1-16c0-2.1,0.6-4.1,1.9-5.7c0.8-1,1.8-1.6,3-2.1c1.6-0.6,3.3-0.6,5-0.4
		c1.8,0.2,3.3,1.2,4.4,2.7c1,1.5,1.4,3.1,1.5,4.9C345.9,41.6,345.6,44.8,345.7,48.2z"/>
	<path class="st0" d="M304.5,18.4c-4.3,0-8.7,0-13,0c-0.6,0-0.8,0.2-0.8,0.8c0,3.8,0,7.7-0.1,11.6c-0.1,4.2,0,8.5,0,12.7l0,0
		c0,3.5,0,6.9,0,10.4c0,1.6,0,3.2-0.3,4.9c-0.2,1.2-0.4,2.3-1.1,3.3c-0.5,0.8-1.2,1.4-2,1.9c-0.6,0.3-1.3,0.4-1.8,0.6
		c-1.8,0.7-3.5,0.1-5.2-0.2c-0.1,0-0.1,0-0.1-0.1c-0.4-0.3-1-0.5-1.4-0.8c-1-0.9-1.8-1.9-2-3.2c0-0.3-0.1-0.5-0.2-0.7
		c-0.2-0.4-0.2-0.9-0.3-1.4c-0.1-1.6-0.1-3.1-0.1-4.7c0-0.7-0.1-0.7-0.7-0.7c-1.5,0-3,0-4.6,0c-2.8,0-5.7,0-8.5,0
		c-0.5,0-0.7,0.2-0.8,0.6c0,0.2,0,0.3,0,0.5c0,3.2-0.1,6.5,0.2,9.7c0,0.1,0,0.3,0.1,0.4c0.5,0.8,0.4,1.8,0.8,2.7
		c0.4,0.9,0.8,1.9,1.2,2.7c0.5,1,1.1,1.9,1.9,2.6c0.6,0.6,1.1,1.1,1.8,1.6c0.9,0.7,1.9,1.3,3,1.8c0.5,0.2,0.9,0.5,1.4,0.6
		c0.7,0.1,1.5,0.4,2.1,0.7c1,0.4,2,0.5,2.9,0.6c1.6,0.3,3.2,0.4,4.9,0.5c1.9,0.1,3.8-0.1,5.8-0.3c1.3-0.1,2.6-0.5,4-0.6
		c0.4,0,0.7-0.4,1.1-0.4c0.8,0,1.4-0.4,2-0.7c0.8-0.3,1.7-0.7,2.5-1.2c1.1-0.7,2-1.4,2.9-2.3c0.8-0.7,1.3-1.6,1.9-2.4
		c0.4-0.6,0.8-1.3,1.1-2c0.2-0.6,0.5-1.2,0.7-1.8c0.3-0.9,0.5-1.9,0.7-2.8c0.2-0.7,0.1-1.4,0.3-2.1c0.2-0.6,0.3-1.3,0.3-1.9
		c0-10.2,0-20.4,0.1-30.5c0-0.3,0-0.6,0-0.8c0-2.9,0-5.8,0-8.6C305.2,18.7,305.1,18.4,304.5,18.4z"/>
	<path class="st0" d="M414.4,55.3c-0.1-0.3,0.1-0.6-0.2-0.8c-0.4-0.4-0.5-1-0.8-1.5c-0.5-0.8-1.1-1.5-1.7-2.2
		c-0.9-0.9-1.8-1.7-3-2.3c-0.5-0.2-1-0.4-1.5-0.6c-0.2-0.1-0.7,0.2-0.7-0.2c0-0.3,0.4-0.1,0.6-0.2h0.1c1.7-0.7,2.8-2,3.7-3.5
		c0.2-0.4,0.3-0.8,0.6-1.2c0.5-0.7,0.6-1.5,0.7-2.2c0.3-1.3,0.2-2.7,0.3-4c0.1-2.1-0.1-4.3-0.2-6.4c0-0.2,0-0.4-0.2-0.6
		c-0.2-0.3-0.3-0.6-0.3-0.9c0-0.2,0-0.5-0.2-0.7c-0.4-0.5-0.4-1.1-0.8-1.6c-0.3-0.4-0.6-1-0.9-1.5c-0.5-0.7-1.1-1.2-1.6-1.8
		c-0.6-0.6-1.3-1.2-2-1.6c-0.8-0.4-1.5-0.9-2.4-1.2c-0.8-0.3-1.6-0.6-2.4-0.8c-0.5-0.1-0.9-0.3-1.4-0.3c-1.6-0.2-3.1-0.5-4.7-0.5
		c-7.7-0.1-15.4,0-23.1,0c-0.7,0-1,0.3-1,1c0,2.9,0,5.9-0.1,8.8c-0.1,7.9,0,15.7,0,23.6l0,0c0,8,0,15.9,0,23.9c0,0.8,0,0.8,0.8,0.8
		c9.5,0,19,0.1,28.6-0.1c0.7,0,1.4,0,2.1-0.3c0.2-0.1,0.5-0.1,0.8-0.1c0.9,0,1.6-0.4,2.4-0.7c0.6-0.2,1.2-0.5,1.8-0.8
		c0.7-0.4,1.4-0.8,2-1.2c1-0.8,1.8-1.7,2.5-2.7c0.4-0.6,0.8-1.2,1.1-1.9c0.2-0.6,0.5-1.3,0.7-1.9c0.4-1.1,0.3-2.3,0.8-3.4
		C414.6,60.7,415.3,57.9,414.4,55.3z M398.3,62.7c-1.3,0.9-2.8,1.1-4.2,1.2c-2.6,0.1-5.2,0-7.8,0.1c-0.5,0-0.5-0.4-0.5-0.7
		c0-1.1,0-2.2,0-3.2c0-0.6,0-1.1,0-1.7c0-1.6,0-3.2,0-4.8c0-0.5,0.2-0.7,0.7-0.7c2.6,0,5.2-0.1,7.8,0.1c2,0.1,3.8,0.7,5.1,2.4
		C401,57.6,401.2,60.8,398.3,62.7z M385.9,37.2L385.9,37.2c0-1.7,0-3.4,0-5.2c0-0.5,0.2-0.7,0.7-0.7c1.9,0,3.9-0.1,5.8,0
		c2,0.1,3.7,1,4.8,2.8c1.1,1.7,1.2,3.7,0.8,5.6c-0.3,1.4-1.3,2.3-2.7,2.8c-1.2,0.5-2.4,0.5-3.6,0.5c-1.7,0-3.3,0-5,0
		c-0.5,0-0.7-0.2-0.7-0.7C386,40.6,385.9,38.9,385.9,37.2z"/>
</g>
</svg>
