<?xml version="1.0" encoding="utf-8"?>
<!-- Generator: Adobe Illustrator 17.0.0, SVG Export Plug-In . SVG Version: 6.00 Build 0)  -->
<!DOCTYPE svg PUBLIC "-//W3C//DTD SVG 1.1//EN" "http://www.w3.org/Graphics/SVG/1.1/DTD/svg11.dtd">
<svg version="1.1" id="Layer_1" xmlns="http://www.w3.org/2000/svg" xmlns:xlink="http://www.w3.org/1999/xlink" x="0px" y="0px"
	 width="475px" height="226.489px" viewBox="0 0 475 226.489" enable-background="new 0 0 475 226.489" xml:space="preserve">
<path fill="#292A29" d="M356.833,173.046c-0.891-0.322-0.891-0.322-0.891-1.351c0.001-0.757,0.001-0.757,0.714-0.522
	c1.123,0.37,2.017-0.077,2.37-1.201c0.16-0.508,0.232-1.033,0.232-1.569c-0.002-2.659,0.015-5.319-0.008-7.978
	c-0.005-0.542,0.18-0.7,0.702-0.687c1.376,0.033,1.263-0.14,1.248,1.23c-0.03,2.713,0.099,5.429-0.073,8.14
	c-0.118,1.864-1.188,3.322-2.694,3.779c-0.166,0.05-0.377-0.025-0.499,0.159C357.567,173.046,357.2,173.046,356.833,173.046z"/>
<path fill="#A82256" d="M98.734,100.738c-1.206-5.707-4.371-10.064-9.243-13.163c-3.424-2.178-7.202-3.229-11.296-3.255
	c-7.998-0.05-15.995-0.197-23.992-0.304c-6.989-0.094-13.977-0.188-20.966-0.282c-0.006-0.031-0.008-0.063-0.006-0.094
	c-0.844,0-1.688,0-2.532,0c-0.918,0-1.835,0-2.753,0c-0.33,0-0.661,0-0.991,0c-2.246,0.256-4.429,0.759-6.512,1.653
	c-4.165,1.787-7.444,4.567-9.769,8.498c-1.868,3.159-2.732,6.55-2.771,10.19c-0.123,11.35-0.253,22.7-0.381,34.05
	c-0.022,1.944-0.047,3.887-0.071,5.831c-0.032-0.001-0.063,0.001-0.095,0.006c0,1.211,0,2.422,0,3.633c0,1.248,0,2.496,0,3.744
	c0,0.771,0,1.541,0,2.312c0.118,0.093,0.086,0.232,0.105,0.354c0.251,1.649,0.56,3.291,1.178,4.843
	c2.197,5.519,6.057,9.439,11.52,11.755c2.236,0.948,4.575,1.559,7.017,1.645c1.87,0.066,3.742,0.06,5.613,0.084
	c5.521,0.071,11.042,0.139,16.564,0.211c8.841,0.115,17.683,0.207,26.523,0.364c2.765,0.049,5.512-0.028,8.164-0.832
	c5.379-1.632,9.582-4.806,12.338-9.769c1.59-2.864,2.488-5.91,2.479-9.221c-0.014-5.1,0.038-10.2,0.061-15.3
	c0.052-11.264,0.105-22.528,0.157-33.792C99.08,102.833,98.955,101.783,98.734,100.738z M59.117,132.779
	c-1.836,2.786-3.839,5.411-6.483,7.493c-1.664,1.31-3.469,2.394-5.388,3.272c-0.762,0.349-1.643,0.323-2.467,0.481
	c-3.055,0.586-6.104,1.212-9.172,1.717c-3.002,0.494-5.544,1.85-7.727,3.897c-2.076,1.947-3.702,4.245-4.976,6.795
	c-0.705,1.41-1.334,2.846-1.783,4.358c-0.031,0.104-0.017,0.227-0.166,0.243c-0.204,0.022-0.161-0.141-0.196-0.255
	c-0.497-1.603-0.675-3.257-0.8-4.921c-0.229-3.049-0.171-6.094,0.406-9.094c0.871-4.524,2.737-8.594,6.116-11.808
	c3.066-2.916,6.668-4.91,10.838-5.85c3.623-0.817,7.259-1.557,10.917-2.197c4.616-0.808,9.227-1.644,13.84-2.469
	c0.177-0.032,0.351-0.108,0.549-0.018C61.781,127.348,60.812,130.206,59.117,132.779z M86.723,98.638
	c-0.398,2.569-1.217,4.995-2.425,7.307c-1.544,2.955-3.868,5.159-6.484,7.139c-2.357,1.783-5.027,2.893-7.76,3.904
	c-2.026,0.749-4.168,0.955-6.272,1.333c-4.864,0.873-9.732,1.727-14.6,2.584c-3.01,0.53-6.013,1.115-9.037,1.556
	c-2.088,0.304-4.09,0.808-5.958,1.784c-1.906,0.996-3.379,2.428-4.27,4.415c-0.06,0.133-0.145,0.256-0.195,0.393
	c-0.052,0.141-0.155,0.233-0.281,0.209c-0.061-0.012-0.112-0.17-0.135-0.27c-0.555-2.371-1.169-4.734-1.07-6.741
	c-0.052-5.754,2.195-9.919,6.336-13.068c2.246-1.708,4.832-2.758,7.56-3.537c2.757-0.787,5.57-1.229,8.377-1.721
	c4.669-0.818,9.344-1.605,14.007-2.461c4.663-0.856,9.333-1.672,13.999-2.513c2.287-0.412,4.571-0.842,6.857-1.263
	c0.126-0.023,0.253-0.046,0.38-0.058C86.864,97.522,86.895,97.527,86.723,98.638z"/>
<path fill="#292A29" d="M119.344,162.616c0,3.272,0,6.389,0,9.505c0,0.693-0.001,0.698-0.714,0.694
	c-1.364-0.009-1.184,0.165-1.186-1.208c-0.006-3.723,0.008-7.447-0.013-11.17c-0.003-0.527,0.154-0.651,0.678-0.713
	c1.173-0.138,1.857,0.284,2.488,1.312c1.722,2.806,3.592,5.521,5.404,8.272c0.097,0.148,0.201,0.291,0.31,0.45
	c0.164-0.157,0.082-0.329,0.082-0.476c0.004-2.953,0.012-5.906-0.012-8.859c-0.004-0.544,0.193-0.694,0.708-0.684
	c1.409,0.028,1.255-0.124,1.256,1.281c0.002,3.687,0.001,7.373,0,11.06c0,0.724-0.022,0.658-0.742,0.754
	c-1.084,0.145-1.689-0.278-2.268-1.199c-1.792-2.85-3.703-5.625-5.569-8.429C119.66,163.043,119.541,162.889,119.344,162.616z"/>
<path fill="#292A29" d="M315.333,162.601c0,3.288-0.01,6.406,0.01,9.523c0.003,0.516-0.119,0.721-0.673,0.702
	c-1.422-0.048-1.235,0.167-1.237-1.224c-0.006-3.723,0.008-7.447-0.013-11.17c-0.003-0.531,0.162-0.647,0.682-0.709
	c1.176-0.141,1.856,0.289,2.485,1.315c1.723,2.805,3.592,5.521,5.404,8.272c0.097,0.147,0.2,0.29,0.318,0.461
	c0.135-0.177,0.073-0.344,0.073-0.494c0.002-2.953,0.011-5.906-0.013-8.859c-0.004-0.548,0.2-0.691,0.712-0.681
	c1.384,0.028,1.253-0.122,1.253,1.229c0,3.705,0,7.41,0,11.115c0,0.723-0.021,0.654-0.746,0.751
	c-1.085,0.144-1.688-0.282-2.266-1.202c-1.783-2.834-3.684-5.593-5.541-8.381C315.665,163.074,315.541,162.902,315.333,162.601z"/>
<path fill="#282828" d="M377.023,166.51c-0.01,1.732-0.53,3.648-2.217,5.032c-1.995,1.638-4.299,1.808-6.635,0.981
	c-2.237-0.792-3.395-2.557-3.757-4.868c-0.208-1.326-0.137-2.64,0.281-3.911c1.068-3.246,3.871-4.599,7.044-4.181
	C375.103,160.007,377.079,162.555,377.023,166.51z M375.015,166.354c0.003-0.617-0.027-1.145-0.125-1.671
	c-0.335-1.801-1.453-2.988-3.181-3.358c-1.812-0.388-3.578,0.244-4.516,1.764c-1.248,2.024-1.235,4.158-0.086,6.202
	c0.937,1.665,2.529,2.132,4.347,1.874c1.664-0.236,2.742-1.207,3.279-2.784C374.966,167.699,375.039,166.989,375.015,166.354z"/>
<path fill="#282828" d="M421.505,166.482c-0.01,1.708-0.504,3.577-2.101,4.96c-1.994,1.726-4.332,1.917-6.711,1.096
	c-2.262-0.78-3.44-2.559-3.797-4.896c-0.232-1.516-0.122-3.01,0.474-4.424c1.244-2.951,3.94-4.049,6.864-3.653
	C419.598,160.021,421.569,162.568,421.505,166.482z M419.5,166.416c-0.001-0.663-0.028-1.19-0.125-1.717
	c-0.34-1.843-1.508-3.064-3.274-3.399c-1.858-0.352-3.648,0.364-4.537,1.958c-1.107,1.984-1.102,4.05,0.016,6.02
	c0.944,1.663,2.521,2.141,4.341,1.889c1.665-0.231,2.748-1.194,3.289-2.771C419.445,167.715,419.521,167.005,419.5,166.416z"/>
<path fill="#282828" d="M310.188,166.504c-0.01,1.702-0.512,3.586-2.138,4.971c-1.988,1.693-4.31,1.881-6.669,1.067
	c-2.262-0.781-3.443-2.556-3.801-4.893c-0.233-1.516-0.123-3.009,0.472-4.425c1.239-2.948,3.931-4.053,6.86-3.659
	C308.275,160.016,310.249,162.562,310.188,166.504z M308.181,166.37c0.002-0.627-0.027-1.155-0.125-1.681
	c-0.334-1.803-1.45-2.991-3.178-3.361c-1.813-0.389-3.581,0.24-4.517,1.759c-1.247,2.023-1.245,4.156-0.091,6.202
	c0.939,1.665,2.527,2.135,4.345,1.878c1.664-0.234,2.744-1.203,3.282-2.78C308.131,167.704,308.205,166.994,308.181,166.37z"/>
<path fill="#282828" d="M386.371,165.81c1.779,0.774,2.49,1.935,2.276,3.717c-0.188,1.572-1.592,2.93-3.335,3.183
	c-1.55,0.225-3.113,0.064-4.669,0.103c-0.373,0.009-0.38-0.256-0.379-0.531c0.003-1.449,0.002-2.897,0.002-4.346
	c0-2.512,0.012-5.025-0.01-7.537c-0.004-0.511,0.159-0.678,0.664-0.658c1.373,0.055,2.75-0.064,4.122,0.088
	c1.509,0.166,2.762,1.186,2.937,2.465c0.186,1.357-0.216,2.496-1.385,3.301C386.511,165.651,386.373,165.665,386.371,165.81z
	 M382.166,168.969c0,0.586-0.001,1.172,0.001,1.758c0.001,0.157-0.046,0.351,0.221,0.337c0.981-0.05,1.979,0.145,2.939-0.201
	c0.923-0.333,1.376-1.018,1.345-2.025c-0.027-0.89-0.514-1.473-1.463-1.741c-0.913-0.258-1.85-0.184-2.782-0.199
	c-0.291-0.005-0.26,0.186-0.26,0.369C382.166,167.834,382.166,168.402,382.166,168.969z M383.296,161.494
	c-0.202,0-0.407,0.025-0.605-0.005c-0.45-0.07-0.556,0.124-0.535,0.544c0.034,0.659,0.009,1.32,0.009,1.981
	c0,1.186,0,1.19,1.212,1.178c0.683-0.007,1.353-0.069,1.932-0.498c0.678-0.502,0.81-1.209,0.676-1.964
	c-0.13-0.729-0.694-1.018-1.375-1.149C384.173,161.497,383.736,161.493,383.296,161.494z"/>
<path fill="#282828" d="M227.879,166.254c0-1.981,0.002-3.963-0.002-5.944c-0.001-0.301,0.016-0.569,0.414-0.561
	c1.776,0.034,3.558-0.103,5.328,0.166c3.741,0.57,5.189,3.026,5.128,6.429c-0.065,3.694-2.718,6.379-6.996,6.467
	c-1.082,0.022-2.165-0.017-3.247,0.013c-0.479,0.013-0.64-0.139-0.634-0.626C227.892,170.217,227.879,168.235,227.879,166.254z
	 M229.78,166.256c0,1.468,0.002,2.935-0.002,4.403c-0.001,0.231-0.026,0.426,0.322,0.412c0.933-0.04,1.867,0.035,2.8-0.111
	c1.829-0.286,3.229-1.481,3.666-3.193c0.226-0.882,0.239-1.787,0.109-2.678c-0.272-1.869-1.345-2.975-3.181-3.392
	c-1.068-0.242-2.15-0.182-3.23-0.211c-0.375-0.01-0.502,0.078-0.495,0.477C229.795,163.394,229.78,164.825,229.78,166.256z"/>
<path fill="#282828" d="M132.417,166.264c0-1.963,0.014-3.926-0.01-5.889c-0.006-0.487,0.151-0.649,0.632-0.634
	c1.703,0.051,3.41-0.085,5.107,0.172c3.738,0.568,5.196,3.011,5.139,6.421c-0.062,3.674-2.673,6.342-6.876,6.471
	c-1.155,0.035-2.312-0.005-3.467,0.016c-0.421,0.008-0.533-0.167-0.531-0.559C132.424,170.264,132.417,168.264,132.417,166.264z
	 M134.318,166.275c0,1.449,0.013,2.899-0.009,4.348c-0.006,0.368,0.104,0.466,0.459,0.449c0.604-0.03,1.211,0.005,1.816-0.018
	c2.509-0.095,4.159-1.427,4.611-3.737c0.138-0.706,0.127-1.43,0.032-2.139c-0.234-1.743-1.156-2.922-2.893-3.407
	c-1.24-0.346-2.507-0.266-3.769-0.277c-0.35-0.003-0.241,0.259-0.242,0.432C134.315,163.376,134.318,164.826,134.318,166.275z"/>
<path fill="#282828" d="M430.456,166.819c0.841,0.631,1.312,1.535,1.861,2.375c0.651,0.995,1.29,1.999,1.928,3.002
	c0.282,0.444,0.177,0.546-0.343,0.631c-1.143,0.188-1.859-0.208-2.36-1.279c-0.447-0.954-1.118-1.801-1.648-2.72
	c-0.675-1.169-1.686-1.539-2.972-1.408c-0.33,0.034-0.271,0.216-0.272,0.407c-0.001,1.449-0.021,2.899,0.01,4.347
	c0.011,0.521-0.173,0.663-0.669,0.649c-1.427-0.04-1.238,0.169-1.24-1.219c-0.006-3.724,0.008-7.448-0.013-11.171
	c-0.003-0.531,0.145-0.718,0.684-0.695c1.355,0.059,2.714-0.064,4.069,0.072c1.891,0.191,3.172,1.21,3.424,2.717
	c0.322,1.921-0.422,3.293-2.254,4.161C430.595,166.72,430.537,166.767,430.456,166.819z M426.649,163.576c0,0.275,0,0.55,0,0.825
	c0,1.276,0,1.273,1.265,1.277c0.695,0.002,1.39,0.038,2.026-0.336c0.785-0.462,1.155-1.299,0.999-2.31
	c-0.117-0.762-0.675-1.264-1.58-1.449c-0.8-0.163-1.608-0.049-2.411-0.092c-0.253-0.013-0.307,0.102-0.303,0.326
	C426.656,162.403,426.649,162.99,426.649,163.576z"/>
<path fill="#292A29" d="M337.748,172.816c-0.89,0-0.891,0-1.219-0.837c-0.3-0.765-0.612-1.525-0.89-2.298
	c-0.108-0.3-0.246-0.426-0.587-0.421c-1.486,0.022-2.972,0.017-4.458,0.002c-0.288-0.003-0.42,0.096-0.511,0.36
	c-0.33,0.948-0.684,1.888-1.019,2.834c-0.089,0.251-0.207,0.393-0.506,0.366c-0.346-0.03-0.697-0.005-1.045-0.008
	c-0.608-0.005-0.681-0.113-0.459-0.676c1.207-3.056,2.414-6.112,3.622-9.168c0.376-0.951,0.768-1.895,1.124-2.854
	c0.109-0.293,0.256-0.377,0.558-0.378c1.422-0.007,1.423-0.017,1.949,1.306c1.444,3.63,2.886,7.26,4.33,10.89
	c0.338,0.849,0.317,0.879-0.61,0.879C337.932,172.816,337.84,172.816,337.748,172.816z M330.889,167.519c1.342,0,2.603,0,3.921,0
	c-0.644-1.699-1.28-3.376-1.97-5.197C332.163,164.126,331.534,165.801,330.889,167.519z"/>
<path fill="#292A29" d="M456.988,172.816c-0.594,0.185-0.9-0.141-1.1-0.793c-0.25-0.818-0.63-1.595-0.922-2.402
	c-0.099-0.275-0.234-0.36-0.516-0.358c-1.504,0.012-3.009,0.014-4.513-0.002c-0.297-0.003-0.413,0.114-0.503,0.372
	c-0.324,0.931-0.681,1.85-0.999,2.783c-0.106,0.31-0.261,0.434-0.591,0.406c-0.346-0.03-0.697-0.002-1.045-0.008
	c-0.525-0.009-0.61-0.137-0.413-0.635c1.288-3.259,2.579-6.518,3.868-9.777c0.296-0.747,0.606-1.489,0.88-2.243
	c0.109-0.3,0.243-0.423,0.585-0.422c1.413,0.004,1.414-0.011,1.943,1.318c1.45,3.647,2.9,7.294,4.349,10.942
	c0.302,0.76,0.264,0.817-0.536,0.818C457.349,172.816,457.221,172.816,456.988,172.816z M454.172,167.536
	c-0.655-1.726-1.29-3.399-1.976-5.207c-0.654,1.73-1.258,3.327-1.862,4.925c-0.081,0.215-0.009,0.288,0.221,0.286
	C451.741,167.532,452.928,167.536,454.172,167.536z"/>
<path fill="#292A29" d="M272.867,159.748c0.924,0,0.924,0,1.264,0.859c1.518,3.836,3.037,7.672,4.555,11.508
	c0.245,0.62,0.192,0.696-0.475,0.7c-1.368,0.008-1.368,0.008-1.864-1.266c-0.245-0.629-0.506-1.253-0.729-1.89
	c-0.099-0.283-0.227-0.402-0.545-0.399c-1.486,0.018-2.972,0.018-4.458,0c-0.31-0.004-0.45,0.096-0.549,0.384
	c-0.32,0.932-0.681,1.85-0.996,2.784c-0.109,0.324-0.285,0.417-0.602,0.391c-0.31-0.025-0.623-0.004-0.935-0.006
	c-0.661-0.003-0.72-0.088-0.479-0.697c1.516-3.837,3.033-7.674,4.548-11.511C271.943,159.748,271.942,159.748,272.867,159.748z
	 M272.836,162.333c-0.172,0.445-0.29,0.746-0.404,1.05c-0.468,1.247-0.937,2.494-1.397,3.744c-0.055,0.149-0.297,0.405,0.126,0.407
	c1.199,0.006,2.398,0.002,3.649,0.002C274.151,165.798,273.519,164.132,272.836,162.333z"/>
<path fill="#292A29" d="M161.922,172.816c-0.903,0-0.903,0-1.227-0.825c-0.313-0.799-0.64-1.593-0.934-2.398
	c-0.093-0.254-0.223-0.33-0.481-0.328c-1.523,0.01-3.045,0.013-4.568-0.003c-0.28-0.003-0.383,0.125-0.463,0.349
	c-0.332,0.928-0.685,1.849-1.001,2.782c-0.112,0.331-0.274,0.468-0.628,0.43c-0.308-0.033-0.623-0.005-0.935-0.007
	c-0.636-0.004-0.696-0.099-0.454-0.713c1.05-2.667,2.1-5.334,3.151-8c0.516-1.307,1.046-2.61,1.547-3.923
	c0.121-0.317,0.269-0.446,0.628-0.442c1.385,0.013,1.385-0.003,1.902,1.297c1.443,3.63,2.886,7.26,4.33,10.89
	c0.339,0.853,0.315,0.891-0.592,0.891C162.106,172.816,162.014,172.816,161.922,172.816z M158.971,167.52
	c-0.647-1.706-1.283-3.381-1.972-5.199c-0.679,1.812-1.308,3.488-1.949,5.199C156.398,167.52,157.659,167.52,158.971,167.52z"/>
<path fill="#292A29" d="M247.725,172.942c-0.664-0.001-1.329-0.002-1.993-0.003c-2.153-0.208-3.618-1.728-3.857-3.967
	c-0.164-1.538-0.071-3.078-0.09-4.617c-0.017-1.338,0.007-2.677-0.009-4.016c-0.005-0.417,0.131-0.603,0.568-0.596
	c1.585,0.026,1.388-0.178,1.392,1.36c0.005,2.109-0.001,4.218,0.003,6.327c0.001,0.385-0.009,0.774,0.047,1.153
	c0.341,2.325,1.904,2.908,3.783,2.646c1.475-0.205,2.306-1.192,2.34-2.794c0.055-2.639,0.034-5.28,0.044-7.921
	c0.003-0.766,0.001-0.765,0.77-0.767c1.314-0.003,1.176-0.091,1.176,1.184c0,2.127-0.002,4.254,0.001,6.382
	c0.001,0.883-0.077,1.757-0.338,2.604C251.016,171.687,249.591,172.805,247.725,172.942z"/>
<path fill="#292A29" d="M194.194,166.883c0.697,0,1.356,0.01,2.015-0.004c0.38-0.008,0.482,0.159,0.42,0.509
	c-0.147,0.823-0.142,0.824-1.004,0.824c-0.404,0-0.812,0.039-1.21-0.01c-0.437-0.054-0.559,0.161-0.634,0.524
	c-0.177,0.859-0.389,1.711-0.562,2.572c-0.064,0.32-0.181,0.445-0.535,0.44c-1.133-0.014-1.135,0.004-0.892-1.113
	c0.152-0.697,0.289-1.397,0.475-2.085c0.084-0.31-0.026-0.321-0.275-0.331c-1.477-0.06-1.479-0.066-1.809,1.361
	c-0.132,0.57-0.273,1.139-0.367,1.716c-0.054,0.331-0.16,0.456-0.522,0.453c-1.152-0.01-1.15,0.008-0.898-1.114
	c0.152-0.678,0.269-1.365,0.457-2.033c0.105-0.371-0.033-0.392-0.326-0.382c-0.477,0.016-0.954-0.005-1.431,0.007
	c-0.382,0.009-0.533-0.12-0.446-0.528c0.17-0.8,0.155-0.804,0.989-0.804c0.11,0,0.22,0,0.33,0c1.264,0,1.264,0,1.507-1.229
	c0.198-1,0.198-1-0.817-1c-0.312,0-0.624-0.01-0.936,0.002c-0.412,0.016-0.504-0.199-0.445-0.558
	c0.13-0.789,0.126-0.789,0.959-0.789c0.459,0,0.918-0.01,1.376,0.004c0.264,0.008,0.378-0.072,0.433-0.354
	c0.181-0.933,0.429-1.854,0.594-2.789c0.065-0.365,0.212-0.429,0.538-0.429c1.136,0.001,1.133-0.011,0.886,1.079
	c-0.158,0.695-0.291,1.396-0.464,2.088c-0.084,0.338,0.026,0.4,0.342,0.408c1.43,0.034,1.432,0.043,1.76-1.371
	c0.136-0.588,0.284-1.174,0.383-1.768c0.057-0.343,0.199-0.489,0.542-0.43c0.036,0.006,0.073,0.001,0.11,0.001
	c0.975-0.002,0.979-0.001,0.783,0.938c-0.157,0.752-0.312,1.504-0.498,2.249c-0.078,0.314,0.015,0.387,0.309,0.378
	c0.477-0.016,0.954,0.001,1.431-0.006c0.395-0.005,0.573,0.102,0.457,0.559c-0.199,0.782-0.173,0.788-0.957,0.788
	c-0.165,0-0.33,0-0.495,0c-1.115,0-1.114,0-1.34,1.12C194.357,166.13,194.279,166.484,194.194,166.883z M191.727,166.883
	c0.913,0,0.915,0,1.12-0.899c0.061-0.266,0.074-0.547,0.169-0.799c0.166-0.439,0.046-0.582-0.414-0.538
	c-0.433,0.041-0.965-0.12-1.279,0.082c-0.321,0.206-0.251,0.791-0.355,1.209C190.732,166.882,190.737,166.883,191.727,166.883z"/>
<path fill="#282828" d="M398.213,166.269c0-1.943,0.016-3.885-0.011-5.828c-0.007-0.52,0.126-0.724,0.676-0.703
	c1.445,0.054,2.901-0.101,4.336,0.125c2.07,0.326,3.226,1.621,3.355,3.655c0.123,1.941-1.075,3.638-2.98,4.239
	c-0.963,0.303-1.954,0.278-2.94,0.251c-0.435-0.012-0.556,0.112-0.545,0.547c0.03,1.227-0.002,2.456,0.018,3.683
	c0.007,0.42-0.118,0.596-0.562,0.585c-1.586-0.039-1.332,0.204-1.344-1.33C398.203,169.751,398.213,168.01,398.213,166.269z
	 M401.402,161.494c-0.405,0-0.699,0.007-0.992-0.003c-0.2-0.007-0.301,0.048-0.3,0.274c0.007,1.413,0.004,2.826,0.001,4.239
	c0,0.166,0.027,0.292,0.231,0.29c0.931-0.012,1.874,0.082,2.772-0.27c1.051-0.411,1.564-1.308,1.434-2.502
	c-0.124-1.14-0.715-1.735-1.888-1.939C402.205,161.504,401.75,161.488,401.402,161.494z"/>
<path fill="#282828" d="M217.419,166.276c0-1.963,0.013-3.927-0.009-5.89c-0.005-0.474,0.128-0.652,0.621-0.646
	c1.926,0.022,3.853,0.019,5.78,0.001c0.452-0.004,0.618,0.143,0.608,0.603c-0.029,1.337,0.116,1.141-1.142,1.149
	c-1.156,0.007-2.312,0.016-3.468-0.007c-0.368-0.007-0.512,0.067-0.499,0.473c0.031,0.972,0.028,1.945,0.001,2.917
	c-0.011,0.379,0.124,0.455,0.471,0.45c1.211-0.019,2.422,0.01,3.633-0.016c0.47-0.01,0.654,0.12,0.638,0.619
	c-0.039,1.2,0.134,1.097-1.09,1.098c-1.064,0.001-2.129,0.014-3.193-0.008c-0.363-0.007-0.467,0.102-0.458,0.465
	c0.025,1.064,0.021,2.129,0.001,3.193c-0.006,0.316,0.093,0.397,0.4,0.394c1.468-0.015,2.936,0.008,4.404-0.015
	c0.459-0.007,0.611,0.143,0.599,0.601c-0.032,1.276,0.138,1.158-1.144,1.158c-1.853,0.001-3.707-0.012-5.56,0.009
	c-0.458,0.005-0.606-0.145-0.601-0.602C217.43,170.239,217.419,168.258,217.419,166.276z"/>
<path fill="#292A29" d="M175.205,159.5c0.884-0.005,1.699,0.08,2.491,0.34c0.276,0.091,0.423,0.235,0.396,0.554
	c-0.029,0.346-0.002,0.696-0.008,1.045c-0.009,0.525-0.152,0.604-0.636,0.356c-1.159-0.593-2.383-0.684-3.632-0.413
	c-0.689,0.15-1.27,0.492-1.424,1.266c-0.162,0.814,0.229,1.376,0.871,1.801c0.733,0.486,1.551,0.813,2.327,1.22
	c0.781,0.409,1.54,0.845,2.148,1.502c1.514,1.636,1.104,4.192-0.905,5.152c-2.034,0.973-4.121,0.785-6.185,0.012
	c-0.258-0.097-0.356-0.265-0.335-0.546c0.026-0.346-0.001-0.697,0.009-1.045c0.005-0.189-0.081-0.412,0.164-0.532
	c0.215-0.106,0.337,0.07,0.489,0.155c1.357,0.767,2.792,1.059,4.33,0.703c0.633-0.146,1.118-0.491,1.267-1.149
	c0.157-0.695-0.033-1.299-0.603-1.769c-0.456-0.376-0.974-0.645-1.496-0.909c-0.847-0.429-1.715-0.821-2.503-1.358
	c-1.09-0.744-1.73-1.735-1.606-3.1c0.133-1.459,1.017-2.333,2.318-2.855C173.509,159.601,174.372,159.476,175.205,159.5z"/>
<path fill="#292A29" d="M261.49,172.95c-3.947,0.018-6.495-2.532-6.509-6.37c-0.01-2.91,1.121-5.173,3.815-6.446
	c1.927-0.911,3.942-0.814,5.95-0.196c0.259,0.08,0.396,0.198,0.369,0.498c-0.029,0.328-0.003,0.66-0.008,0.99
	c-0.008,0.523-0.144,0.612-0.636,0.38c-1.112-0.525-2.288-0.664-3.486-0.513c-1.891,0.238-3.322,1.554-3.802,3.41
	c-0.266,1.03-0.295,2.069-0.054,3.102c0.514,2.211,2.251,3.505,4.531,3.42c1.018-0.038,1.999-0.207,2.909-0.692
	c0.384-0.204,0.525-0.042,0.543,0.355c0.059,1.34,0.043,1.367-1.26,1.747C263.036,172.873,262.203,172.966,261.49,172.95z"/>
<path fill="#292A29" d="M204.853,165.412c0,1.761,0.009,3.522-0.007,5.283c-0.003,0.357,0.096,0.476,0.461,0.459
	c0.659-0.029,1.321,0.003,1.981-0.013c0.353-0.008,0.492,0.123,0.487,0.482c-0.021,1.374,0.135,1.186-1.156,1.19
	c-2,0.006-3.999-0.009-5.999,0.01c-0.452,0.004-0.618-0.133-0.606-0.597c0.033-1.225-0.121-1.058,1.099-1.085
	c0.596-0.013,1.37,0.265,1.739-0.116c0.342-0.353,0.093-1.119,0.096-1.702c0.009-2.348-0.004-4.697,0.012-7.045
	c0.003-0.401-0.069-0.508-0.481-0.367c-0.673,0.231-1.369,0.39-2.051,0.597c-0.338,0.102-0.487-0.012-0.495-0.35
	c0-0.018,0.001-0.037,0-0.055c-0.064-1.221-0.065-1.223,1.102-1.57c1.05-0.312,2.102-0.619,3.154-0.925
	c0.575-0.167,0.664-0.098,0.665,0.52C204.854,161.89,204.853,163.651,204.853,165.412z"/>
<path fill="#282828" d="M285.824,167.087c0,1.687-0.015,3.375,0.01,5.062c0.007,0.489-0.113,0.693-0.642,0.676
	c-1.478-0.047-1.269,0.187-1.273-1.297c-0.008-3.173-0.01-6.346,0.006-9.519c0.002-0.4-0.083-0.542-0.51-0.525
	c-0.897,0.035-1.798-0.009-2.695,0.019c-0.445,0.014-0.572-0.156-0.564-0.578c0.026-1.318-0.132-1.175,1.181-1.176
	c2.531-0.003,5.062,0.011,7.593-0.011c0.51-0.004,0.673,0.161,0.657,0.666c-0.038,1.245,0.128,1.081-1.085,1.089
	c-0.752,0.005-1.504,0.018-2.256-0.007c-0.34-0.011-0.434,0.087-0.431,0.429C285.833,163.639,285.824,165.363,285.824,167.087z"/>
<path fill="#282828" d="M439.386,167.097c0-1.706-0.011-3.411,0.008-5.117c0.004-0.378-0.088-0.508-0.484-0.495
	c-0.898,0.03-1.798-0.016-2.695,0.02c-0.48,0.019-0.599-0.168-0.59-0.609c0.026-1.278-0.121-1.146,1.156-1.147
	c2.531-0.002,5.062,0.013,7.593-0.011c0.537-0.005,0.704,0.162,0.685,0.696c-0.043,1.206,0.114,1.054-1.061,1.06
	c-0.734,0.004-1.468,0.027-2.2-0.009c-0.416-0.021-0.516,0.104-0.514,0.515c0.018,3.356,0.01,6.712,0.01,10.069
	c0,0.746-0.001,0.751-0.716,0.746c-1.36-0.009-1.184,0.17-1.19-1.205C439.381,170.105,439.386,168.601,439.386,167.097z"/>
<path fill="#282828" d="M341.508,166.275c0-1.964,0.013-3.927-0.009-5.891c-0.005-0.476,0.132-0.656,0.623-0.644
	c1.504,0.036,1.281-0.158,1.285,1.29c0.009,3.175,0.01,6.349-0.007,9.524c-0.002,0.394,0.069,0.532,0.5,0.522
	c1.376-0.032,2.753,0.003,4.129-0.02c0.471-0.008,0.658,0.134,0.648,0.625c-0.024,1.219,0.091,1.139-1.126,1.136
	c-1.817-0.005-3.634-0.013-5.45,0.007c-0.459,0.005-0.605-0.146-0.601-0.603C341.52,170.239,341.508,168.257,341.508,166.275z"/>
<path fill="#282828" d="M460.863,166.33c0-1.982,0.013-3.964-0.009-5.946c-0.005-0.476,0.131-0.656,0.623-0.644
	c1.505,0.035,1.281-0.158,1.285,1.29c0.008,3.175,0.01,6.349-0.007,9.524c-0.002,0.394,0.069,0.532,0.5,0.522
	c1.376-0.032,2.753,0.004,4.128-0.02c0.471-0.008,0.658,0.134,0.648,0.625c-0.024,1.219,0.091,1.139-1.126,1.136
	c-1.817-0.005-3.634-0.013-5.45,0.007c-0.459,0.005-0.605-0.146-0.601-0.603C460.875,170.257,460.863,168.293,460.863,166.33z"/>
<path fill="#292A29" d="M147.434,172.816c-0.569,0-1.137-0.01-1.706,0.004c-0.38,0.009-0.54-0.158-0.514-0.529
	c0.009-0.128,0.001-0.257,0.001-0.385c0-0.752,0.002-0.781,0.761-0.746c0.445,0.02,0.547-0.124,0.544-0.552
	c-0.019-2.88-0.021-5.759,0.002-8.639c0.004-0.454-0.142-0.571-0.558-0.536c-0.258,0.022-0.642,0.112-0.709-0.23
	c-0.082-0.417-0.133-0.874,0.044-1.29c0.083-0.197,0.306-0.163,0.49-0.163c1.119,0.001,2.238,0.012,3.356-0.005
	c0.439-0.007,0.601,0.178,0.564,0.595c-0.013,0.146-0.017,0.295,0.001,0.44c0.062,0.5-0.142,0.741-0.65,0.66
	c-0.525-0.084-0.668,0.103-0.662,0.643c0.031,2.824,0.027,5.649,0.003,8.474c-0.004,0.477,0.1,0.639,0.598,0.607
	c0.708-0.046,0.71-0.009,0.709,0.907c-0.001,0.736-0.012,0.748-0.732,0.749C148.461,172.816,147.948,172.816,147.434,172.816z"/>
<path fill="#292A29" d="M112.351,172.815c-0.587,0-1.174-0.007-1.761,0.003c-0.343,0.006-0.518-0.133-0.5-0.487
	c0.006-0.128,0.001-0.257,0.001-0.385c0-0.792,0.001-0.814,0.775-0.789c0.399,0.013,0.533-0.081,0.53-0.51
	c-0.02-2.898-0.019-5.796-0.001-8.694c0.003-0.408-0.095-0.56-0.516-0.524c-0.27,0.023-0.681,0.135-0.753-0.242
	c-0.079-0.415-0.134-0.872,0.054-1.288c0.066-0.146,0.234-0.153,0.387-0.153c1.174,0.002,2.348,0.005,3.522-0.001
	c0.346-0.002,0.512,0.144,0.494,0.495c-0.007,0.146-0.001,0.293-0.001,0.44c-0.001,0.752-0.002,0.783-0.771,0.747
	c-0.453-0.021-0.535,0.14-0.533,0.555c0.017,2.88,0.02,5.759-0.003,8.639c-0.004,0.454,0.139,0.565,0.557,0.537
	c0.249-0.017,0.637-0.149,0.71,0.214c0.084,0.418,0.13,0.874-0.047,1.291c-0.073,0.172-0.271,0.154-0.439,0.153
	C113.489,172.814,112.92,172.816,112.351,172.815z"/>
<path fill="#292A29" d="M293.221,172.815c-0.569,0-1.137-0.01-1.706,0.004c-0.374,0.009-0.548-0.145-0.521-0.522
	c0.008-0.109,0.001-0.22,0.001-0.33c0-0.808,0.001-0.829,0.809-0.81c0.382,0.009,0.497-0.097,0.495-0.488
	c-0.016-2.916-0.016-5.833,0-8.749c0.002-0.389-0.111-0.513-0.493-0.489c-0.273,0.017-0.683,0.137-0.768-0.223
	c-0.097-0.412-0.129-0.871,0.036-1.291c0.067-0.171,0.261-0.17,0.433-0.169c1.156,0.003,2.311,0.008,3.467-0.002
	c0.378-0.003,0.542,0.159,0.515,0.53c-0.007,0.091-0.001,0.183-0.001,0.275c0,0.87,0,0.895-0.861,0.878
	c-0.393-0.008-0.442,0.146-0.44,0.478c0.01,2.916,0.016,5.833-0.005,8.749c-0.003,0.439,0.146,0.524,0.535,0.503
	c0.25-0.014,0.632-0.154,0.723,0.196c0.107,0.415,0.122,0.871-0.027,1.293c-0.062,0.175-0.258,0.172-0.429,0.171
	C294.395,172.813,293.808,172.815,293.221,172.815z"/>
<path fill="#292A29" d="M166.747,159.501c0.242,0,0.407-0.004,0.572,0.001c0.293,0.009,0.392,0.171,0.307,0.437
	c-0.389,1.216-0.785,2.43-1.175,3.645c-0.052,0.162-0.143,0.24-0.317,0.235c-0.256-0.008-0.513-0.001-0.77-0.002
	c-0.312-0.001-0.429-0.145-0.35-0.454c0.306-1.202,0.596-2.409,0.916-3.608C166.074,159.218,166.549,159.673,166.747,159.501z"/>
<path fill="#BD567F" d="M253.875,108.858c-0.184-0.345-0.122-0.712-0.047-1.057c0.265-1.209,0.226-2.409,0-3.617
	c-0.071-0.383-0.146-0.786,0.043-1.168c0.238,0.424,0.257,0.91,0.287,1.364C254.255,105.881,254.39,107.393,253.875,108.858z"/>
<path fill="#BD567F" d="M254.815,135.758c-0.076-1.456-0.074-2.912-0.002-4.369c0.048,0.051,0.139,0.104,0.138,0.154
	c-0.028,0.922,0.241,1.833,0.092,2.762c-0.051,0.32-0.038,0.65-0.058,0.975C254.974,135.454,255.029,135.655,254.815,135.758z"/>
<path fill="#BD567F" d="M254.74,129.684c-0.439-0.645-0.647-1.337-0.427-2.115C254.452,128.275,254.75,128.948,254.74,129.684z"/>
<path fill="#BD567F" d="M254.316,138.807c-0.243-0.625,0.022-1.113,0.419-1.567C254.731,137.798,254.463,138.287,254.316,138.807z"
	/>
<path fill="#BD567F" d="M254.281,127.379c-0.314-0.313-0.623-0.628-0.405-1.131C254.073,126.603,254.286,126.952,254.281,127.379z"
	/>
<path fill="#BD567F" d="M253.881,139.909c-0.185-0.45,0.161-0.657,0.414-0.907C254.282,139.361,254.104,139.645,253.881,139.909z"/>
<path fill="#BD567F" d="M254.796,130.786c0.014-0.303-0.254-0.593-0.038-0.905C254.934,130.176,254.905,130.479,254.796,130.786z"/>
<path fill="#BD567F" d="M254.763,137.046c-0.164-0.201,0.038-0.382,0.031-0.574C254.905,136.67,254.92,136.862,254.763,137.046z"/>
<g>
	<path fill="#A82256" d="M202.559,103.422c-0.239-1.794-0.67-3.503-1.475-5.131c-0.992-2.006-2.326-3.681-4.183-4.97
		c-1.592-1.105-3.354-1.78-5.19-2.268c-2.227-0.592-4.52-0.698-6.818-0.697c-7.67,0.004-15.34,0-23.01-0.001
		c-0.631,0-0.775,0.144-0.782,0.767c-0.051,4.787-0.002,9.575-0.105,14.363c-0.086,4.016-0.034,8.033-0.091,12.051
		c-0.07,4.898-0.017,9.798-0.017,14.697c-0.036,0-0.072,0-0.108,0c0,4.935,0.001,9.871-0.001,14.806
		c0,0.768,0.002,0.781,0.755,0.781c4.22,0.001,8.441,0,12.661,0c0.11,0,0.22-0.002,0.33-0.001c0.33,0.003,0.452-0.183,0.453-0.489
		c0.007-3.044,0.016-6.088,0.025-9.133c0.007-2.33,0.012-4.66,0.023-6.991c0.004-0.871,0.046-0.906,0.897-0.907
		c3.138-0.004,6.275-0.007,9.413-0.013c2.364-0.005,4.674-0.39,6.899-1.166c1.83-0.638,3.54-1.528,5.045-2.791
		c1.847-1.55,3.361-3.323,4.296-5.586c0.668-1.617,0.959-3.287,1.096-5.01c0.139-1.759,0.075-3.52,0.077-5.28
		C202.751,108.109,202.871,105.765,202.559,103.422z M188.164,113.953c-0.251,1.287-0.999,2.265-2.127,2.912
		c-1.266,0.727-2.679,0.912-4.111,0.929c-2.036,0.024-4.072-0.004-6.108,0.022c-0.532,0.007-0.695-0.176-0.687-0.702
		c0.028-1.797-0.044-3.597,0.027-5.392c0.093-2.329,0.042-4.656,0.062-6.984c0.004-0.402-0.033-0.804-0.066-1.205
		c-0.038-0.477,0.181-0.66,0.647-0.655c1.229,0.013,2.458,0.004,3.687,0.004c0.825,0.001,1.654,0.046,2.476-0.01
		c1.124-0.077,2.196,0.172,3.237,0.501c0.789,0.249,1.387,0.841,1.957,1.457c0.979,1.059,1.19,2.354,1.218,3.696
		C188.414,110.337,188.514,112.159,188.164,113.953z"/>
	<path fill="#A82256" d="M150.14,90.029c-0.182,0.016-0.367,0.004-0.55,0.004c-12.404,0-24.808-0.001-37.212-0.001
		c-1.073,0-1.084,0.013-1.085,1.054c-0.006,10.661-0.014,21.322-0.018,31.982c-0.001,1.834,0.016,3.668,0.024,5.503
		c0.001,6.381,0.001,12.761,0.002,19.142c-0.031,0.456,0.316,0.318,0.536,0.318c4.037,0.007,8.074,0.005,12.11,0.005
		c0.33,0,0.662,0.018,0.99-0.007c0.713-0.055,0.771-0.127,0.771-0.829c0.002-5.707,0.009-11.413,0.002-17.12
		c-0.001-0.947,0.261-1.891,0.027-2.842c-0.049-0.2,0.091-0.307,0.283-0.32c0.183-0.012,0.367-0.009,0.55-0.009
		c6.459-0.001,12.918,0,19.377-0.002c0.718,0,0.788-0.075,0.788-0.79c0.001-3.688,0.001-7.376,0-11.064
		c0-0.98-0.142-1.123-1.091-1.124c-6.367,0-12.734,0-19.101,0c-0.715,0-0.72-0.009-0.72-0.694c0-3.138,0-6.275,0-9.413
		c0-0.816,0-0.816,0.819-0.816c7.872,0,15.743,0.001,23.615,0c0.803,0,0.886-0.085,0.886-0.875c0.001-3.725,0.004-7.45,0.004-11.175
		C151.149,90.051,151.033,89.95,150.14,90.029z"/>
	<path fill="#A82256" d="M254.957,128.629c-0.001-0.035-0.009-0.076-0.029-0.105c-0.516-0.76-0.372-1.713-0.775-2.54
		c-0.257-0.527-0.441-1.162-0.712-1.693c-0.701-1.373-1.626-2.594-2.728-3.703c-1.514-1.524-3.254-2.706-5.143-3.672
		c-0.447-0.228-0.937-0.45-1.447-0.607c-0.686-0.213-1.407-0.379-2.049-0.678c-0.649-0.302-1.347-0.426-2.005-0.646
		c-1.162-0.389-2.385-0.623-3.565-0.985c-0.121-0.037-0.25-0.062-0.376-0.066c-0.465-0.015-0.904-0.11-1.317-0.334
		c-0.259-0.14-0.543-0.203-0.844-0.216c-0.793-0.032-1.489-0.438-2.217-0.68c-0.428-0.142-0.93-0.195-1.313-0.485
		c-0.45-0.34-1.002-0.47-1.49-0.746c-0.693-0.393-1.393-0.756-1.993-1.289c-0.785-0.697-1.179-1.592-1.547-2.567
		c-0.492-1.304-0.277-2.48,0.415-3.532c0.72-1.094,1.925-1.543,3.202-1.736c0.198-0.03,0.399-0.014,0.594-0.089
		c0.748-0.287,1.542-0.305,2.323-0.339c1.842-0.079,3.623,0.245,5.293,1.033c0.734,0.346,1.339,0.923,1.764,1.609
		c0.406,0.656,0.616,1.413,0.827,2.166c0.198,0.706,0.289,1.42,0.17,2.118c-0.118,0.691-0.292,1.398-0.649,2.017
		c-0.124,0.216-0.385,0.351-0.239,0.652c0.138,0.285,0.41,0.197,0.634,0.198c2.129,0.006,4.257,0.004,6.386,0.003
		c2.147,0,4.294-0.009,6.441,0.007c0.393,0.003,0.75-0.105,0.869-0.443c0.225-0.64,0.714-1.19,0.662-1.931
		c-0.013-0.19,0.072-0.397,0.151-0.58c0.2-0.463,0.254-0.946,0.277-1.443c0.084-1.798-0.018-3.577-0.501-5.321
		c-0.068-0.245-0.003-0.521-0.163-0.744c-0.387-0.54-0.443-1.213-0.707-1.809c-0.476-1.074-1.049-2.083-1.755-2.988
		c-1.403-1.796-3.175-3.171-5.201-4.235c-0.388-0.204-0.825-0.293-1.176-0.544c-0.574-0.41-1.267-0.554-1.903-0.736
		c-0.878-0.25-1.72-0.726-2.682-0.647c-0.051,0.004-0.108-0.023-0.158-0.045c-1.262-0.551-2.648-0.536-3.954-0.605
		c-2.928-0.155-5.88-0.251-8.805,0.183c-0.848,0.126-1.726,0.004-2.548,0.327c-0.433,0.17-0.895,0.159-1.345,0.228
		c-0.786,0.12-1.547,0.396-2.302,0.63c-0.455,0.141-0.96,0.221-1.379,0.447c-0.889,0.479-1.832,0.839-2.709,1.348
		c-1.161,0.674-2.239,1.458-3.137,2.436c-0.845,0.92-1.559,1.944-2.131,3.09c-0.557,1.117-0.911,2.288-1.211,3.467
		c-0.231,0.906-0.186,1.885-0.245,2.833c-0.086,1.376,0.129,2.743,0.127,4.119c-0.002,1.028,0.365,2.022,0.636,2.978
		c0.29,1.02,0.729,2.05,1.295,3.009c0.731,1.239,1.602,2.337,2.631,3.321c0.853,0.815,1.748,1.585,2.741,2.229
		c0.68,0.441,1.356,0.88,2.086,1.249c0.484,0.244,1.004,0.396,1.468,0.664c0.569,0.328,1.203,0.55,1.809,0.678
		c0.754,0.16,1.42,0.522,2.142,0.74c0.802,0.242,1.621,0.472,2.416,0.764c0.829,0.305,1.723,0.437,2.545,0.755
		c0.742,0.287,1.517,0.453,2.265,0.714c0.609,0.213,1.24,0.434,1.802,0.707c0.528,0.256,1.093,0.45,1.617,0.73
		c1.029,0.549,2.022,1.123,2.873,1.923c0.636,0.598,1.015,1.35,1.334,2.161c0.362,0.919,0.388,1.828,0.069,2.724
		c-0.483,1.358-1.691,1.951-2.935,2.234c-1.141,0.259-2.342,0.36-3.533,0.395c-0.996,0.029-1.961-0.224-2.948-0.244
		c-0.913-0.018-1.734-0.4-2.558-0.709c-0.885-0.333-1.525-1.052-2.138-1.754c-0.236-0.269-0.446-0.591-0.568-0.925
		c-0.409-1.117-0.685-2.258-0.575-3.473c0.055-0.606-0.194-0.826-0.813-0.827c-4.33-0.006-8.661-0.004-12.991-0.005
		c-0.446,0-0.691,0.22-0.696,0.665c-0.032,2.81-0.078,5.611,0.911,8.325c0.438,1.202,0.893,2.369,1.556,3.471
		c0.551,0.916,1.2,1.74,1.926,2.507c0.751,0.792,1.578,1.522,2.523,2.061c0.762,0.435,1.53,0.881,2.368,1.183
		c0.593,0.214,1.189,0.414,1.787,0.612c1.016,0.336,2.051,0.585,3.088,0.822c0.437,0.099,0.917,0.017,1.357,0.162
		c1.65,0.546,3.395,0.398,5.081,0.559c2.112,0.201,4.268,0.152,6.429-0.159c1.553-0.224,3.145-0.37,4.719-0.554
		c0.357-0.042,0.722-0.098,1.049-0.295c0.235-0.141,0.505-0.227,0.786-0.218c0.774,0.023,1.448-0.38,2.112-0.645
		c0.867-0.347,1.747-0.725,2.565-1.234c0.841-0.523,1.652-1.074,2.364-1.743c0.982-0.922,1.773-1.992,2.441-3.185
		c0.554-0.99,0.921-2.042,1.214-3.092c0.294-1.055,0.378-2.19,0.493-3.295C255.606,132.688,255.013,130.675,254.957,128.629z
		 M254.312,127.57c0.139,0.706,0.437,1.379,0.427,2.115C254.3,129.039,254.092,128.348,254.312,127.57z M254.281,127.379
		c0.002,0.012,0.004,0.025,0.006,0.037C254.285,127.404,254.283,127.392,254.281,127.379c-0.314-0.313-0.623-0.628-0.405-1.131l0,0
		C254.073,126.603,254.286,126.952,254.281,127.379z M253.272,124.682c0.105,0.293,0.32,0.539,0.457,0.818
		C253.592,125.22,253.377,124.974,253.272,124.682c-0.019-0.061-0.037-0.122-0.056-0.183
		C253.235,124.56,253.254,124.621,253.272,124.682z M252.26,122.919c0.162,0.064,0.238,0.182,0.275,0.325
		C252.498,123.102,252.422,122.983,252.26,122.919c-0.008-0.026-0.018-0.051-0.029-0.075
		C252.242,122.868,252.252,122.893,252.26,122.919z M251.398,121.808c0.1,0.034,0.188,0.081,0.24,0.166
		C251.586,121.889,251.498,121.842,251.398,121.808c-0.054-0.094-0.109-0.187-0.163-0.281
		C251.289,121.62,251.344,121.714,251.398,121.808z M250.839,121.151c0.14,0.051,0.254,0.129,0.331,0.246
		C251.093,121.28,250.979,121.201,250.839,121.151c-0.111-0.189-0.263-0.34-0.424-0.482
		C250.577,120.81,250.728,120.962,250.839,121.151z M247.275,118.216L247.275,118.216L247.275,118.216L247.275,118.216z
		 M248.05,118.757c0.245,0.088,0.456,0.223,0.652,0.379C248.507,118.98,248.296,118.845,248.05,118.757
		c-0.073-0.111-0.173-0.177-0.288-0.218C247.877,118.58,247.978,118.646,248.05,118.757z M244.412,116.78
		c0.046,0.002,0.09,0.008,0.132,0.017C244.502,116.788,244.458,116.782,244.412,116.78c-0.024-0.013-0.048-0.024-0.074-0.033
		C244.364,116.756,244.388,116.767,244.412,116.78z M227.935,135.962c-0.06-0.065-0.115-0.138-0.164-0.222h0
		C227.82,135.824,227.875,135.897,227.935,135.962z M228.342,136.262c0.149,0.075,0.309,0.13,0.471,0.181
		C228.651,136.392,228.491,136.337,228.342,136.262z M240.879,131.388c-0.028-0.115-0.078-0.213-0.149-0.297
		C240.801,131.175,240.85,131.272,240.879,131.388z M240.902,131.789c-0.013,0.154-0.045,0.329-0.097,0.529c0,0,0,0,0,0
		C240.857,132.118,240.889,131.943,240.902,131.789z M229.877,112.267c0.227,0.102,0.458,0.193,0.691,0.279
		C230.335,112.459,230.104,112.369,229.877,112.267c-0.06-0.016-0.119-0.032-0.179-0.048
		C229.758,112.235,229.818,112.251,229.877,112.267z M229.234,111.965c-0.042-0.009-0.085-0.018-0.127-0.029
		c-0.011-0.011-0.024-0.017-0.036-0.027c0.012,0.01,0.025,0.016,0.036,0.027C229.148,111.948,229.191,111.956,229.234,111.965z
		 M226.248,109.84c0.194,0.104,0.345,0.25,0.436,0.453c0.047,0.061,0.094,0.122,0.141,0.183c0.197,0.087,0.428,0.127,0.509,0.373
		c-0.081-0.245-0.312-0.286-0.509-0.372c-0.047-0.061-0.094-0.122-0.141-0.183C226.594,110.09,226.443,109.944,226.248,109.84
		c-0.009,0.155,0.021,0.271,0.093,0.347C226.27,110.111,226.239,109.994,226.248,109.84c-0.072-0.072-0.144-0.143-0.216-0.215
		c-0.033-0.031-0.069-0.06-0.106-0.088c0.037,0.028,0.073,0.057,0.106,0.088C226.104,109.697,226.176,109.768,226.248,109.84z
		 M225.812,109.454c-0.077-0.055-0.153-0.11-0.216-0.173C225.659,109.344,225.735,109.399,225.812,109.454z M227.054,102.624
		c-0.196,0.292-0.506,0.44-0.785,0.634C226.548,103.064,226.858,102.916,227.054,102.624L227.054,102.624
		c0.092-0.023,0.183-0.045,0.275-0.068C227.237,102.579,227.146,102.602,227.054,102.624z M228.453,102.136
		c-0.049,0.064-0.106,0.092-0.166,0.1C228.348,102.228,228.404,102.2,228.453,102.136c0.064-0.01,0.128-0.019,0.193-0.029
		C228.582,102.116,228.518,102.126,228.453,102.136z M238.881,103.929c-0.14-0.05-0.257-0.124-0.334-0.241
		C238.624,103.805,238.741,103.879,238.881,103.929c0.047,0.128,0.124,0.232,0.241,0.303
		C239.005,104.161,238.928,104.057,238.881,103.929z M239.785,105.446c-0.051-0.103-0.113-0.201-0.177-0.297
		C239.673,105.245,239.734,105.342,239.785,105.446c0.012,0.064,0.024,0.129,0.035,0.194
		C239.809,105.575,239.797,105.51,239.785,105.446z M239.673,110.944c0.001-0.047,0.008-0.091,0.025-0.129
		C239.68,110.853,239.674,110.897,239.673,110.944c-0.035,0.035-0.07,0.071-0.105,0.106
		C239.602,111.014,239.637,110.979,239.673,110.944z M252.695,111.434c-0.123,0.09-0.261,0.087-0.397,0.081
		C252.435,111.521,252.572,111.523,252.695,111.434c0.064-0.016,0.128-0.031,0.193-0.047
		C252.824,111.402,252.759,111.418,252.695,111.434z M254.158,104.38c0.098,1.501,0.232,3.013-0.283,4.478
		c-0.184-0.345-0.122-0.712-0.047-1.057c0.265-1.209,0.226-2.409,0-3.617c-0.071-0.383-0.146-0.785,0.043-1.168
		C254.11,103.44,254.128,103.926,254.158,104.38z M253.443,101.06c0.068,0.173,0.146,0.343,0.217,0.516
		C253.59,101.404,253.511,101.233,253.443,101.06z M251.86,97.692c0.182,0.223,0.448,0.392,0.46,0.723
		c0.025,0.09,0.05,0.181,0.076,0.271c0.477,0.427,0.609,1.024,0.806,1.589c-0.197-0.565-0.329-1.161-0.806-1.588
		c-0.025-0.091-0.05-0.181-0.075-0.271C252.308,98.083,252.042,97.914,251.86,97.692c-0.023-0.058-0.046-0.116-0.069-0.174
		C251.814,97.576,251.837,97.634,251.86,97.692z M251.383,97.042c0.163,0.067,0.301,0.155,0.368,0.305
		C251.684,97.197,251.546,97.108,251.383,97.042c-0.082-0.136-0.165-0.273-0.247-0.409
		C251.218,96.769,251.301,96.905,251.383,97.042z M250.834,96.27c0.134,0.041,0.232,0.114,0.276,0.23
		C251.066,96.384,250.968,96.312,250.834,96.27c-0.046-0.063-0.092-0.126-0.137-0.189C250.742,96.144,250.788,96.207,250.834,96.27z
		 M249.477,94.869L249.477,94.869c0.08,0.003,0.15,0.02,0.204,0.057C249.627,94.889,249.558,94.872,249.477,94.869z M246.397,92.664
		c0.164,0.094,0.341,0.166,0.514,0.246C246.738,92.83,246.56,92.758,246.397,92.664c-0.06-0.021-0.119-0.042-0.179-0.063
		C246.278,92.622,246.337,92.643,246.397,92.664z M244.303,91.675c0.154,0.025,0.296,0.075,0.423,0.151
		C244.598,91.75,244.457,91.7,244.303,91.675c-0.107-0.031-0.214-0.063-0.321-0.094C244.089,91.612,244.196,91.644,244.303,91.675z
		 M227.344,90.137c0.184-0.093,0.372-0.119,0.561-0.116C227.716,90.019,227.528,90.045,227.344,90.137
		c-0.138,0.01-0.276,0.019-0.414,0.029C227.068,90.157,227.206,90.147,227.344,90.137z M224.702,90.58
		c0.366-0.099,0.731-0.202,1.1-0.28C225.433,90.379,225.068,90.481,224.702,90.58c-0.105,0.005-0.209,0.01-0.314,0.014
		C224.493,90.59,224.597,90.585,224.702,90.58z M222.686,91.079c0.312-0.221,0.652-0.353,1.016-0.413
		C223.339,90.726,222.998,90.858,222.686,91.079c-0.133,0.005-0.267,0.01-0.4,0.014C222.42,91.089,222.553,91.084,222.686,91.079z
		 M221.678,91.183c-0.128,0.044-0.252,0.099-0.376,0.155C221.426,91.282,221.55,91.227,221.678,91.183z M218.282,92.621
		c0.278-0.17,0.53-0.393,0.836-0.506c0.102-0.038,0.21-0.063,0.327-0.07c0.1-0.012,0.2-0.024,0.301-0.037
		c0.1-0.133,0.216-0.234,0.349-0.302c-0.133,0.069-0.249,0.17-0.349,0.302c-0.1,0.012-0.2,0.024-0.301,0.037
		c-0.117,0.007-0.225,0.032-0.327,0.07C218.812,92.228,218.56,92.451,218.282,92.621c-0.06,0.015-0.12,0.03-0.181,0.045
		C218.162,92.651,218.222,92.636,218.282,92.621z M217.508,93.044c0.126-0.13,0.253-0.257,0.417-0.328
		C217.761,92.787,217.634,92.914,217.508,93.044c-0.088,0.03-0.177,0.06-0.265,0.09C217.331,93.104,217.419,93.074,217.508,93.044z
		 M215.968,94.049c0.2-0.394,0.578-0.54,0.934-0.717C216.546,93.509,216.168,93.655,215.968,94.049
		c-0.067,0.046-0.134,0.091-0.201,0.137C215.833,94.14,215.901,94.095,215.968,94.049z M213.139,96.962
		c-0.002-0.13,0.062-0.212,0.181-0.256C213.2,96.75,213.136,96.832,213.139,96.962c-0.034,0.036-0.069,0.072-0.103,0.108
		C213.07,97.034,213.104,96.998,213.139,96.962z M210.843,103.101c-0.065,0.307-0.026,0.619,0.059,0.931
		c0.001,1.05,0.002,2.1,0.004,3.15c-0.001-1.05-0.003-2.1-0.004-3.15C210.817,103.719,210.778,103.408,210.843,103.101z
		 M211.381,110.841c-0.084-0.387-0.181-0.772-0.259-1.16C211.2,110.069,211.297,110.454,211.381,110.841
		c0.008,0.066,0.016,0.131,0.025,0.197C211.397,110.972,211.389,110.907,211.381,110.841z M213.872,116.158
		c-0.396-0.338-0.654-0.769-0.843-1.246c-0.052-0.098-0.104-0.195-0.157-0.293c-0.384-0.477-0.633-1.018-0.831-1.583
		c0.198,0.565,0.447,1.105,0.832,1.582c0.052,0.098,0.104,0.195,0.156,0.293C213.218,115.389,213.475,115.82,213.872,116.158
		c0.01,0.026,0.022,0.052,0.038,0.075C213.894,116.209,213.881,116.184,213.872,116.158z M214.329,116.7
		c-0.111-0.041-0.207-0.095-0.28-0.171C214.123,116.604,214.218,116.659,214.329,116.7c0.01,0.024,0.022,0.047,0.036,0.069
		C214.352,116.747,214.34,116.724,214.329,116.7z M214.792,117.231c-0.094-0.056-0.182-0.117-0.256-0.192
		C214.61,117.114,214.698,117.175,214.792,117.231c0.11,0.108,0.22,0.215,0.329,0.323
		C215.011,117.446,214.902,117.339,214.792,117.231z M215.219,117.79c0.055,0.056,0.134,0.089,0.237,0.098
		c0.035,0.038,0.069,0.077,0.103,0.115c-0.034-0.039-0.068-0.078-0.103-0.115C215.353,117.88,215.275,117.847,215.219,117.79z
		 M216.314,118.68c-0.137-0.028-0.233-0.098-0.291-0.207C216.082,118.582,216.177,118.652,216.314,118.68L216.314,118.68
		c0.067,0.046,0.135,0.092,0.202,0.138C216.449,118.773,216.382,118.727,216.314,118.68z M218.32,120.2
		c-0.43-0.259-0.919-0.437-1.217-0.879C217.401,119.763,217.89,119.94,218.32,120.2c0.025,0.013,0.05,0.024,0.077,0.032
		C218.37,120.223,218.345,120.212,218.32,120.2z M219.973,121.19c-0.129-0.021-0.239-0.071-0.335-0.14
		C219.734,121.119,219.844,121.168,219.973,121.19c0.108,0.036,0.216,0.072,0.324,0.107
		C220.189,121.261,220.081,121.225,219.973,121.19z M220.743,121.52c-0.135-0.01-0.255-0.048-0.354-0.128
		C220.488,121.473,220.608,121.51,220.743,121.52c0.058,0.065,0.125,0.113,0.198,0.147
		C220.868,121.633,220.801,121.585,220.743,121.52z M231.646,125.187c-0.36,0.023-0.673-0.108-0.983-0.248
		C230.972,125.079,231.285,125.21,231.646,125.187c0.097,0.003,0.194,0.007,0.29,0.01
		C231.839,125.193,231.742,125.19,231.646,125.187z M236.046,126.917c-0.044-0.005-0.087-0.012-0.128-0.023
		C235.959,126.906,236.002,126.913,236.046,126.917c0.098,0.051,0.196,0.101,0.294,0.152
		C236.242,127.019,236.144,126.968,236.046,126.917z M240.395,130.696c-0.18-0.262-0.403-0.498-0.499-0.811
		c-0.013-0.025-0.023-0.051-0.03-0.078c-0.43-0.45-0.86-0.9-1.289-1.35l0,0c-0.06-0.007-0.112-0.022-0.16-0.045
		c0.047,0.022,0.1,0.038,0.16,0.045c0,0,0,0,0,0c0.43,0.45,0.86,0.9,1.29,1.35c0.007,0.027,0.017,0.053,0.03,0.078
		C239.992,130.198,240.215,130.434,240.395,130.696c0.018,0.059,0.035,0.119,0.053,0.178c0.058,0.031,0.111,0.064,0.157,0.1
		c-0.047-0.036-0.099-0.069-0.157-0.1c0.018,0.074,0.037,0.148,0.055,0.222c-0.018-0.074-0.037-0.148-0.055-0.222
		C240.431,130.814,240.413,130.755,240.395,130.696z M239.638,135.666c0.108-0.239,0.245-0.453,0.445-0.611
		C239.884,135.213,239.746,135.426,239.638,135.666c-0.091,0.049-0.182,0.098-0.273,0.148
		C239.456,135.764,239.547,135.715,239.638,135.666z M237.804,136.608L237.804,136.608c0.226-0.191,0.488-0.314,0.755-0.426
		C238.292,136.295,238.031,136.417,237.804,136.608z M225.837,133.929c0.555,0.577,1.109,1.154,1.664,1.731
		C226.946,135.083,226.392,134.506,225.837,133.929c-0.007-0.027-0.017-0.052-0.029-0.077
		C225.82,133.877,225.83,133.903,225.837,133.929z M210.943,129.339c0.033-0.097,0.085-0.151,0.147-0.182
		C211.027,129.187,210.976,129.242,210.943,129.339c-0.017,0.064-0.033,0.128-0.05,0.192
		C210.909,129.467,210.926,129.403,210.943,129.339z M210.942,133.082c-0.097-0.237-0.122-0.478-0.12-0.72
		C210.82,132.604,210.845,132.845,210.942,133.082c0.006,0.103,0.012,0.207,0.018,0.31
		C210.954,133.289,210.948,133.186,210.942,133.082z M212.877,140.272c-0.157-0.215-0.334-0.42-0.427-0.668
		C212.543,139.853,212.719,140.057,212.877,140.272c0.016,0.059,0.032,0.119,0.048,0.178
		C212.909,140.391,212.893,140.332,212.877,140.272z M213.313,141.044c-0.143-0.118-0.272-0.246-0.341-0.413
		C213.041,140.798,213.17,140.926,213.313,141.044c0.018,0.058,0.037,0.117,0.055,0.175
		C213.35,141.161,213.331,141.102,213.313,141.044z M214.305,142.477c-0.306-0.179-0.5-0.443-0.662-0.729
		C213.805,142.034,213.999,142.297,214.305,142.477c0.054,0.095,0.109,0.19,0.163,0.284
		C214.414,142.666,214.359,142.571,214.305,142.477z M214.894,143.219c-0.179-0.047-0.266-0.179-0.346-0.318
		C214.628,143.04,214.715,143.172,214.894,143.219c0,0,0.001,0.001,0.001,0.001L214.894,143.219z M215.476,143.921
		c0.054,0.038,0.122,0.056,0.201,0.062l0,0C215.598,143.977,215.53,143.959,215.476,143.921z M216.999,145.083
		c-0.112-0.071-0.243-0.114-0.362-0.175C216.756,144.97,216.887,145.013,216.999,145.083c0.097,0.053,0.193,0.106,0.29,0.159
		C217.192,145.19,217.096,145.136,216.999,145.083z M222.835,147.66c-0.319,0.028-0.585-0.098-0.846-0.24
		C222.249,147.562,222.515,147.688,222.835,147.66c0.06,0.005,0.12,0.01,0.179,0.016C222.954,147.67,222.894,147.665,222.835,147.66
		z M225.497,148.196c-0.123,0.078-0.242,0.103-0.355,0.047C225.255,148.298,225.374,148.274,225.497,148.196
		c0.212,0.02,0.425,0.041,0.637,0.061C225.922,148.236,225.709,148.216,225.497,148.196z M241.041,148.218
		c-0.256,0.208-0.559,0.238-0.862,0.268C240.482,148.456,240.785,148.426,241.041,148.218c0.2-0.007,0.4-0.014,0.601-0.022
		C241.441,148.204,241.241,148.211,241.041,148.218z M242.107,148.157L242.107,148.157c-0.071,0.077-0.147,0.112-0.224,0.115
		C241.96,148.269,242.035,148.234,242.107,148.157z M245.3,147.278L245.3,147.278c-0.267,0.145-0.532,0.295-0.824,0.369
		C244.768,147.572,245.033,147.422,245.3,147.278z M246.437,146.782c-0.161,0.268-0.385,0.409-0.657,0.453
		C246.052,147.191,246.276,147.051,246.437,146.782c0.059-0.005,0.118-0.01,0.177-0.015
		C246.554,146.773,246.496,146.777,246.437,146.782z M246.88,146.696c-0.051,0.077-0.105,0.141-0.181,0.121
		C246.775,146.837,246.829,146.773,246.88,146.696c0.095-0.025,0.189-0.05,0.284-0.074
		C247.069,146.646,246.974,146.671,246.88,146.696z M248.113,146.209c-0.071,0.052-0.147,0.095-0.227,0.129
		C247.967,146.304,248.042,146.261,248.113,146.209z M248.637,145.791c-0.048,0.118-0.132,0.179-0.262,0.17
		C248.505,145.969,248.59,145.908,248.637,145.791c0.185-0.044,0.36-0.107,0.498-0.23
		C248.997,145.683,248.823,145.746,248.637,145.791z M249.484,145.301c-0.023,0.047-0.055,0.076-0.093,0.093
		C249.429,145.377,249.461,145.347,249.484,145.301c0.101-0.045,0.201-0.09,0.302-0.136
		C249.685,145.21,249.584,145.256,249.484,145.301z M250.177,144.794c-0.064,0.129-0.136,0.249-0.255,0.319
		C250.041,145.042,250.113,144.923,250.177,144.794c0.092-0.057,0.184-0.114,0.277-0.17
		C250.362,144.68,250.269,144.737,250.177,144.794z M250.723,144.341c-0.031,0.105-0.077,0.196-0.165,0.247
		C250.646,144.537,250.692,144.446,250.723,144.341L250.723,144.341c0.101-0.081,0.201-0.162,0.302-0.243
		C250.924,144.178,250.824,144.26,250.723,144.341z M251.798,143.319c-0.087,0.171-0.184,0.333-0.307,0.468
		C251.614,143.652,251.71,143.49,251.798,143.319c0.046-0.063,0.091-0.126,0.137-0.19
		C251.889,143.193,251.843,143.256,251.798,143.319z M252.255,142.786c-0.023,0.139-0.094,0.234-0.201,0.294
		C252.161,143.02,252.232,142.925,252.255,142.786c0.046-0.067,0.091-0.133,0.137-0.2
		C252.346,142.653,252.301,142.72,252.255,142.786z M254.295,139.002c-0.013,0.359-0.191,0.644-0.414,0.907
		C253.696,139.459,254.042,139.252,254.295,139.002z M254.735,137.24c-0.004,0.559-0.272,1.047-0.419,1.567
		C254.073,138.182,254.338,137.694,254.735,137.24z M255.043,134.305c-0.051,0.32-0.038,0.65-0.058,0.975
		c-0.011,0.174,0.044,0.375-0.169,0.478c-0.007,0.238-0.014,0.476-0.021,0.714c0.111,0.198,0.126,0.391-0.031,0.574
		c-0.164-0.201,0.038-0.382,0.031-0.574c0.007-0.238,0.014-0.476,0.021-0.714c-0.076-1.456-0.074-2.912-0.002-4.369
		c-0.005-0.201-0.011-0.403-0.016-0.604c0.014-0.303-0.254-0.593-0.038-0.905c0.175,0.295,0.147,0.598,0.038,0.905
		c0.006,0.201,0.011,0.402,0.017,0.604c0.048,0.051,0.139,0.104,0.138,0.154C254.923,132.465,255.191,133.377,255.043,134.305z"/>
</g>
<g>
	<path fill="#292A29" d="M468.264,130.112c-0.077-0.504,0.095-1.052-0.127-1.524c-0.392-0.829-0.437-1.745-0.76-2.602
		c-0.452-1.199-1.004-2.339-1.696-3.381c-0.868-1.307-2.023-2.398-3.263-3.373c-0.979-0.77-2.023-1.433-3.118-2.04
		c-0.939-0.521-1.93-0.912-2.924-1.224c-0.746-0.234-1.454-0.692-2.287-0.652c-0.118,0.006-0.275-0.048-0.354-0.131
		c-0.269-0.284-0.631-0.278-0.964-0.339c-0.804-0.146-1.592-0.391-2.36-0.628c-0.936-0.289-1.968-0.239-2.827-0.788
		c-0.069-0.044-0.179-0.03-0.27-0.031c-0.803-0.006-1.512-0.402-2.232-0.654c-0.594-0.207-1.216-0.442-1.805-0.727
		c-0.775-0.374-1.561-0.749-2.28-1.199c-1.348-0.844-2.156-2.12-2.505-3.686c-0.572-2.569,1.268-4.431,3.675-4.788
		c0.199-0.029,0.412,0,0.599-0.059c2.237-0.708,4.446-0.324,6.653,0.159c0.071,0.016,0.16,0.02,0.207,0.064
		c0.429,0.403,1.055,0.461,1.488,0.848c0.472,0.421,0.874,0.889,1.229,1.429c0.387,0.589,0.463,1.248,0.684,1.872
		c0.543,1.535,0.238,2.973-0.584,4.327c-0.105,0.174-0.162,0.331-0.101,0.512c0.074,0.217,0.275,0.217,0.46,0.217
		c1.156,0.002,2.312,0.001,3.468,0.001c3.156,0,6.312-0.002,9.469,0.003c0.365,0.001,0.716-0.018,0.907-0.378
		c0.541-1.019,0.863-2.139,1.002-3.253c0.233-1.867,0.227-3.747-0.309-5.605c-0.174-0.602-0.372-1.212-0.493-1.823
		c-0.135-0.683-0.502-1.247-0.763-1.855c-0.316-0.736-0.771-1.426-1.259-2.079c-0.853-1.143-1.859-2.137-2.993-2.992
		c-0.838-0.631-1.753-1.146-2.682-1.643c-0.878-0.469-1.8-0.849-2.73-1.134c-0.905-0.277-1.8-0.707-2.79-0.668
		c-0.053,0.002-0.111-0.011-0.161-0.031c-1.322-0.53-2.748-0.543-4.116-0.614c-2.932-0.152-5.873-0.135-8.811,0.169
		c-1.349,0.139-2.642,0.582-4.002,0.601c-0.122,0.002-0.254,0.057-0.363,0.119c-0.765,0.434-1.662,0.44-2.471,0.779
		c-0.518,0.217-1.087,0.415-1.59,0.652c-0.508,0.24-1.038,0.493-1.533,0.795c-0.652,0.397-1.272,0.835-1.892,1.272
		c-1.099,0.773-1.907,1.829-2.7,2.895c-0.413,0.556-0.789,1.177-1.004,1.791c-0.24,0.686-0.493,1.406-0.723,2.093
		c-0.416,1.243-0.43,2.492-0.448,3.734c-0.03,2.057-0.068,4.112,0.481,6.156c0.373,1.388,0.815,2.709,1.476,3.98
		c0.657,1.265,1.558,2.348,2.559,3.31c1.823,1.752,3.864,3.213,6.254,4.154c0.471,0.185,0.959,0.323,1.426,0.52
		c0.678,0.287,1.372,0.537,2.068,0.777c0.219,0.076,0.468,0.04,0.692,0.15c0.84,0.412,1.742,0.641,2.644,0.868
		c0.158,0.04,0.326,0.067,0.469,0.139c0.798,0.399,1.688,0.511,2.527,0.773c0.671,0.209,1.33,0.475,2.003,0.683
		c0.428,0.132,0.926,0.222,1.301,0.499c0.488,0.361,1.087,0.449,1.606,0.752c0.664,0.388,1.413,0.668,2.01,1.147
		c1.011,0.812,1.932,1.737,2.276,3.057c0.313,1.202,0.301,2.383-0.461,3.438c-0.598,0.827-1.556,1.161-2.451,1.402
		c-1.045,0.281-2.168,0.28-3.259,0.379c-0.919,0.083-1.819-0.155-2.729-0.202c-1.647-0.084-3.121-0.599-4.404-1.627
		c-0.62-0.497-1.115-1.139-1.398-1.866c-0.395-1.016-0.623-2.076-0.536-3.202c0.067-0.871-0.148-1.02-1.02-1.02
		c-4.165-0.001-8.331,0-12.496-0.001c-0.899,0-1.051,0.135-1.037,1.049c0.023,1.503,0.066,3.005,0.105,4.507
		c0.003,0.127,0.013,0.262,0.059,0.377c0.395,0.981,0.389,2.055,0.774,3.056c0.246,0.643,0.431,1.354,0.728,1.963
		c0.535,1.098,1.112,2.201,1.955,3.12c0.726,0.792,1.456,1.577,2.336,2.211c0.822,0.593,1.693,1.08,2.594,1.549
		c1.025,0.533,2.104,0.948,3.186,1.196c1.065,0.244,2.092,0.817,3.244,0.646c1.676,0.7,3.495,0.449,5.232,0.661
		c2.12,0.259,4.33,0.35,6.483-0.142c0.987-0.225,2.01-0.008,3.01-0.188c0.522-0.094,1.001-0.396,1.544-0.344
		c1.058,0.1,2.002-0.413,2.971-0.657c1.033-0.261,2.059-0.742,3.057-1.222c1.33-0.641,2.519-1.448,3.572-2.443
		c1.178-1.114,2.091-2.428,2.685-3.966c0.417-1.08,0.905-2.123,0.927-3.315c0.004-0.197-0.079-0.555,0.313-0.598
		c0-1.798,0-3.597,0-5.395C468.179,130.754,468.306,130.382,468.264,130.112z"/>
	<path fill="#292A29" d="M358.862,101.348c-0.596-1.587-1.333-3.08-2.35-4.428c-1.066-1.412-2.335-2.606-3.813-3.601
		c-1.053-0.709-2.17-1.28-3.334-1.744c-1.341-0.534-2.741-0.889-4.161-1.193c-2.123-0.455-4.292-0.412-6.424-0.738
		c-0.659-0.101-1.297,0.149-1.946,0.178c-3.031,0.137-6.005,0.504-8.878,1.585c-1.535,0.578-2.999,1.271-4.311,2.226
		c-2.238,1.63-3.95,3.706-5.139,6.238c-0.857,1.825-1.428,3.728-1.767,5.687c-0.299,1.729-0.468,3.49-0.475,5.253
		c-0.023,5.779-0.037,11.559-0.055,17.338c-0.008,2.728,0.34,5.42,1.057,8.043c0.495,1.812,1.256,3.53,2.306,5.12
		c1.416,2.143,3.274,3.776,5.523,4.964c1.404,0.742,2.888,1.295,4.444,1.668c1.786,0.428,3.571,0.809,5.414,0.86
		c3.097,0.085,6.192,0.2,9.273-0.315c1.668-0.279,3.312-0.649,4.884-1.245c1.499-0.568,2.901-1.34,4.215-2.293
		c1.933-1.4,3.357-3.212,4.44-5.289c0.749-1.437,1.29-2.969,1.652-4.569c0.446-1.973,0.806-3.951,0.819-5.975
		c0.02-3.412,0.006-6.825,0.006-10.237c0.028,0,0.055,0,0.083,0c0-2.55-0.025-5.101,0.006-7.651
		C360.375,107.854,360.062,104.546,358.862,101.348z M346.168,119.71c-0.076,2.949,0.028,6.05-0.104,9.148
		c-0.065,1.515-0.376,2.992-1.04,4.345c-0.696,1.417-1.904,2.329-3.395,2.856c-1.628,0.575-3.311,0.631-4.996,0.439
		c-2.132-0.243-3.931-1.118-5.105-3.009c-0.633-1.02-0.778-2.193-0.993-3.34c-0.228-1.214-0.231-2.447-0.228-3.674
		c0.012-5.337,0.018-10.675,0.099-16.012c0.032-2.078,0.558-4.056,1.887-5.733c0.779-0.983,1.793-1.617,2.971-2.056
		c1.638-0.61,3.32-0.604,4.993-0.389c1.819,0.234,3.304,1.152,4.35,2.684c1.006,1.475,1.409,3.148,1.521,4.91
		C346.333,113.106,346.115,116.334,346.168,119.71z"/>
	<path fill="#292A29" d="M304.989,89.935c-4.348,0.009-8.696,0.003-13.045,0.01c-0.616,0.001-0.809,0.217-0.817,0.836
		c-0.049,3.85-0.001,7.7-0.08,11.55c-0.087,4.236-0.02,8.476-0.02,12.714c-0.003,0-0.006,0-0.009,0
		c0,3.468,0.007,6.935-0.003,10.403c-0.005,1.626,0.027,3.243-0.301,4.864c-0.235,1.16-0.411,2.317-1.054,3.323
		c-0.501,0.784-1.154,1.4-2.015,1.856c-0.606,0.321-1.253,0.355-1.846,0.594c-1.785,0.718-3.488,0.092-5.216-0.207
		c-0.052-0.009-0.107-0.037-0.148-0.07c-0.423-0.343-0.961-0.476-1.39-0.837c-1.031-0.866-1.775-1.875-1.968-3.238
		c-0.036-0.252-0.072-0.513-0.166-0.746c-0.181-0.45-0.234-0.913-0.278-1.39c-0.141-1.556-0.063-3.115-0.085-4.672
		c-0.009-0.652-0.084-0.736-0.73-0.738c-1.523-0.006-3.046-0.003-4.568-0.003c-2.825-0.001-5.651,0.007-8.476-0.01
		c-0.47-0.003-0.738,0.152-0.792,0.622c-0.019,0.163-0.023,0.329-0.024,0.493c-0.008,3.225-0.076,6.452,0.211,9.671
		c0.013,0.144,0.005,0.309,0.073,0.427c0.471,0.824,0.438,1.788,0.771,2.664c0.359,0.944,0.774,1.858,1.24,2.738
		c0.508,0.959,1.146,1.861,1.944,2.621c0.579,0.552,1.14,1.135,1.779,1.61c0.923,0.687,1.906,1.306,2.953,1.786
		c0.473,0.217,0.927,0.529,1.435,0.625c0.744,0.142,1.491,0.383,2.149,0.658c0.957,0.4,1.962,0.461,2.916,0.637
		c1.592,0.293,3.236,0.438,4.866,0.501c1.926,0.075,3.844-0.057,5.77-0.258c1.349-0.141,2.642-0.542,3.992-0.621
		c0.376-0.022,0.665-0.404,1.064-0.399c0.755,0.01,1.403-0.391,2.05-0.651c0.833-0.335,1.664-0.743,2.45-1.233
		c1.071-0.668,2.027-1.446,2.934-2.312c0.758-0.725,1.317-1.599,1.901-2.448c0.427-0.621,0.776-1.313,1.052-2.016
		c0.236-0.603,0.501-1.197,0.704-1.821c0.298-0.916,0.491-1.853,0.746-2.776c0.185-0.67,0.052-1.391,0.268-2.063
		c0.203-0.633,0.27-1.283,0.272-1.946c0.033-10.18-0.025-20.361,0.101-30.541c0.003-0.275,0.005-0.55,0.006-0.826
		c0.006-2.88,0.01-5.761,0.02-8.641C305.626,90.233,305.527,89.934,304.989,89.935z"/>
	<path fill="#292A29" d="M414.868,126.76c-0.09-0.271,0.059-0.62-0.156-0.848c-0.4-0.423-0.494-0.999-0.77-1.484
		c-0.468-0.821-1.071-1.518-1.693-2.185c-0.857-0.919-1.827-1.744-2.954-2.334c-0.474-0.248-1.002-0.393-1.51-0.574
		c-0.237-0.085-0.66,0.155-0.702-0.186c-0.038-0.305,0.398-0.094,0.584-0.224c0.03-0.021,0.066-0.032,0.1-0.046
		c1.658-0.719,2.816-1.958,3.731-3.485c0.229-0.382,0.341-0.81,0.58-1.166c0.46-0.685,0.584-1.508,0.727-2.249
		c0.254-1.316,0.198-2.693,0.267-4.044c0.11-2.146-0.1-4.281-0.212-6.42c-0.011-0.209-0.048-0.401-0.172-0.569
		c-0.193-0.261-0.267-0.557-0.271-0.876c-0.003-0.243-0.035-0.497-0.19-0.676c-0.412-0.478-0.393-1.145-0.78-1.644
		c-0.348-0.448-0.572-0.99-0.886-1.468c-0.45-0.686-1.059-1.241-1.615-1.837c-0.584-0.626-1.251-1.182-1.989-1.599
		c-0.761-0.43-1.523-0.867-2.355-1.182c-0.793-0.301-1.578-0.638-2.404-0.807c-0.465-0.095-0.917-0.26-1.374-0.321
		c-1.553-0.207-3.117-0.462-4.678-0.472c-7.705-0.05-15.411-0.027-23.116-0.029c-0.67,0-0.974,0.292-0.985,0.956
		c-0.049,2.932-0.049,5.864-0.078,8.796c-0.079,7.851-0.027,15.704-0.027,23.556c-0.008,0-0.017,0-0.025,0
		c0,7.962,0,15.925,0,23.887c0,0.757,0.037,0.804,0.755,0.801c9.519-0.047,19.039,0.106,28.558-0.094
		c0.716-0.015,1.426,0.007,2.09-0.333c0.228-0.117,0.493-0.128,0.754-0.12c0.862,0.026,1.614-0.414,2.395-0.662
		c0.608-0.193,1.242-0.451,1.815-0.813c0.654-0.413,1.355-0.756,1.957-1.248c0.958-0.785,1.81-1.676,2.491-2.713
		c0.394-0.6,0.837-1.197,1.079-1.86c0.231-0.634,0.452-1.3,0.695-1.915c0.44-1.11,0.301-2.316,0.772-3.392
		C415.099,132.178,415.749,129.431,414.868,126.76z M398.775,134.216c-1.298,0.865-2.756,1.117-4.227,1.174
		c-2.583,0.1-5.171,0.049-7.758,0.061c-0.509,0.002-0.532-0.371-0.533-0.727c-0.005-1.082,0.008-2.164,0.013-3.247
		c0.002-0.55,0-1.101,0-1.651c-0.001-1.614,0.01-3.229-0.008-4.843c-0.005-0.49,0.161-0.692,0.67-0.688
		c2.604,0.024,5.212-0.05,7.813,0.056c1.988,0.081,3.849,0.678,5.077,2.405C401.462,129.065,401.669,132.287,398.775,134.216z
		 M386.406,108.703c0.008,0,0.016,0,0.023,0c0-1.725,0.017-3.449-0.01-5.174c-0.008-0.512,0.171-0.681,0.665-0.677
		c1.926,0.018,3.856-0.056,5.778,0.033c2.032,0.094,3.669,0.986,4.751,2.779c1.054,1.748,1.2,3.664,0.783,5.57
		c-0.307,1.404-1.347,2.295-2.741,2.828c-1.193,0.456-2.399,0.459-3.623,0.466c-1.651,0.01-3.303-0.013-4.953,0.01
		c-0.538,0.007-0.691-0.194-0.682-0.717C386.424,112.115,386.406,110.409,386.406,108.703z"/>
</g>
</svg>
